<mxfile host="app.diagrams.net" agent="Mozilla/5.0 (Windows NT 10.0; Win64; x64) AppleWebKit/537.36 (KHTML, like Gecko) Chrome/132.0.0.0 Safari/537.36" version="26.0.8">
  <diagram name="Seite-1" id="brG9DmE23bn73lBiuLvs">
    <mxGraphModel dx="1510" dy="1074" grid="1" gridSize="10" guides="1" tooltips="1" connect="1" arrows="1" fold="1" page="1" pageScale="1" pageWidth="827" pageHeight="1169" math="0" shadow="0">
      <root>
        <mxCell id="0" />
        <mxCell id="1" parent="0" />
        <mxCell id="bbxzTCmNcXKcuzSU-puy-7" value="" style="edgeStyle=orthogonalEdgeStyle;rounded=0;orthogonalLoop=1;jettySize=auto;html=1;" parent="1" source="bbxzTCmNcXKcuzSU-puy-1" target="bbxzTCmNcXKcuzSU-puy-4" edge="1">
          <mxGeometry relative="1" as="geometry" />
        </mxCell>
        <mxCell id="bbxzTCmNcXKcuzSU-puy-1" value="" style="verticalLabelPosition=bottom;html=1;verticalAlign=top;align=center;strokeColor=none;fillColor=#00BEF2;shape=mxgraph.azure.github_code;pointerEvents=1;" parent="1" vertex="1">
          <mxGeometry x="178" y="390" width="50" height="50" as="geometry" />
        </mxCell>
        <mxCell id="bbxzTCmNcXKcuzSU-puy-3" value="" style="edgeStyle=orthogonalEdgeStyle;rounded=0;orthogonalLoop=1;jettySize=auto;html=1;" parent="1" source="bbxzTCmNcXKcuzSU-puy-2" target="bbxzTCmNcXKcuzSU-puy-1" edge="1">
          <mxGeometry relative="1" as="geometry" />
        </mxCell>
        <mxCell id="bbxzTCmNcXKcuzSU-puy-2" value="Developer" style="rounded=1;whiteSpace=wrap;html=1;" parent="1" vertex="1">
          <mxGeometry x="8" y="385" width="120" height="60" as="geometry" />
        </mxCell>
        <mxCell id="bbxzTCmNcXKcuzSU-puy-8" value="" style="edgeStyle=orthogonalEdgeStyle;rounded=0;orthogonalLoop=1;jettySize=auto;html=1;" parent="1" source="bbxzTCmNcXKcuzSU-puy-4" target="bbxzTCmNcXKcuzSU-puy-5" edge="1">
          <mxGeometry relative="1" as="geometry" />
        </mxCell>
        <mxCell id="bbxzTCmNcXKcuzSU-puy-24" value="" style="edgeStyle=orthogonalEdgeStyle;rounded=0;orthogonalLoop=1;jettySize=auto;html=1;" parent="1" source="bbxzTCmNcXKcuzSU-puy-4" target="bbxzTCmNcXKcuzSU-puy-15" edge="1">
          <mxGeometry relative="1" as="geometry" />
        </mxCell>
        <mxCell id="bbxzTCmNcXKcuzSU-puy-4" value="" style="image;sketch=0;aspect=fixed;html=1;points=[];align=center;fontSize=12;image=img/lib/mscae/Docker.svg;" parent="1" vertex="1">
          <mxGeometry x="298" y="394.5" width="50" height="41" as="geometry" />
        </mxCell>
        <mxCell id="bbxzTCmNcXKcuzSU-puy-10" value="" style="edgeStyle=orthogonalEdgeStyle;rounded=0;orthogonalLoop=1;jettySize=auto;html=1;" parent="1" source="bbxzTCmNcXKcuzSU-puy-5" target="bbxzTCmNcXKcuzSU-puy-9" edge="1">
          <mxGeometry relative="1" as="geometry" />
        </mxCell>
        <mxCell id="bbxzTCmNcXKcuzSU-puy-5" value="" style="image;sketch=0;aspect=fixed;html=1;points=[];align=center;fontSize=12;image=img/lib/mscae/Docker.svg;" parent="1" vertex="1">
          <mxGeometry x="422" y="394.5" width="50" height="41" as="geometry" />
        </mxCell>
        <mxCell id="bbxzTCmNcXKcuzSU-puy-23" value="" style="edgeStyle=orthogonalEdgeStyle;rounded=0;orthogonalLoop=1;jettySize=auto;html=1;" parent="1" source="bbxzTCmNcXKcuzSU-puy-9" target="bbxzTCmNcXKcuzSU-puy-22" edge="1">
          <mxGeometry relative="1" as="geometry" />
        </mxCell>
        <mxCell id="bbxzTCmNcXKcuzSU-puy-9" value="Script" style="html=1;whiteSpace=wrap;strokeColor=none;fillColor=#0079D6;labelPosition=center;verticalLabelPosition=middle;verticalAlign=top;align=center;fontSize=12;outlineConnect=0;spacingTop=-6;fontColor=#FFFFFF;sketch=0;shape=mxgraph.sitemap.script;" parent="1" vertex="1">
          <mxGeometry x="518" y="380" width="90" height="70" as="geometry" />
        </mxCell>
        <mxCell id="bbxzTCmNcXKcuzSU-puy-12" style="edgeStyle=orthogonalEdgeStyle;rounded=0;orthogonalLoop=1;jettySize=auto;html=1;" parent="1" source="bbxzTCmNcXKcuzSU-puy-11" target="bbxzTCmNcXKcuzSU-puy-17" edge="1">
          <mxGeometry relative="1" as="geometry">
            <mxPoint x="328" y="490" as="targetPoint" />
          </mxGeometry>
        </mxCell>
        <mxCell id="bbxzTCmNcXKcuzSU-puy-13" style="edgeStyle=orthogonalEdgeStyle;rounded=0;orthogonalLoop=1;jettySize=auto;html=1;entryX=0.6;entryY=0.967;entryDx=0;entryDy=0;entryPerimeter=0;" parent="1" source="bbxzTCmNcXKcuzSU-puy-11" target="bbxzTCmNcXKcuzSU-puy-18" edge="1">
          <mxGeometry relative="1" as="geometry">
            <mxPoint x="453" y="440" as="targetPoint" />
          </mxGeometry>
        </mxCell>
        <mxCell id="bbxzTCmNcXKcuzSU-puy-14" style="edgeStyle=orthogonalEdgeStyle;rounded=0;orthogonalLoop=1;jettySize=auto;html=1;" parent="1" source="bbxzTCmNcXKcuzSU-puy-11" target="bbxzTCmNcXKcuzSU-puy-9" edge="1">
          <mxGeometry relative="1" as="geometry" />
        </mxCell>
        <mxCell id="bbxzTCmNcXKcuzSU-puy-11" value="" style="image;sketch=0;aspect=fixed;html=1;points=[];align=center;fontSize=12;image=img/lib/mscae/Azure_Pipelines.svg;" parent="1" vertex="1">
          <mxGeometry x="428" y="550" width="50" height="50" as="geometry" />
        </mxCell>
        <mxCell id="bbxzTCmNcXKcuzSU-puy-15" value="" style="image;sketch=0;aspect=fixed;html=1;points=[];align=center;fontSize=12;image=img/lib/mscae/Docker.svg;" parent="1" vertex="1">
          <mxGeometry x="298" y="240" width="50" height="41" as="geometry" />
        </mxCell>
        <mxCell id="bbxzTCmNcXKcuzSU-puy-16" value="Image" style="text;html=1;align=center;verticalAlign=middle;resizable=0;points=[];autosize=1;strokeColor=none;fillColor=none;" parent="1" vertex="1">
          <mxGeometry x="293" y="210" width="60" height="30" as="geometry" />
        </mxCell>
        <mxCell id="bbxzTCmNcXKcuzSU-puy-17" value="Build" style="text;html=1;align=center;verticalAlign=middle;resizable=0;points=[];autosize=1;strokeColor=none;fillColor=none;" parent="1" vertex="1">
          <mxGeometry x="298" y="445" width="50" height="30" as="geometry" />
        </mxCell>
        <mxCell id="bbxzTCmNcXKcuzSU-puy-18" value="Push" style="text;html=1;align=center;verticalAlign=middle;resizable=0;points=[];autosize=1;strokeColor=none;fillColor=none;" parent="1" vertex="1">
          <mxGeometry x="422" y="445" width="50" height="30" as="geometry" />
        </mxCell>
        <mxCell id="bbxzTCmNcXKcuzSU-puy-19" value="" style="image;sketch=0;aspect=fixed;html=1;points=[];align=center;fontSize=12;image=img/lib/mscae/Azure_Repos.svg;" parent="1" vertex="1">
          <mxGeometry x="548" y="220" width="45" height="50" as="geometry" />
        </mxCell>
        <mxCell id="bbxzTCmNcXKcuzSU-puy-20" value="" style="image;aspect=fixed;html=1;points=[];align=center;fontSize=12;image=img/lib/azure2/containers/Container_Registries.svg;" parent="1" vertex="1">
          <mxGeometry x="413" y="220" width="68" height="61" as="geometry" />
        </mxCell>
        <mxCell id="bbxzTCmNcXKcuzSU-puy-21" style="edgeStyle=orthogonalEdgeStyle;rounded=0;orthogonalLoop=1;jettySize=auto;html=1;entryX=0.515;entryY=1.033;entryDx=0;entryDy=0;entryPerimeter=0;" parent="1" source="bbxzTCmNcXKcuzSU-puy-5" target="bbxzTCmNcXKcuzSU-puy-20" edge="1">
          <mxGeometry relative="1" as="geometry">
            <mxPoint x="438" y="310" as="targetPoint" />
          </mxGeometry>
        </mxCell>
        <mxCell id="bbxzTCmNcXKcuzSU-puy-22" value="Update kubernetes&amp;nbsp;&lt;div&gt;manifests&lt;/div&gt;" style="text;html=1;align=center;verticalAlign=middle;resizable=0;points=[];autosize=1;strokeColor=none;fillColor=none;" parent="1" vertex="1">
          <mxGeometry x="505.5" y="270" width="130" height="40" as="geometry" />
        </mxCell>
        <mxCell id="bbxzTCmNcXKcuzSU-puy-27" value="Watch for changes" style="ellipse;whiteSpace=wrap;html=1;" parent="1" vertex="1">
          <mxGeometry x="728" y="220.5" width="120" height="80" as="geometry" />
        </mxCell>
        <mxCell id="bbxzTCmNcXKcuzSU-puy-29" style="edgeStyle=orthogonalEdgeStyle;rounded=0;orthogonalLoop=1;jettySize=auto;html=1;entryX=1.089;entryY=0.58;entryDx=0;entryDy=0;entryPerimeter=0;" parent="1" source="bbxzTCmNcXKcuzSU-puy-27" target="bbxzTCmNcXKcuzSU-puy-19" edge="1">
          <mxGeometry relative="1" as="geometry" />
        </mxCell>
        <mxCell id="bbxzTCmNcXKcuzSU-puy-31" value="" style="edgeStyle=orthogonalEdgeStyle;rounded=0;orthogonalLoop=1;jettySize=auto;html=1;" parent="1" source="bbxzTCmNcXKcuzSU-puy-30" target="bbxzTCmNcXKcuzSU-puy-27" edge="1">
          <mxGeometry relative="1" as="geometry" />
        </mxCell>
        <mxCell id="bbxzTCmNcXKcuzSU-puy-36" style="edgeStyle=orthogonalEdgeStyle;rounded=0;orthogonalLoop=1;jettySize=auto;html=1;" parent="1" source="bbxzTCmNcXKcuzSU-puy-30" target="bbxzTCmNcXKcuzSU-puy-34" edge="1">
          <mxGeometry relative="1" as="geometry" />
        </mxCell>
        <mxCell id="bbxzTCmNcXKcuzSU-puy-30" value="" style="shape=image;verticalLabelPosition=bottom;labelBackgroundColor=default;verticalAlign=top;aspect=fixed;imageAspect=0;image=data:image/png,iVBORw0KGgoAAAANSUhEUgAAAUoAAAGlCAYAAACcO79SAAAAAXNSR0IArs4c6QAAAIRlWElmTU0AKgAAAAgABQESAAMAAAABAAEAAAEaAAUAAAABAAAASgEbAAUAAAABAAAAUgEoAAMAAAABAAIAAIdpAAQAAAABAAAAWgAAAAAAAABIAAAAAQAAAEgAAAABAAOgAQADAAAAAQABAACgAgAEAAAAAQAAAUqgAwAEAAAAAQAAAaUAAAAAQ33dAQAAAAlwSFlzAAALEwAACxMBAJqcGAAAAVlpVFh0WE1MOmNvbS5hZG9iZS54bXAAAAAAADx4OnhtcG1ldGEgeG1sbnM6eD0iYWRvYmU6bnM6bWV0YS8iIHg6eG1wdGs9IlhNUCBDb3JlIDYuMC4wIj4KICAgPHJkZjpSREYgeG1sbnM6cmRmPSJodHRwOi8vd3d3LnczLm9yZy8xOTk5LzAyLzIyLXJkZi1zeW50YXgtbnMjIj4KICAgICAgPHJkZjpEZXNjcmlwdGlvbiByZGY6YWJvdXQ9IiIKICAgICAgICAgICAgeG1sbnM6dGlmZj0iaHR0cDovL25zLmFkb2JlLmNvbS90aWZmLzEuMC8iPgogICAgICAgICA8dGlmZjpPcmllbnRhdGlvbj4xPC90aWZmOk9yaWVudGF0aW9uPgogICAgICA8L3JkZjpEZXNjcmlwdGlvbj4KICAgPC9yZGY6UkRGPgo8L3g6eG1wbWV0YT4KGV7hBwAAQABJREFUeAHsfQeYZEd1bt3cYXry5qRVRgGlRUhCAhYQEgogJCMwPAsMfoAx/gDbPGwMzwLMw/azQc/YYLDBGIGNhRCKK4RAEiighNIGZa1Wqw3a3dlJnW6qev+5PT3T3dO57+2+M3tLmu3uGyqcqvrrnFPnnGIsShEFIgpEFIgoEFEgokBEgYgCEQUiCkQUiCgQUSCiQESBiAIRBSIKRBSIKBBRIKJARIGIAhEFIgpEFIgoEFEgokBEgYgCEQUiCkQUiCgQUSCiQESBiAIRBSIKRBSIKBBRIKJARIGIAhEFIgpEFIgoEFEgokBEgYgCEQUiCkQUiCgQUSCiQESBiAIRBSIKRBSIKBBRIKJARIGIAhEFIgpEFIgoEFEgokBEgYgCEQUiCkQUiCgQUSCiQESBiAIRBSIKRBSIKBBRIKJARIGIAhEFIgpEFIgoEFGgOxSQulNMVEpEgdYocM01QmGrX9aXrFgtSt/cuF7Kl/6OvkcU6AYFIqDsBpUP8TLuvFOo7DCmHhw7MBSPJ5Yz01kuKcpSh7mDiiwvkSQlwYWbkgQb4KCVJDHOhDQgBB+QJFwtJokJ/LcfPy1cpDscz+6RZEVwwfcLSUwqQtnjOO64YWi7nKnMK+nUcH7bj7/gXHnllZR1lCIKtEWBCCjbIlv0UjUK3PCUSBmutdax86uBY6skWVoPQFsvMWktEG4dBluKMaHjHv1piqowVdWZLMtMCDwh5rDM+83nfhfLk/AswLP4E+8q3nfHsZnrOoy7rosLDv5MgKolJLYX5e/gQjyP8p51bWeXpqm7MrnMzss2LNkzm1H0JaJAHQrMjbg6D0W3IgpUUuCmrbm1zLVXyUw+Bqzd6cC54wBaqzh3h/HsYDzRJxPwcYAdrnmfQEJgFxI+vY+S796FDv+ZA1BA48zIJmAlMCUwlhWFWfk8ANXOSJJ8EGC8DzXajHuPMy4eZZL7cvzAwI6NGyUC2ihFFJilQASUs6SIvtSiwE8fHR9UFWU5xOTTIeOexSR2LBBvPZ5fY8TiEoEhgR+4No8rFPhNHGEYE4Fp4Q+c6Qx3SiDq2B5HShzmdrRjm6LIdwuH3+/EzD3vOHbJdBjbEtWpexSIgLJ7tF4wJd23U8QPTqQPkzg7V1KkMwGOxwP2jlFVTSdQAdQwl3tibmgBsXViS0wBx0lcJyUCe4jzFlB1MzSmjwFf74Sy4N6XMlt3fWTDBrv1/KM3FjIFIqBcyL3nY91v2ZpeLrn8DMbkM6HXeys4xmPAVcVVzWDujP6vfS5xbph5ukfUu3gFADSbLb43nUoY1tm3iIelH3MieGdcLeWjqBoAVGWWmaOKTuLag+Cdb5e4uDvef/CxjevXR7vwTffawn1wdpAt3CZENW+HApj00i1PpI8HIJ4lyeICyKGnYzCsgCjNbDBS2BQBMFDOzYBNCdpVVIYYNFWR8zJ2shVZErIs4rIsyapS0COqsmRqqpSh14BLqq5Ckq9bqFAcaBBRNwd/iu2KfpcL7yXXFeB0sYEjhINPCf/E6BN/s8BcrF4roFyoG6hDFQRwzug6s2A7XwTdrocu9rahdN9DZ50l5Yr5R5+LiwIRUC6u/qzbmivvvFM9c3jDsa6qnMcd9xIA1nG6ERv2Nlxox7gJ3aIHnoQyBRQFCEoOpHFXUSRN12RZV6RcTJdyqioZuJckGx58mgBJLsngVxkzADi0zV2oa6uIRa+VjtpiPnQZeblCQCwGRrpcBnDqwFDJcbhruyxt2UI1bZE0bY7mQwPJmYpnUKWZRFhY/N7g01NBYJOIgNPMZ10Uvhlrys8lVf5pemLs8cvPWhOBZgMaLqTbzY6LhdSmqK4lFPA4x82T68ELXYLLF+LvTF3X44Q3M+Y0JU+Xfy1AWYFbVCTJlcAdGqokAwizcUMRuib1gRu0NIXZAMMYwAJPzABgWVZzwwz1Kbvj9485sZtyrlYW1UW4AErTsplh21w2HZHN5rmet4QKUOVcMOzYAzPx6FzNa9eUcF9RVW9n3TLzDn4/wCRxI+fqtRe9OvZC7TejOwuFAs2Mg4XSlqieJRT42dbJYe7Ib4KY+E5XuBeripaiXV7an6gNVgVQBGMGPowxDeJxIibnDF2OJ3QpHzNkTlwi0AMiNFhFQdwYfqDc2nmWVCpEXwuASmjowSmaAN0Atrsth+eypjDyecFzFhd5kxsQ7al5TQEn5Ys9L48etm1OKLJyg8PZNQfG9t3x+xsjfWaIhkBLVYmAsiVyhfthzGbpli3TZyqK/jvcsS+DeLiWNmNsK18TyIoMHnSIDECYNzRZ7YvLTjImCUWV4poik0ZQBbeIPBYeILbaYzKtEN6swL43dJukqs2Z3JzOuom8xa2syTVcK8yb4qM1CqGFSdcNZlkmjEnFFiHJ31W5deN5Jw1ur/FKdDmkFCh0eEgrF1WrOQrc8EhmJRxcLsCsvgLufBuMWCxuW2ZVnSNxf8QCUsdDbLbjMVlNxeVMIg6JWpMFOEbS2SmHAigSKRolDzfpHxAEIrkDPacM4MxNZgCcpnABnqqXRx3QJC6Tds5pE8hxrN0g/42O5Xz37acMPNSo/Oh+OCgQAWU4+qGtWtzyxMETJaZ9EMqxt2uafjjZ/nl6R2KFKhKYTWzQCo5dZdYXV6z+pKICJF1dYfoMbuIN4ho9KK14O/pJFCC8LCaAH7bWmZPOOVI6x53pDNctm0sgX0GqLz5Y8UmASfpM2zRz8E2/VdjuN3fx534V2WZWECpkP0u6PmQ1i6pTlQIUYCI/kn0rk/iHwOFcANEOJjAASNg6VibCPExu2nThgynVSsZkDTpHAZMcFQpGjweKgLGSas3/LiCip7wU0GO6AEyWznJ3Mu3oMFsiJrQmaJJYjsUN9pl5Fy6Wdwnh/utO8+nrIsBsnv7dfDICym5Su4OybntcJF0pcwkm2B8gm7M1XVcxyeZxgASOmKJMV2W3DxzjUL/qJmKSrgIdcVkmfjECxw46osarxG3OoCK3HMHTWVdMTLssk+dkglRzI4je0aDHxEJHXXMX+u6ql3JP3hoBZg1C9+hyBJQ9Inyzxd7yYHo5i4nL8Pz/xG7qSTSxqu1cE0ASFJI4PZxSnb6ETMbbsFSRoG/0uJtmi4ye65ACHmgiDzCUpMPkk9MAzbQrF/WZdL8yUb/SbrnrkB29uBcr2t+cf0JiE9CXADRKPaZAlS7rcY2i4j0KbHpkegnsc96PfdePaHrsSIrAg0k0jxskgAT36KSSxD3CdscgvxeI1hE4hmIkeaBJ+kxHuNMZ1z2YdtVM1pWhNiFsnJeKgIkgHQ669mfwLvrqO05O3TnvwehCVylQpau6Wn5UWAUFrgFA9mnS+7FB82FVUY+aCc5Q9hQmEO1aCxh/u8MDqjOQUmRDlTVwIrgcbciUESskPwqoSD3HSJcpxqdcgZ1zhTyDqgMmdJi6Tu6kedgp/cS17b97x2nDT4SkOYdcNSKgDEmXf/+2vcmRFX2XwzjnLxRFO4o4wsoNGuIeMeFEwpCc4X5VDPQpEsx5sDEDPxC6GaUFQQGPy0SXwaDd2j/hSFNZV4WKsgZgFnSYsMWcgH3S/zMZ+8alJ6X2LYiGLqJKRkDZ487c9KwweD59IWI9fha7n6cVALI8bmwBIBnrSyj2KDhI6B91BV5zdD3Cxx53YAfFQ0lCikyeh+/52JTLxqcduRZgkm856TBty3oOY+TL+8b2/yjy9OmA+C2+GgFliwTz8/FNT0y/Ab6CnwOX+BayryMOspQzJB4R3Ieg3evRQdXtT4J/hM4f8SExv6K0WCgwI5bD+ZzzA1MOdss5AnkI6ut5icK+EboK1/0FNtf/98Wv7v/NvIeiC75ToEpX+F5GlGEFBW57PLeeK/yzAMn3QQ8Zr7aLjVdEXJfdZSMqB0AS70G2jxEHWUHLxfRzBhgFgnM4JJJPTDsKTGQLOFrSULrg7ZC7TgZD4ls51/3bSBwvIVAAXyOgDICotbL8/uN7k6NS3x/JivwJcAYrKe4jbdaUJhKl44bsLBlUHRiJa1BJeiG3IxG7lEqL+/sMh8kz2PTZP+4I6DAVDIt5DGZRHEck9qcRxO7L558Yv3pxU6Z3rYuAsku0v+2J3OuFIr4EPeTrKdoCuRqWJgJCxHDkS6CDhJgNt2DP/pFc4qJ0iFLAQ0bs6U1kXL5v3JFzeV5VHKeYmBhT0Nrw/zQd+3PvPGXoxUOUZIE1OwLKwEhbyJjCnTmu/HmE2/owfHwTFKyiNBEQQqnPB/sUe+mwKkPcVqCCRDzECCFL6XQofye9C/mVj006Yv+EreJ7VXEc3qzkErkDMsrnLjqx7weHMs38bnsElH5TtCS/mzdPXwoPiy9qRux40kMSJ1magIUCUXv4imHNSSUUMvPxvGhKn4m+RxQgChB3if8p5BvfOwZxPAdxvIr+ssBd4nhgIa62HPt/R9ylP+MnAkp/6FiWy6ZH9iwRWuorcPD9gKqqCukiSxMxizgawV06pNJuNlSWkoqBXfpI9D2iQFUKzCgqOXbGnd1jlkph34jjLE3EbpL/uOM6O7ht/cWFJw38V+n96HvrFKggcesZRG+UU+CmR8ffqOr6P6iqfiqJ2ZUiNOEh7CDdlaOag0g+On5HeshyEka/mqAArNMF7C/dV8ZsBj9ykkaI4yxLxF1CF063/lGW3S+ef/zAwbIHoh9NU6CStk2/GD1YToFrtu7r6+PxP4d68U80TUXg3PlcJG3WLBtU7ZFBfEMs14iJLKdh9Ks1ChTEcYmPpx2xB4BpWfNtL2e5S8d6BAcFffKik/rvbq2U6GmiQASUPoyD256YOpZLytcVTXsLBa6gABalicTqVFy1Vy1VYRupwCc7cjkspU/0vTMKEHeJA9KcVw7Y5N2jUlC3yonthXJDqEz4jP/1cjv1/zZskOYHMO2sGov67Up6LurGBtG4m5+Yfhe0jF8FSK6m+JCVCSNWLB3S8ksHVZ0O6+sNF4lKoGL4l3aTEFKWwYIds6s3lakkUfTbBwoQ50j2QQi2wfcctHH2OdwZKmY3HUVBDuU4bO6/mWP+2QUnjbzsQ9GHRBYVpDwk2uxLI/99+/bYssnRTzNF+itZUZVqASximuysWKqxgYRMAXPpCNSeJJymaMUQlxKnQDjo8IzNRT/YiZzpiiTqNHeudU9qFxXqJwUICBEs2H55v1Xd7hL3dQMHzpnmE4K7H8ZGzwN+lr9Y84qAso2evX5zdg1MfL8BZflFhRiRFWY/yBPgaK1aquMYBtmgg6J7kbAb6g5AL2rgwDCgITGRXqRt4iTxv42zAe0JW8BuUxjdqF8Zi1OyalRSp9GgbPg8mllMhyLXPGN36e4dsyQE26DIvyUUKVCmECTYnoDF0WcvODH1zSK9os/qFJgbUdXvR1crKHDz5qmzZCb/G3Q+r0LoK4yzuWlL3zAi+bJhjUPUJmDqmeE4deyQLjsxxRP35/UzXSDgyrsifdDicdTdc5WsaG7LPylPAqdi/pQBkYjDVxMfJv5I/sfB1wwmUZxDQpyExIgjZxgUu5KOc11tPDCMfHC6IZ6el0gBJ8boVHEUgtKkHCIvgWEWCDonx1Aux7t5UiyAjTewRICRLqRZ0Jyp47ysF9EF6gfqiPFp1959wNJhpE7EKksUiIUegk79WyxjfeaCM0amyh6IfsxSoIJ0s9ejL1UoQPpIoN83sBqPVvOwMRDEYtWoavX3qQbAoWcgSVUHQDrDukIG7I362EXAmqmMy4Y8RKvS7kaXyOeY3gVnSiCIEEhMdfHb4QLhaYWE6wP4JDDMeZgpWBwv0KbWvESVrXZ93oMzF0qf976Di5aElCUsxFIFAJU0cFjjWAVkTZb7YbNK7D/HszrVm8CT/hZrgpGlyOa52LnPEtVcILGWM82g8G32HQjD/ocXntz/zGKlRSftorEVpQYUILDZtCXz5/DTvpImWDU/bToCdvVSVY4ZCiK+NASnBiV2dpum/RBOXkyAxWoEAQASZnGR3m9yBOCQAPD136Dn6Qk8530Q6tguh3OdSAAQVQscKm4kcJvigeES8X0FZsbjcgrv4t/gUmk5VEn0GVWTWCrAhsiCA7UBov1gNScBnooqy0nig/EEKAaRoEeqEq+OAfxD9MCpkPbu/RbZXGrVJj25PyKY+nPcdT580clDdwZQjQWdZTWaLegG+V35+3aK+MGD6f+jatonyeynWrSfoZRirlyiyRqOYwjLJIPYzeLE6DUgCE0igFr2gAUOUHgAV/aGBzqEIZBlCfVwdEEWJ/dAlBMONoUg0YkUrtMmEW0KAUe9/MryCNMPrz2oELUFyaEKo+6mpsh5rBT9YD9zANFk4TJhrLco0MeCTtRI6r69Bx1p/7hN7fLaVtoojHEGJcg45/bHL3z1wH+W3jvUv88j1qFOkNL2//RRMWiomX+CPvJ91bxs8CxMf1R3+TAWaalw2mHp+7383ixQUh1pEo3bIpN1RJI4RppRBB8AEwGR2QI3olkuzyDeURy/6TKi2EgFnWYBcHrZ1M7LRltpIqBdEMklGzYKEmKT5BBGPgHQdNHYGO4SpeiZzsvrUQ7UtWifGJuynd37bdWt4itOeku0kdbBP7/whNRX0c8Lt8E+0pnGR5SqUOAnD+9fETfi/w6R5Lxq52dDtcNXjuju6AD0gKx3mzZVqu5NaQAlT2DXqZlRTuCYccWuCYuvxPM4+E/IpsOzUDYmaMZAi6ejnMJYodm2gMGiGr3Krs22D6DIhKNJsgPR3NUVxMqFghOgSSqFBWuDSp1ICoiptGO9vN/W4StOa2JZgjYCEa1k5jjWVxNjY3+5ceP6+QbCZW8s/h8VJFr8DW6mhTf8dvJI1VB/rKnayZWbNvQ+uAxn7XLdhs92PIyYQeCILWC7X6Od4xmAo4rXSASUE5b70t68uxz6RkjXZC5ErARNokUOjDVoMnu50H5vvQFIZiCaazjxkmMnSAdtPK56IXKZwHyRznN31z5Lgd0lqWbLEvU7mRABLP8zLmU/svH4pemyBw6xHxXkOcRaX6W5tzwyvg4j5Kcwyj2l0tOGZouOI2IPA0jGY3IsjCBJTaJ6ksZ+RJdxtF9toPQ6HxL2QRMmJDlHhihGPugLlluitgeZCDwAitTtBJQZ2KcadMobFk5w3GSQ5OFpkFXwNW9aA8BR8pewI57JVgsKTFGIaEc8f6uZY7936Wv7x3ytwALKLALKks668YG967VE6lpE/zm1GkjGDJmvW6bnYrpEHi1hT2IY4ncckdJnNi7K6utxitiw3pu17X2mQ5xxNBbKKFT/hweacAeFbsMBh2nFVAVrKNNBRI+O4R8ehfZROxyHuy/vsymSul7JWdJTMzvit6WnJ957+VlrDskIRNHkmJkPP300d1hM5T+pBpJkLYKQaO665boASKoV8XdncujGR3EazpRVD60xAQxJuASWEK01AstiZxMnAcWjtStrEzdJRtpR6oQCRFAmbOgz7bgqKQZikMIEYMHEGCWwhLWGu+uALQ5OOiRVzEvk9ggx/Fd5y/7AoRgMuApJ5tFo0V/YtHniCJgnX6MZxnxOEiCJ6OPW6mW6MFTJqMadBU0g4k4UjGVDlvIQ9zyjbfhpxy3OEjAQJKvpsioUuZ1p03bwvFgWU2UDEiKuk9G3giNY8nuzjpZ1yHay7NXoR9sU8MCStLoudnvshK6gv2QDNF8QUetpzGAcYTfccfdP2Ua1YaHH4szO5x9hknP5BScOPt82qRbgi9XosQCb0X6Vb9iKjRuu/FTX9BM8l8SSrAh/+pOKs3YZjEXIeLsCkEoeDfKrSGqSg80Z0jsWNg9mSnOFZI/bnMMNMUb2Ol79JIljQ8ZJ2w6HITn5cNNOrQBgWngZ0bhEzOTwipljMIOs+6GcN8fKZCVUACbWKUw0Okkx1MkDS5wYDltLtg8RiKpVVkfkdMu2tkBgv+RQAstDGihvuD+9TE2yW9D5p83TSWJUg5N0IG570am6jZE0qaAwcvtV5kDPqGGvYB5Q0241OFwLLogu/LVh/MYNm7OM6bpJvA9oLU34RRe63ZDSKhxy3z2Cu6okmwlNUmIUchwSQI8W3Kao7zGWGCWInC5eOUj2+PNf0404DjHL/Qo+aJceKlHTq5BhPmEW45Wbn5gYAoP2Iyiq31oNJImTXANOUoVJWQ+wRfRhdx3mPbRrTdxfzUQjOe9yc9uEhccEiXq0NVvz+ehGDyhQQBv4Dkr5JIwxsWMew6IV9l1ysfegLfbVBEu4PObzt8W5856NpwwhCtHiTuR2dsila+7bGYfzxTeMWLwqSML0xwJICsRx7CpIErxpMGQfNWRzEIwsOqcuSBY6DhFioKwESNKmTASSYRzNtHDBmwlakuSEaav4gxOUMAuibhgrjIEEIF8xorFlI9gHrFJFYi60eOy8nKL88KaHdyeqPLKoLh1yQHnNNULp6x+8SjXi76nGScYNWRy2QpcAkl3dtQTIgYtk9ijk7ZjMYKMpGvqOEaOCCD3OQdOpELMX1RhdZI2RNFKNACyljO1mAaAUySh0qYDtTF4+rEoIGwgfhPlVtEyTqXrsAsXo//add26Hm+fiTYccUCaPmf5fsqx9mM7ZLtUV0UAwIOquW6G7MIgjc5qujF8af0A5d0iX7EGNTq6FSNbkeKMKHjC5m3cEeeBEaUFQALtoWOHApulZx41hkTPznCOwqecGFcIWSABKVYwMaOY8sMQFOooZJ46+Lzc8+nla3EPYAF+qtGgbVo06t26Zfg9g6Wrcgy3k3AFgtAGsqcxdv8KwwFHC+LpZqKpWSvPXqBSEQuMD2NUmY+VWSqXJlnNc87lpWwNXecgteM1TOfxPot/dmCKbfTrcyWHz2q3x1yxlSHKBMO7s3GdKBycpRkj5mzQWFVUVcPf9k4tOGriq/O7i+FXR5MXRqGqtuOmJqTOx+3gTtrBHHJyUWJrAxtHutokNnAQMDbtGkwFNtiBuky0jFPulNar/nTZwEOLMfH7akjIOJ2+QKC10CsCEC6tdPqWrMOXCZk/IdscJHOFo4e7YY/GpLO1LlROcTEMApiZ3zPddeNLgT8rvLvxfFc1d+A2q1oKbtubWKsK9XVW0o0lUKE3AKPK4sQZSSqxbAXdJ1IaYLcUVT8xuqQ8KIMlzO9K2PmnDP7e0MdH3hU0BQh9EtgNQmilNwea4pLaygAbdeKoeApDyHXstkc7O5yzBVSKepXsQZrznXnzS4CNB16eb+S96kY0C7yrcuUrTjHkgCUKLFUs03p+U490CSRh+20sMxYGrG4VAawnnCCRNeNU8P22rEUh2c5p0qawCKiro4/iE6TjU11RyWHbHqXpkLrd6iaYYkGMqQZwO2oOp6DCC0f3bzx7OrOgS1bpSzKIGSlIuj49nrlQ1453VdrhHB1RniRdPsiu0FkmciDiK4FwqHGVa0UPRRMEmjzuO7dJnpy0V4nbVcP5daUVUSDcoIEGDHpu0XDltOTm4qdphAksCybXLDQd6/Uqs9DZ3YHZ3iqu5315MZkOLGihv3ZK+XFXUP3FsnGJdkqh3B1MqHd9Au4/doIHAsbEWzrGh8a42q44kdhMAKRBd3H0p4zgvpi0ZPt6zpwqWNCn6usgoQAsp+l/PcaFP5i3EURZWS+JHgPSg+ZOMScrqZQZcd7yofmWlmfkcDiyLXcT0vs8DSsNS7bI6tvpjUTSiWqM3bZ0+DhZqdyC0/TLXmQNK6mREArLWrzQkFa6BrXB21cppdA3isoDpjwnbSHjNNL9pQ2I2TJSccaDk7pwr42MRA+TMMKw1GmdXltkvjci+qO5Tq7GaY6NHsxHfpI8kpTA0kMb2vgnb3X3Anjc26SR5zD2ET8hdcfHJg/8dhvp2UodQELyTBlR7986toi/rpjfpeuwcy5qLYk8DTldl9/BVOo/pwR8EhqAIBJIuQFKB+NQUrT0RCzMB4rW1J++yKcutGsmlWrtDf42Oh0VQcIFPEANHeLvYSnMQxsMFX4IDXOiw2zIyUY/hFo4mEDh7AzYoXGB3FbwWDp2l5yGg9i7mXXfJjYUTyU5gowdukN7hZ0Ev8s00EONV7B6z+X4E0ShUce4tFZs7ruvuhd/Ymy46MfXk3J2F921RGirn3PSnEejiHMsmO965REwazt02AZK0eTN3w+dvlDOUiO4I9JF6IXBuUyBJXCTc3My9OVeM5R0dMALJZoEmtMUDOAAdtQGk50p2Kh8b2xnTJ1+RtfTBnD59wNEn9ibwXVOyk0wxM96Tcy2GY6aiMadvmNmxFLMGl2atwVXMTg0nrcEVIjey2nKSQ4Yn3tEspT8qjUCX7GRJfFgsyWuLpGUcV8bJl1afhsCXGF69B0shLR9SRD7P7ekKsyEyw8PBfMsty/r6bY/vfcd5Jy2nDl6QiUbWokq3bE6fi4ORbsAAilceLbtsSLXgu0r+04G1m6YmYj86ONxLBlg2dbiXx0ViduNwL3NXxtYRBm1hmv2A6yNukQBSckw7fnCXGjuwI5fcuUVN7n5a0yf32QBLTclPA0UBZHTkTBHcCFjxV7VjOFnwwcyQuxZzeQ4vGTzRn7f7hiw31p/gqqGYgytYdvXR8fySda45sFTYg0tVN9YHwITNrMd9gltdRMAJCmcGYpoCK7NYL2KkloIGdaFpcXf7HujQ6bCy0ps0H3BmuGnmvnrhq/v/tOLWgvlZ2aYFU/FqFb1hM8KmMXYXTBSOJRfFYqL5MZiUnbUrYJzTgp6w+H7Tn8hcl4SFoBa0CYPVvvGbxDLirBpnd95xD+Rdcp1cWFwkTQsSjRWNK5kJER97yR546h61b+dmbhzYqWnpscIYI9GZnsWfJ0Y3Jk3hCReIiggSENSBDXM46onpRGCPyPRJj5Porrj2wAi3hldq2SXrzfSRp2jZVceACx2R3HgKjK0n7i980AQdEeAynzRUBcFImwieUiBnUP9ifWRTae6+uMecF3eTGAEwL3C2td95wasHbg2qDkHmWxjEQZbQxbxvenzym7FY4qOVpkA6PGCOXGNwRObB6htUhYCMsrBwoJcET5+mNolI1IatXHZHxlan7QXmYUOco6IJ2coLcI32yObbldQLv+Wx/S/qEm2e0cgq6hY7IblgBaDEbn+z2Xgg6oJjJfREHbgWc3Orj5GmV7/KmT7qNUpmzXGyayQAu9CVOnMLarP5h+o5SXKSimwlNTUGRQXgqneJNnf2IJTVKwcQpKUCWTSc6Gg71rMSV950wUmJl3tXy/ZKrmhOe5mE4a1bn8hcgOgS10HkNkpFbnSYgA+3nUoqenB6SQJJBpCEMAmJuxm9EbGNiLVlvpixpZwjyHw3DGRsWAehwHgOKKhlJuz+Z+9jo5vvEMmXt2iymSG2AVO1aTxrWFbZAzY4S5cC7RBr2lryaEtuq9BdCj0m8qOrncljzlImXnUWB7epCg0egySek5i+4BKRRLgJRc2ldIXiFMzj6LrcJPHibpNNZXlBo1RSOIng+XzuOxed1P8HJZcXxNdFAZQ3PTw1igNDf6VrxnFlLoqIVLZ8VMshVFQMPtwtT7BmepDgDZI2QBKHozQPkmLS4vZLGVtGYPJ5phXNlNvtZwggwZ1xY992PrztLnfk8Z+pxtguEocL4FjJQgRRQUfkIYYTvZq2RZ1fDcA87ZSD6+XxJM+uOIqPnXK+PHXkBmaNrgbSAzCL3Oj8l0N7BeMQYKlkAJYpqDd6FhSYhkHeEs4Le0zZtsvVSIScCNTvQJvybuyCXxdaYlap2KIAypufmPqqEUt8yoKhazGR6gpBLiycwS2DBwnIZxYnHSrMBkhiRDS3A4nnXITWEi+lbZWEw9B3AJnjyCo39u9wlzxykxh54nZFnd4PRzZwlhBru54cZiIIJxXcMevqRSKh3XHXFfbwCj5x3Nl8bMOFSmblUVhUMald4jAXBqfv6X7BTsYUJdsPzhLjqqmNxCD6j6QlHH3LEUBjHnOiahq8d+znBDffePHJo7uCKD+IPEM/Txs1Goblb8KMvQXPxUpFbhVHKRyxUrdxQj0FwW2UTcv3KUc604bEbdhLNhyU3moKdmVvzrH2ZF0D+qRw0x6ri1A1YYzttJY+eL08tOUXijZ9ALtUBJDzxn/L9OvoBagswFnSfNT86lnPnAigyY2kO378OWz/mZfJmdXHEgs0A5gd1bgrL9MYw2Yg7Hbl7IChJYH1PTufB1URL++3+djEfH0lnROOXfB/vejV/R/uCmF8KCTck7VBA+lIh2TfwB2aHjsDsfBmnyZcXLVUgx+3FkiUcpqcZEwOv22uKdh8bDBbaQCDM3H2512cpe2QHinEdMcIxxlYsGm0R564zV1293/BrGc3Wqm1tls92xsBfYFBPonh7egs69XI4zJdiOUAzIMnn8v2nX25lF2yTpYXkHE7hiPiWyoASzWJsdaTVY2GvANrhRegr8yZMBkqGfGFH5KNZemtF5+Yuqtef4TlXkn1w1Kl5utx8+PpT+q69rVSvSSB1kCfkj8MpkDIqamNleZLLDxJu3sQt106K7sBRpK6CBYs4CSzTnpPzknhZ2hp7onSsuwOPPeAs+KO7yrJ3U+qtHfSExG7mU6xaUccYngAFPU2gGBi5vQNuWOnXyxeed3litU/Ag0bdvQbrYzN1D3gZwgs457OUu3DmOsJZ0ngmM5xZ/suc948UbELDtfih5QlyY3nLZdCb4gewBALeATMZH/zQxOHyzHt1zg8YRWFdyomhIh2Dl9tuIYmtxShp/h+o08QTAzj8C8cIUv516XfDCfJd2Uc65WcHStbVhsV1NX7ENnARcJjxl3+6x84S574mSbZeZm8YkKdaJVyhVPgLIOpqWdqhPGVX77e3fPmD0jjJ7wRCmlYv3j6y2DK9CNXGmszYniuH2I4LdAYr35k3VIeNEHgC+7sH0cQ/wreFl47OPY2/2nsgv99S5n24OG6E70H9Wm6yJsfn/yGEU/+YeUGztplujU8oGoBxZcUgwhw0afK5DpW0e3lVZ8hrL0n6+T3mk6fZ1NT/kg4fnkmPYoY3PZrc9Uvv63HDrwIz3Td85IJRwXr1wJ0RlwdYUuIsgMYCGw8e8AI7Bl/9ZvErnP/p5xfslaSK1xk69e0B3eJpYM0AzE8Rxs8tOXcbbCkDkHkI/f5XaacrxDBETQDnefuga7nnAtOjD3fAwo1XWQPti2brlvNB2/enD1LU7X/6zg2ZnRhlfREbuxy44hNAjDf20Wl4Kxt0a9KtNtaFySp4rS7vTfv5vfk3CQGS8Pn6Z1up4IuMmev/vk3+Oo7/lXTsuPgInXATWB4438TSZVRYJ8QWcP/fp+tMG1goZz47ufkwW33cKd/hOWWHTFDqe5zarP1avQFdYaqEAApZXVFJhGh652rwu6ENlcn027ZPACGw70xnnLsfOI//+UrNzVqSi/vd51onTb2GhjUJh9PX6snYpdY+bnIQCQMQeQWOBwMpkD+D9yYKtnDGgWPIs+x2onmLK3i+03HejnjhPQITxK1dZbc+wxf/bN/clPbH9YWHEBWdgHHrLM8J/6GFgiVr7b6mwzTBfwK9r/uMnf3mz6gkJdP2EVxtJHDeyeX1OQEpkfX5z3mhXhpj+mOp13sg85RHEwurT8Z2AxtfNspAw/N3QnXtzKED1fVqtcm+cTUubKmXGSbc65nhIsjg6qdiAUjWsDC2R0EN9kIJKnGBJPw4nIBkkb1FvT4KgYmx4l5Q9vuyh959Z9Jqe2PaEJFVUtHb4+r2E7xiLOEkMgSDQpy+A40ed5HCHa69K4fqkf88HNcH4f0iM2JkCc5azvxvMt7FC1dSAhII+Eo6DI2hrhK2FYmXUX+HDFBYaXhggLKmx4WCdjw/SV0G+Aai/MBRt/wLh4dUki8CKQ90EvCVrLxcbJk2Ifw/fC4sXoi4jQcZEQeMJMr7r7aPfy6L+padkIi8XsxJKyViBKBDTaFze3sBdkw4LLQDJZ6+gHlqO99RqReeBTe6OEGS9BInsYh8AgCbXqST5D0qcib0BHzVAFDAz/S8ptk2oegGRentmUvLL8Tnl+BAEtQzZP1DB3tcHapzSTJuSuGNVdTvA0WX4um/sSZ23aM7IEa5EwMTQZjEAEuFLfRww3yCuQ2edFwx117y9f4qjv+DaeJu3JozX7aJQDpKxGRBP92ByxRTwLL2L7t0uHf/0s28OQ9Ttg5S3jLG1OWwx3OrV6A5QjORInFsPVWMkdIVQbmBx7r4rN3bt3X1273B/neggFKOk0RM/1j5I9YTERsBLuw+vsQ+jqAsEBxxNHGDjeJAyValWLpc59UI1qlcaaNhPO2wxdLEruLspm1Drvx79zR396kknlLQMz3HFF69U1hsJb31rWiyBF4TciMSs1PK+v/+4ti9MGbwFmCSw+pKoMGMlAqnrZc7PEIt9tgqcK3a+nQfIcqCosIQfG10FhdFHiHtVHAHOq08XI3Xxkbz1yqqNprSo3Lce4xRzBe73gOv+uCDkXwXQkDqb7PLA00cJD2jixs7VwKbB6uRMEs5FzGOvwnf82Gn7hN94Jb1Mf9cDWg1doQp6LAMkGW5g5KajWPNp4n7lyx8tra6/9eGr3/BiyX4QVLap6FKFsZ2zsOt4S3a6PhLb5C/Mwg4sIN9FWxVMJcgq75U/fdR0xRuNKCAMrb9ooktiA+UcZNYrIP9il2wqCzb/wnKsyASC9ZdwfdA0UoS3chTtqUxXG2TVfHXMNGEygq+Yy1/qdfkvqfvVf3Nm0avrUIHiDhGz5FYOvIZKhribh0bFXIa2+6io3efz3AkizJulmDFpoKaTfrOHrOdfPdZn4JD5cM6di/KZ8wMPdjmhbbMJ6cuqSFlnTl0QUBlO6+zCU4m3sDEbKYsHXDlw6D7/NZdiCoSyqSDc8bGfhbd5SjaH7AcnOITA5MDRdIQo4BSGatw3/612zgmXuxsx3ujYZiv/r1Cc5Eg/Wq3e1e8cCSc4Dl19jIb291w6uzhI2QJGk4N1zxjsLtIlqSygzH3coDKdUt1VV6NtGeI4f0JxTHwa+x4Ec+oQfKa6DcRaSdTwGyZl2wiLjDKTWPQ8LqcnztEIgOBeun87cbgCRt3qRxEthuBLmASj9cdCQxMJ82D//pF1n/0/f4wkl6rnzEuhPx6Q/f6Vq5sUc7FA/mHdQQ0YUZrQ5d5SqpNRRdyeMsb/waH3rilwjdEc5FijZRIArr0FdCEhc4DrMuX+BrR5GQPdqvwAPZG02zeRMzpBrGqan+wXfMXgzBl3BN8CoESdjaW6GbPNW157hJTZPc0SEyEarva10lu4aXAJIudmPmOfGXvkjDyXa5tTNrC4eHy+vG26Thrrvu5n9QOgbJIiiqqiMGh3Ns6TLBVq5BaCb8rVjJxNAIzoGIm7PgWUqkMHwna2bosQGaXU/UDzgmQ1tz41UsuXNbaMGSxrIpeDwL+8pyyAqWZLTtnYA5CTZiy8yFCLxBORnnSH0oTHaV3VtC2qD7nUKo2SembtWN+FtwkrqXA83dZcMaXBXhz+2jhwFNpqTCXAS8gJa5kcjN+I60Yx8wHQQQClHy+GBZrL7tn5ylD1wLb5sObCTJTtWIu2z5SocNDinMiIF9lMEazcAOlcWFzcjfeWrKZrt36iyXhWYwXEOKDpAgUwT0UseBftvpaTo/KLfySPHcFX8jWYPLQhrbEn2GQ/EGdc01FBzlTJOsC4mGSg5Hjj3/simXzuUCZyuRv+M7zj8xSbFme55CNc8rqZHePPVWSVHeVNzppu4jbnK4nyxw/J2RpGTsh5t4I5Akk8oDecdClPJwgSRoAxGPj/72RnPpA9fBBKgDXKCJMjDM2atO4ABKAyBJ5NHpBEMSub0/HJcA0VvDwc0aG12SYMceL9jAILiD7kyyyrFS6zdOxEWQjyK613oquOtkKhTf9Yy05sZ/dGSHfCzDOOWIM5BIBIcpIxa/LiUaKnA5xg54edhY4io1XQeryf8A30NBsFBUomq/QKyGZc7v63pszo6A5m8CB+jpOLzF5wkJkHSAk3XpQXpJuIBZCHQx3xCsaiO6d5E2DVLPPeSsuv1fdIrI0fY6QnTtSznsyKM50w3NA0Vcq0ZuDxLpBoEnAeYRx3CW6HOrPtw9UpSVRCsqQ1QG/ItK9iaRUfrg1ruU5XdejdPJ6w6x3lQQpRI4wbAylnXcrtpW0kAdHcTGY8ViVnAqkc7ftC3z6p4RpaTgcPYaKrhpW/pV4GLeZplzkcsV+JPABYqmpo/1hquCLDlxcB7IGPOqeqIbEA/slzOQNkNmVE7coz62y1m36R80xcrJnp6yejMaXyUnpDXryAEXZz54UNj4HXqCntXwzuq1ENFrkrG5vHx8aqYFCO4r2b2sFThLadndP1IQzo5TQJIwJuJM4A+uWpzDZKg71CKGJ65LcioGh7aS4UbAjeC+McgCvxcGWvkIOP42B+c9fQjcJELZFxgBwrChlGJhp1sXnsrJr/IERG6MkIZRgZiATtKdDNv5257tnuus+9k/OsaBnVLBdq892ng724PDDksNIFBgGwwYjfSBAZmlUmaodsOJn6QjO+iIxV4l2tyxTWn1Lf/MjfG92LEIX/wHAicw4Goah98hQc/SnUTyzzBxlRV2lRw7OuBOLr9za3p5d2pSu5RQAuWmR6aXwMDiErdkssqYxUP9haCAtZvT2h0aFklVcnAmd93QXLS65h1u78nZ5HnTnaW2yaYAGMXSB37s9j9zX6xTMxTMXsEGh8FbtykfYqLBQ0VmfQOBHMHRJEmqP+a/Wrt6OXWu0iKGI37VVT//NhAAxOoS11anSlVvwfhUz7tu16IMEd/TF5eVZHxOy0YVQxWg/YmtRgyFd1ataBcvhhIomcLfhjDxh+NMDY8UtNCl4oqT0BUc5EXw5k+C842bwjYFgLAmHQgVaXXdnXMlh2NrIESJNgoSu58yV9z9Q4CbD1VToD9P9ee8c6/bbCcIKbF4ksLB9I57q153uDXiqNseJ1rMhh+7XRp59Oew6ejAKiHAdmDMKxmLxnv3QrKRFnmof36oVw5mCSq4933r4Yd7SqyaABFgP9TN+s47BXZs5Q8AnmafAxEFoo4QxXxAg0K2lHsCAiZwsj74YtWfsLk9YYXM+4ZEbtt0Vv/y25KSm1I70ksSSWgBkrEQIDZgx4tRPAaglMIGlGifF+G7MAB6+q+Ql93xfaFDBBfYxQhfgiE6vHbgmWt3PBaabByp1lJxlcWM8gXWxdlE0FWeujx29OlNZhXIY6EDyqnRAyfDXv81cweGYbPFkO1EnLg5/6ReAKQLu0kapTVpQCK3y4WDs7hpqfOvcB+6kkOMG/3tzTz1/EMIdOHfYtt5IwlwIeeGTKz02lXQgeU7b2NnHUibb7H9LynLf/XDMmPrznL1+W2Y5eRdR4d7Y1dEcAJkrBnKUF/Fpg44SkQViqtcvsznFraUXU2QaCkXHx9WhPE7ELv7iOWmRAQc6sO5sDjvw6/VjbjJPk0CN9kgziTK3m+6ds7h4YoKRLqu8T3Wivv+k5wY/Jv3BSugDmM5ojoONpi5/15T3oBo8x/qcyx1FFUoFKZdJHYPP7xJSu3YzDvVLbdJkoavEXZlHCgKu7gJhqhCwMXyrUAKwYa+u/T25w8ONKx0QA+ECijveUqk0M7Ligbm1GYQjffTqV7eSPeHCnDl5gmEIkKWNUGGGCITq+m+vKPXfMif6rSWCyoGMYUve+DHQpvcB5HbJ9GNGkyrUz6f804Gaq1W5U9nM0nkFaqxRRVEE2HeIOVBQB9HU3nTm/6FypAp1/I7/kMgVqhXuabf7d6DEuKsavhzyDQ36ERzHFYtrC9R7tZIwxKBfdeYWe3NQdehVv6hGszTZnajqurr4ars1ZcIl4rLTgyHevnFTVLGwF1OJ8PVIgpdJ9h4JW8Lspms91y379HOad/OreboI7d05qJYreKuq7DpiQTpi9pKmEzoM86mJxGIIlwcJbXHW2xlkUDz2mxgW1Sp+RJxkv3PPiwPbbnTDitXidVFy9qcgvZ3yxBdhvhdpt+mua+qiBQm2KW98v+uCxY1eziAGyCGxGV+MQgyu7lC8450Fugs38AKukkO43IKgV1zspBuMutwc9zksHUJUyL45nzpQ9cqspmhEHO+Vs5TRIyPu3RkRDsZE91YPufC9xtBRfytWzv1qfqOLGE8sVx4aselZfdeK6vZSVhnhWu0Ef2ITiYHV4kd8Kr09PkiLWYIwaZgU6fMAJ08dQAHbxt8NLvM5yKbyi40PXPjo9kVWDEusq3C6YpEMLDhTiIu6/4d8yB5dpPYapgF4xpU4rSBg2XUN4CuUU5Ll2nTJrVzizmw7W7El/RvA6dYCW/nPD2ls6lJBz72xctNf3pc/96XZWaZvoN405Vo9CD1aUj0lFRV6tP4rqeV4cd+wbmPm3KNyNDs/RlJToW5EGmwMSuDTVSAirOnUwjVXZoIAxBFbNhR3Z4cQFZem9Kadfm7rvKLoMVdzinwAiVwJwOIYE5EK1zo/F8cpSLATXqxr2vlRroYcJP2pMXDpZukCkvCWfLw9YrsmKCJb2QpJwXNhZde1EUuhwByTQ4P6iIEXWL79pps3yu0wVSeZ5h+kdjtnTwcAj1lkS7QAo0+eD3T0uPYaw4f7WhOwFdHga1QV05vhDQiDfWpDkhRAswASqidcOGCK3sQKCMUvYKFCvK1uJAIUUzYy3X7k2Br6hiDF59t5pMojqjlDna6yae7aiLREXVx9+Xd0BkBesblu57iA0/fK/tpDjSPEAR6uYzEnn9asCwc2xFK3hOp5z04cwGjGVRzEGbNZi+9QGxuQAheqwKtXafmoYpp/NOWeqG10pp7mvTO8T3PSQNP/QaL09wcaO7t4J8iRhJ/es52SdyrMXv8qweVh6NtdcSrLIt94yAmLcbiOSc9NbHWv9KayykUQPnzLbmVoMBZRAhK1BMGtqaxieNbBHM0VCQacqcC0YGEO4Hw+CGc7WJ48+0OdJPBx3ykfa70lMKe3qawPbtcZnqRSaBDg2qXFJmFP+oph42PO+zZpwTbuUNHx4VX5KaBheQtkjJL4mvrugUvh6D+QcTvh2/iktNz56HqDcQKg8hZiW7ZVdIERFDfMp6GpE2I3yO6KXXd+DwUyxc2cd6MWBejc2ZBnthNhx4lyihVvQsbXp3hJnlDn25slcBukuJBNITUhoX6+QDcE9WpA/mhJ3+NEGpd6jICS9I17tgui927JMkwsNIkcaaonMGGNk4VslIiiw0lWBPBzA7ibCjW3OaoDg8kwno/xlZzBTbxFPo1ufNJJbX9cWfqqNMRgaCgq2/ize48UiCWkndcp0/zXA0D5SVoNYbbMhyXAM18LiYlCZgQccj3+5ruNLxQSihGNwjxdhwGNdtuSHMcTvKGn0JcUoWoVUeMJz0MuEkHrordMBmbbWszX+CFIwaeu5/p43sUOha1a4nkVPpzLEWkpyW2b48h7dk1LO19eUCM7ZMR0ZzGzwI8IxwjTmJoUHgSRV+VrLw8/PgvYJcRGq1AGYEg9koIDoN9leAjC5H4jc1cBSHYymyoBTmiSNKGm56eGi2rXMA/eg6Umx4fW43gVxtmbSfRYEOV3HhMgoeIP0MZuzLgJuGRUYeFoHvjFndsRGIMmOatZY8JJNt5MbL5F9gk6ZVGYAYwvdWcVnQMG+/Pn/5pjSB+PE31pvEVrkS2lANP3ieMg3uwXdHFBbFJMtAc4ZIwTFdk2g0w1WRRhcdAhYGkUsZak++3occP00z55Jby6vDhngMlor2eour6mlnfbsjJ4CYF2DqjHrA1225P7IaBeb2G0mYFjB+ccdM1ChrSZnPvwnOYMMbYy5nErqc1coaNki8UoL3vPl9y8jMT4LeaHlcGt/7KRSQIP3P2Ly+oXaCrNMBXBr7QkDCDDR3wlHPVJ0yA9KnCo+FNc1eD/1YPP4IvHSVA5DiPVicCNEpEFOx2+9YJaCBMgrwNiBJyF8oq/osbYhreB3mOmCnFiyH5hG0dH97yC10x09SIkNRqwVeDIjWHwue7nJLUv0Lqf/YByLgZUtOV3w7BL6oSTmlGCDYopgOuH433WEx24rriFPGBSEBcJRTMG6+55pqucQ49Bco7t4sY2v0Wd8ZlkURtTZVNHaYB9L3TRMTFMQ8C3jh1xW7oXMRBnD8L56Ce0mNee1EdJT/t9m9/1IJtYucEmVdAdCF0FID43bfzSWFM7C2oOEJWQeLoMK8MCmQd9ICksuC4qCVimAglSEm+37h3bOqY84/sFnl6Cgy5qSnoGaS1RSNzIgydnwEdJRHCFxog5mRdp+OZTRwzbXEDpfpSpm+ZgNPWJl5x4vueT3V0qqJvFVpMGcGVsYtRcZqlHI1A2cypA0/f78AWptnXuvoccZJwadSwr2MFzlWCIH0Jucx9kvYzEPl80GHitd1qeE+BEuqOM41YPO7tZKHFoL9I4pRFfPFlhFDMSQMHktUVYYDI45ZLsn7QC2TLfUrgOPTcA45s5UOG4C03JVQveBIj/L3R5VboOp0ohU3lvu2PyoxEzIDF27Y6BkwMPHVkHBlBHE1bWbTyUkyXDBxTXV4SOg5GLJdh+nYFw7pSSDWiXHkl7deIc0otDWhMpGCNX+35Vq9R9yGIJEXTqGm0TqshOpxP4R88Hq45400QYad2PAYDxrpMcaukiZ4POwWwQMb3bBf61H4nrPapmCwqztrLBE9KBO7GUdIwFbJLZUPPOUWwc3+2JXNC8HWoE9076MJfd9F4CvB0hmPP7NsAqjRFcjVNBofpzyoFTxxi2esCYM4VNlyzjIr1KujmN84fahkcFcBj+7aHVgRr3IhQPwH32PqHyvWq9mQaZIzvlg1EQQ+j73eRLuAvEnA9DjQCOqngwDOoUMnBDGAOF0gK1Q0j7gr+iWJ9gvzsGUfpxJSjgWHDs8fRghrxmGzCAsb1g38CJykAvHUPUCa5gc7CKefpgyR383nTBDHGdzF9Ym8ibHtMzbci1E9ijsMsMKxVhEiJuKNUx3AmzFdsfzIb5+oETkOUBZNB8tQrowZFPlcV9X2bHs9cHDSRegaUMC7YqGrqrK0kcZFxQ06AGF6IkE4aTtQk7hTm2TV5U0/s5syBWVD9oA+dVKSTd9GIxN5n0+RPGaVDkAKYCMkdW8s2MUJFBeIuJEm3MMPA9QU6SAkbYoZiKBWOxcRtQjVhwGv/27dsTp8bJH0CBUrSQ1ZTtl6/eWwNKPv7peuDIktOMiZPNZCUm6QFoo+gZTCoqWNnheA4Dk4+cEUZS99kAV15LPXiowP1FQddqUZUSI8ooE8diHvHRIR0EBAnid1vzKJgEzE+MBMil0ZEeisvi460lmVlOZjN6zY9PvXZTY9nV5c/4c8vX3aXS6ty8xMTQ8Cny3HuyrncTR+7aQvTb3li+kVwcNugT9gNhWwc+9DvAjd5rDNzbje9D0sIGYQAh1maW3vfYZlN9pPkMFuzffRM2hEmPsJ1cBgq7Z1ZY1tp4+BuihRUsw3tUSd6a0FQANuQ2tQBF2OA51ccoXk74CGrOHF0EMf6bFdkDVXu8zi8gOpIHp2IJsYoPl5lKoCl3KcY2pcRCf2Pb9mcuRfz5l5E6n+BOe5jF546tKPynVZ/+zoJb358+gQcNfsdKFlPJyNyDksfStjGPwreN+fCRBK/YFoAgJx1WfSugAiIlwJpI+YHscGdkpF5XdBFB1uTlpOg+oUtkU7SmNotcF43NNmBMv1ha3o36+Nt5pRKNd0svGFZEIfUzKSrTR/guVVHaxKZCoUwYb4KcJVyDK5OPvA49Voo43iImupQMkLnOC5CVpTliGt7Gf2RfbYtWy9v2py+Kn1C8qrLJY95qldGzXu+AeU1900OAwT/HSC5IZ/DqXItJcRTi0tZ7F/QxkqHyCAxXRb2jNhdVfQmI3OI3eOa+FMAAEAASURBVAKnLJIyv8PyWmpoUw9zgGPs4K6klh3Hih266jXVhgXwEJ2pHVrikomi5Fo6xG8PgGoiRI8JDUmRAqFhM0CA0fEvfmxls8hCDh46eUWVdBx1VnVe0ztkjE5/NivE9VRVDaK4+PvElukJ3P5OZb7N/vZtoCT75N+NxRNtgCSqCnQ0NKUf3zquDzlYabJExzjUJCYVmLZd2l73baFoluBNPQcDUyU9ZiG8GegR1inSVEvC+xA2+lC5gJmgDpuPRVKfeAWHExcksw5zC+R1Gp0wE/I0ZoV/AymGNozInhL+I3TeVfNleOo9MEbo7c9semR6SfNvlj/ZMTBRdnSEJADqvcVQaeVFNP4FDg/2k5IvphogiUCAXqsevtBWOPSTJOqHMkmI+KdnxicjsTvA7sF6itzrLKYBlt1s1gSUB/dkaTw0+0q3nyMAw18CoRIQ0CfgBLtXHBHR8qpBxumabhzlKuKMdmvoC1Aa26bWQ1A40Yvq0XJNoItRJRuK2hyUmS2/XfkCaTEQe7LC4mruKSoBw85N2zxJnGwYkwRrC33yFZC0c3qEsX29rhN1OxwMKCBLCCMIlVAHgxnBml2Mh3AO1LmqQk8pMqXBt+du+fcNew88achtnZVBEcqwKr6+3dr4ApSSqx4F0Im3w3rTOzi/ygBYJjpdOGk0Qez2PmqNLLKfzLjchEN9yytTu0Ru+T0sztrkvnjEUbZMuaZfqDU+ms6gKw9CzjSzUBFQbcO7aKJ2MvSUAxT6PFCywAgfkmesnUI8bJKkde3WzxeghNy9SlZU7yCNdiqia972eMdiEIEggDKHRtUx7RIsY/ME1uiOy2unrc28A1FLUrMTqTBPjmbaEeZnvOU0zBWcqZtqZlMIwOjLPA2qucStQU+ZBoBlSJgLKhFAQk8p4Qjr1rHSw3Cp7WDNPnWASAKk2qZQ3JCmIGe23viKHqFVA0FGYrRhWHHL+0lVxCN21uaZDqpbLWsfr6HqEL21DG3SRSkgCmCoiPB6vZQ2WtQNzl/6ZO++Y1KBmUzApbEtbq/ZitOc1VQwQhI2tatP8ZpZEbhAm7qq5gMNbvgFlB2BHFYJGFY3qGkTtykLNEgBRarnRigphJbnIhG6IBhNtK/mI8XW0mfpH71QGCGFT/pder/0Pbp36CTMGSlbbH4rzS6Sb/adeplUPNw+KzFbWii/eGIttF7gKrNB6v0xfRlEb80zI/QGdsvkqNdbdTPrvXkMqg79JCIJdR4KAyDpgDOnU9LjVTsMI9VxRQ7u3aTIX9CJJp23OrnYBaRpj2DQOGXbYq6cQ6gH8jYqHPVbuoThYuE9kcdygqNnWUxSuA7K2zC6IE9a2Xu89J0FTaUalffGWmtxDIlulDBZLdAXxkVkWiaN4WxPWFrLBiy6kkWy0aP4DicSQdYXriSLATjz0sYRLKLhC0HxDAp50ceiSTA8z8cUmcz8AkkEyKCdBsaKmRa2GGb6JJDCKjLtOVCq4P/w50sCS47FpvaxD0TXnMstKDBjXaSxL20rmaicDt4VtpKTXCi2behjhURqdAomQtGSvIhJxUlbNphwsXBdooWCVBT4DYrRtEdALxh5wY4C2ltNEIdPks6iYrxnO4JaxkXfLI1mb5R/IZqDrngM9HUAci7tu8pwU/Dsfcm8aAR/3lAqFWJm8i3qw5AFPUMBpHF8AqmFKAKCxLNYnFL4Tvp0WqQWPK1xQN9QOQWD+WVoEp3MWDcymN8l9xgosauHSNOqgsnKJLgTNhq6tZtPb2K0kS6ZMquRBINZ0AA9643uGk+F6jJNMUxWBLNy8B9icss4fRzh4xBsiSZgsb0e5Ro1qsZ95G8gT5waBfqZYJAkgILOFUa8popPmtyLKJE2nGhXq0mgaQEgXZiiuPjlyA6WkoK7K2hBL3r0rpNHSd4z5SBQtZBS9KKAwQ9CSqewA0Kdm2YK7wNwgsOf1a9Tvy6oRNWl1doVwlQR0cdbX4JoAUgG8TuPrA8loIROEWwg1mlfSAq8JZOfqvwpjTys4xbYSTJsD7Xo7Z3p7NUX3GIeEd9NTFSAI0mMEPGIk5mdojMT1rvU7j+zeSB7+o5/YiIPwMwDM1XZEjo4TAOMD8TzIkK0W1YY3sMkJo6EmISqiyqALM9sBSbUOCoVnDq6wgDpvTRLq8LPlv6dfddbeJAjLgA8B4W3FoG05C0kCRNcPcrjXuwDD85JTgp5ovnlumROiSVdwVHTQZl+oh8gend9/vaUoySdA7b6dRmasU7DLtI4xojO4ZN0RTPDunx0YbXjlktn0uI2CURhSwSOOIXPOLCLS1OOI03Ba50D/mknnxJmbTdq7ZVRoCBp2AyWRcEmdKE6ACbmaghss2DFRK/rXc8RmNDHQ6CZ4QCVhuRAvHaxKGFeSAX1DA0Vj/jB/FPMG59eHFYApwqeDF4u0KFKckbKc0XJZQy7f1iSSqJtBVOb9nOluYxZFwc+tmVP3UrJhBnUZ91MPV+qFAU73oXVvaN204CjY2nxUYOE0MJzFsOud/WNno5K9+Fl4hqg9R9+8Hb76H/+c6Htn8QRu2QNAN2hD9m3m4VXNnFAtHmRkzU2BSVmHhwupRqUbresbrznrY+YzEC/YhhYqDLktGSqOcnEHpgjx9HcAtfejQpVlFHoay/oAyQIJamNTRmH/8eXrfjuF7jQuiptVtSs8U/QDXohLKYeajZ+vt0nIFVBCm337fbe63Jx8yupkTDnAxLQnIUSyJhfwswVlAHzBQsK59BNb6FqCKk1xdf+99f4YT/8W1kf2wUhF9rbsCUPMKHayCB66DQOroTmLnzUbIJowtusgpAop1leM5mlxoQrJ/GmB5A+DMcmKlH/kWIdcCSI1PfMo8ZR3/wLNvToXZwkjoKWtP77vbhLkprNOYJvY1wElqA2V2QTf6Sn7FrqqeiNVgooZqfQ8QOdisKEKjSP6yWc70FxPxEOLjyJuIT4y8+56370NTe5fZsOTTUpBtuvIFgm8hX3Fp8y9QKmHoVsA4m80G2dyi4WuF0X+tM4AiUavIMKt9/UNt+kIIUZZnk72NgQmwvZVQSnNvMFYSvwwacQebSQapNj8mE/+DtXnRiz97/hksLhrZ3qq9puaPUXiePBwSpkBlV/IlZ/vemr4CbpSKmZYjrutabK7e0ABznRaF88JLAfxGlPCGSrySUj/mTPRKp5vQGg4mDMhh75lVhz3T8JfWJMb1m0IiCkyYIJSkpD73z0ZAqGL/0miyUcFouXb2yZeZflMgrLpmMsMw1y4R0PPEEyT/RvYXzTo2Qmk8EQchAAMAm1GlkcdGfcziNnMxdoeIg8TEtyKjzJvIhXzbxW/oy3EIFu3mJEi9IM3Yl+iRKvU+qbHE5zBWkKwSJAbdCavrezUEHCgEO1paz9yT/L+sR+vueC98sc3GWoQrARLSQ2AILVnIPlxGzvF6Kdy7QBjNKCReSS6vUUKGmuaX4oGzzuCIIUJgLY/5pR0vOCeeYZXaNuCaHLvlJ9ZVUsu+Naa/Wm78EqzFSJa2g6IT6h5CCshxHn0pIVrlh9GBPHnppmS1ekpIFhmDeDaU7CjM8ghqm4X4vcHQv2UWkhTR1kYnqCi90vTbDntialHc/K4uB+eMmnFa8eNOmbJhI2HWBShI0Ql/UBFcK6M04oaeKfrAL7UbLPbyXRgoRJic0U0EeIwRGbjSzR2NqjsmLNEXk2ONInGTFDEFDOJjyPANbCMh0xeXCS7X1ZYc9vHRQH91lsfEyRzCwohT5vYYHygBaa1eW/+BGOiRhjO9/1CcFjUKmC7GFJtD7gyBdblRUQqjUqN9MGyhMYiQBhtOqBxvjsRuopUFIDMU58WX08A8r6RBOWA8ug+s8ET3P0LI2fVTd8y15+508IHWHoXc741aqEN1FlhbNlqwU77ZwMO/60uDj6BAe+CmRTibOKMHjwh8/4bB6lI0mDCnfIYGKI7KTx7AmvGZbeehkTjp1jLzwls60PZ9nD98TY7hdxhqWNemF4lL4/m2mVLzAKgd7SAlhiVy1cZkTUBBit2NCtEm2aD61GE9EDR52zJSsYO+3sNDv2pAQ7/DhL9A9S35FeM1mkeyVVZmBCxadHcHqO5XOO9MKTjD2/Lcce/JXB9u5QpHwO/jpE68ZTAZwAWqBLIw/+nMmu4750+SdlJ5HCCVFhOCoCUhIinWNtToNhwVHUMxSoJEynv5EtqfA9enaaV5PvhwAoYX7iQwL8YJRVZxRIyYxOy4G9AiJReQF1YKN2eGIuPPNv+o65/Jf/rTNFk72B3+g9MgtRENj5uNNM9oYLODvldaobi/fTtKJp462sJXk027riQJNULc6OPpG5R59oyBe+z2WbH8yLX90is22/NcDtQkhtAjApMxeG8GnVYX02h7FLKMRwDyRxLDFAEuwg3DpL6FTzK01wonkMj59ylsXOPFewV5+uuMYszfu81a5mBuU3inSmqxKOAWDHncrc407V5fPfzaUXtuXEPbep7NF7VTZ5UKFT9jwuszyLeb8EFr2hR+5Slcw0f/GKvxB2agjhr3sMltRQTDLsfAcOYt3e6+w1UOLAQSnZ6crjAYUXYc1b0eYNKuo/LHMcjhCEmb3BSQJJDKBV1/2LtezX18GEGw6rjYaTJ1LhpRM2OOz8d5ns+NfEAJiwgiI2tDDlm5r48yhSfqFIfwJepuuKdNrZCXba6xzx3DZL3Hi1xLY8TKcAwjOgieHiAiKnAZb9LocY3vEZ7eU1be1XASQlk6VlUgw0B5KIhs3iePT0N5rsbe/mYt0xMeTjmWj5QfMyWmsYA8eclOTHnMTk/XtM9svrbXb3rdjeHC+oQLzBWrvNpCbpf/IhefVPvu6+9J4/lVwjARfL3onhpDWEzAYfT7gozIzP2rVv/w6NeU3F4ueDWWGztWhi5DebVXvPFQhKU7+z5OFfnc4hsyDc7rygdqpJAx7RiZf9/Efmsrt/qrMmQFKyYY62Yo3D3v5+h535Zg0AWfAdRiP8AMeazSjmj4OipCOPV8WnvuKwx35jsmu/o0gvPQsvcEicDSawZ3MJMVxKwVcDAnzNsgK84Y0HDpCc9ryaZgNW1CwSm2J05II48TUWu+QDjIO7JvGDaB3YpJ+htRfDcckKQ7znD5l0zttMcdPVtnT/HfBuAew0UMsI3WDDv73Lq+qO934aZiQwH+rRbjiaQ0kDNxKIftLLHf8QtwNV7TRm8yD9LF4P8rOnQEnui43mXLONL1oPV3ueoAVAaWAaeExTtWeCvEbgMvzQ7c4qbNxgEwfcSZ2+LexiC/G68yz23o9JrH+o4JUzMwqDrGdZ3iWACfFTlY4+wRY3/iDPfv4THRMRmuUGpIQYLjLQp6Z6Iw6i+hycJOLqScl65PbaDDFbSg1ycckH8mzj27GQqSq1LjCALCO0V5B3hUaFtOowg3/k85yderbN/usbknRgr9bIGoLuD//2DslJDbs73/lRTAXk1O3xUtImxKXkWB4bDJCSF1r9CkDG+uFJVq2+2u7zPQNKWny8Db92a97ie9CbkFK964kMhFPPPc7X/PifIYZy+NnUYbBI1I4nOHv3R3PsjRfjKAjS8/Wi1iVkKpaf7Nfc3/2Yphx5Ql66+irSp2HLpsHwsTBjM9jgSbrddynJqjYMz7wISSWtmfdVsk2yGLDE731C4muPSFDvdA0g59WmUDaATmanb9TZ+mPz4j++ytjjD8CQkvaOaifSWS799XWSNbTU3vuWd2syJJJeJOKOses9DiijcGv1K91uBbEOQEfZ1YkRHOq3S4QA3qOVGhxlkO4C1WuNlUBNT7hrfvx1R81O1QdJ4moGhwX7+BdMvvFi4oJ6D5IlrSLw8M76eM3rY+JPv4IdqcMsUg/UTbQxaYEIFPmIOqE7ScAEyJLyDdwQaQEAzcVr32SzT32FSWuPwM4aZI/iwtCdulYvhepAf0tWxNjHvyhjAy8PczCqXPXni1clRV5x2w+U/icfBlvQ/bXJqwY6miypilUK8LOrythFA5SNzDFpAjQaZ353KpW38pbvifjLz9PmTe3sabdycNQWf3SljY2buNcp3a5s7dqV3ClMYGndMSr7k68wdtTxlmQ1AEuKk5lRJYRxC35g0/Q0ERotD6d5LEslFS//SrQFSELMdtnHrpRYIhno5kN54S38onrCaUD60Gc08fbfQ1iS+mBJ7ipKPi3DKJ1rE69gZasjvbRQjVYeJbEfOJkGVCJAXaB4CeJ0L9UeTN2rgy8lBdolbdTQM9947NfWkvtuKSjYa+VB4vYgzOz++AtcHH0i4kwWwKjW42G47nFdoyt09sdfYuKo4yzJaQCWFAU824VJi4idCNxBuqv6OgFamN70Dpdd8SnS/0Al0tU511oXUt0k2Khe9iFdvP0Kk3GSjWrXl4zYY3teUFbeenWBMwgWrOa1hbzDEEkaJ6pCAAmIrpQv1gSy7u/atF80QDmvx3p5Ab2oTo+7EIOwvNbxg6aNG9JJfuSzOXbUCcaCil1Gk2BoVGcf/TwTKw/DERR1Nm0gggsLejcLO9DBDW3OsjLqAXP3en1PnOS5lzoeSCpguQKazPWq0Oo9AgZPb3nZB3VwwaZk23WbSJs7Iw/cRnaWLrk5djURMM9smgbX1WREgkhWXUyLBigxcnJdpFvdomiTY8k9NzoIjVV7w8Mb/Fh83/uxPD/utHCGfqvbypmNh2WrdPah/wXxtQ+sRG3pGpMGsexh5kAn/PidaEaaMjZvENC13uwkneqJp1vs3X+Ioy8WBkgWSeVxZ7A6xkafJo471WF19cNYmRB1eMbV0WO/ivkE/Unkx9AGoQsDPKjyguJWa9V3cQAlph46KFdnklAIg3r3a9Gn9esAydjel5wld98EhVEdCwYMdPH6Cxz2+gviRUPm1gvr/Rs0YMVRJ2jsPR/LgSOG1FUDB2kGOcRVwmSoHpi10yQX8Jvzwk3UHM+e18qyVS77/T8Tkm6EUyfZqO1E23hSYR/6c7hUrrTr+XjTYh1/+Vl5yb03u3X1443KbOM+utfvHm6jFv6+UnNg+VtMz3Mjvxg4OQdfD1Koj/xmE5Tp+7VapkDepF17hMMu/yhGVJeVSAGQwFMZvP5tMXHmW7C/DdG2VqJd8DzmEJ0Z41+i6Os420b2NuWrZktgjhgN7Hc/7kqjy41ucyNV69TuRQLLpSsM9r6PQwuIJtdamCh/LNQj9/9M0g7sgTDcBR0xioTNPmBSolCGgRqdU/O6mRYHUBbWL/jf1iVd8G0FSGrj+9zhR+ApQUEOqiaMbZrT7/owR4SfwDgb2nGs/KtaHZ8uoiyFXf5hIZascOq60eHwVojJFYEbO6gEyMlMWNXV2eX2Npte/zaLn3Z2oJO3kt70O5AEcERbdHbGm816CxOBI44VURBAAwHxgh/+hbZSh9Q7aSAQigSeabeoF3hDMCi7rLWe3yQSd4Yev0foY3vkmis4wqOxk8+02Uln+B7CvHSiTk9Psx07dnh/u3btYhbMeErvz699Z1c8Lm14aQz+0bA3ro2DhN/Y1PHOIu+sRLxNOIQ9d7hM1owIBLdEJoaXu+wdv0dSRSDIVaRrJpNhzz//PH/ggQdy+BTpNKxkgODF+x23tyQDxEGS2MXvU0T/kFvXZRGb+iMP/ULC5iJa36XpXo/LLWlDh19rD7IOM672ei22p9qzvl6jEUs2tMSp+5EK4lQg86C56mHcKmaODz/8Swu+3IWjTSvfpAGEGJLs7e+Dtk72lZukyUjpV7/+tf1v3/2u85vf/EbL5/Ne/9K9vmTSOfHEE3OXXHJJ7ILzzpMHh4Y8WcxPMZRqAL2rxO662ZRe3m5UCx/ndbeLEO6OZMPJETTwqt3eP+SmaCqI1oF8auQg4G6OXW5bDC2N+W1VUKT5/fffb3/nu9/loL2Snp5WsrmclkwkYAKJKHhHH51+x8UXxy+44AK2du1arz/8oDnlwVes0+SNb7ekG/4Dp7JX5xOoD2KvvCQNbnvQPXDG+UpDJ4EadGzlcpEurbzTyrOUv+t6R05QkOCuTPqeAWUrhGnm2VoTpfguUTNIihI3mXhhix3fvT3mRbAuFlzy6cU2PPNck61/VaxRfUtea/iVBg64Rvfzf/VXzn/96EeKaZpxrcLl7RX4ajzz7LOpH197rXviCSfwz3zmM/y973kPDq4Ey9MRWs1Vj/IRRkyX3vLOjPj3v8fMrcU0wxg8D8scleI5ddAtNozYcRBFTVrSLvzqw1z25nfU2VWbq38r34jm01NT/LOf+5z779/7ngRu0iCa03X8qblcwQgDXH3qZ5s28cMOP9z5zKc/bX7wgx/UkXyhuccfbryYISSey6Yn4F1dg2NEhQZ/e6c4eNqbESoSFfSpv2vRC9lT4yl8Yo0K1Xqz+evo85rd3nwuzT8ZWEOar4I/DUZQr5qJKEqh4ykqclCJRO2BrQ/Kci5DM2V+MQQiuuGyjRfTXd/cE2ncP/nkk/z8Cy+kCUtshRqLUTQ2hDYs+UOcB2YYBovH48q2J5/Ufv+DH5S/9OUvOxzad8rDr+QNqLPORfTvI3H0a21zIXCUCsXkajd5VSaghPFLrTw8T5Y3XOiIeNJXo3Ki1yv79vHfufxy+5++/nXVcRwVdKVYGh7NZQBWkfYARWxUJ2UsZPof/fEfq3/6Z3/mQg3iD80J8EaWqWzD2dj3r01rWsRTO56UjVde8g6bqUUvP65T24FhE/gHbqvt92+juiDndjJv5x2vKjUHWaOK+nQf6iwxGSRBfapn/Wyg+1Fyaadv+xaYO9dgXoi7Oewozo44zrcNBaLb/v373fd/8IP2lq1bdUxWXGo8FmjyYkArX/zSl9SvXXWVZynezHv1iVC4W+Qq2dnnYfLWMUIngLMlCpvRcqJ3gBE4BdJrbvUcPN3kUo4Nj1p8Vsvl0gtEJ+ge+RXvf7/189tv1wGC0KI0nkYEoqC78s/f+IZy5Re+4BvN0XiZbbwEsbEQZIqAs1pCnWXEGuh/8kHbO36i2jP+XqveJ36VgWY6bhvnXwmBQ4zaS417uL18m34LOsoavdt0Fg0fJOlOk6UsjnYyq3J7DXNo8AAGIoJfSBC7wbpWN8OQaMU/4y2OkMFJ+Zj+z9/8jfPQgw/qcXCRraQZrkf6yt/+LXvyqafq8OOt5Fp41htUJ58ps4FhHOxTI2sSum1ZI8vL1kvAG8SNOnXMjAikX3WyKwZHfdUFU12hj7Rvv/12qCBxXk0LiUCWxO5//PrX2b333lvHjqr5TD3irVyrsSOPg4lUvYVJSH0vPYWoQiYyb6nazVcGT9JCiWbGMOdgHtxe1zYsENXHdMIBUM2nAiMg7W3+jfInew+UnNfp3fLK1vvViGhoKDCqzUlZr2DcI9tJBL5wMAihe6wyCIm76R9wEM26BrvZoIAqt6njN2/Z4lz9gx/IumFUKbTKSxWXSDw8ePCg9o1vftOXSVvM3uMql6/R2LojoXWvDpSoPgEdHc+A4AnFN5v79OYfnCHxWk1drzcxXrOxtjzaXFFlT1Gee195xQVXKBPt2km0QGWzWe3//sM/YLO6Om1ayhfE4BQI+qSzyF229qvwAY/vfNZWstPwvG+R4LVznX+n0Jkw/w8wKAYmO8YYebO11pAO5n9PgZLAzSW7Oh8SndNRK9EdDST1thZqP1br9cbXMWn6X9iS87bxqz0tMF+XrJLYmsN9Lf26667jYwcOaO1OWqoqiYSbbr1V3rVnj11Ydas1oPVrILfETj4rK9VYBz1CCKZjOiF4Qmv5e3PRYZN4r+qbxL0L8lw54jgvAG9rudd/+pe/+AV79pln1MrNsvpvld8l1cc999zDnnr6adMPmnuQfdwpOGM9hYZXJYm3mOtTB1UVmz5QkJZXyOdfZNTqc5YV2cFH0hEQoYJtR2mhvoBUaYatfrdc/4J71uqdgjggxRBRHWYktZ5qteZzzyOeM9MP7qVApdV7joo88jicMQtbzxoDeS635r6hTeKXd9xhYsY290KNpwgot2/fLm/butX/sXD4sX1Cx4GQtdpM7Lcjt+xa6vWgK9PRGFXpLUgfvHKtgmNlfY9gA73kNNjJquXWIPG8y8RVju3frzz22GO+WJ145F15GHYTh+R6NpXY3JKTu14AH+Z/V5c2EjhMZl/Bid4orIagUloNX78HS7FGVcVEcRyOs7Y7Ay/SQcKBmJQv+TorNM48DGCEIEs1O821yYOecqZqk6l9R52QrnqvzYsuWPF9+/f31Wlv0zkDc5Utmzc3/XwzD3pIsnytCXe7vFRPJGxHogA5wbNUNxykyhHHtO5oOufd9/H94osv6s1s3jSiEYJyyA8++GCD+HSNcineB0GIxT3sGAQQqCN+g9OOvfJihmJrBJWIKcE5IRRTNbhC0L02heYMqhFV8g2uMVUKq7xEDbUp8FZH6zMywazBf2RPXDcnXWH5yjp0/BuDTs6lTW3yQI5V9adFKylo79JVdBCSrwk5121vs4XRxH9h+/apZp9v9jnel9LY4DDMgGpMXtRe4jiuoYUR70mNHIp8XmfHnES/Y07ONlvPVp7LZLOt7ZrVyJzUJeAoTZIMajzS0mWPwkcdnydPpJoJIKqN79eD5CipOaqCc4qg6apZjw5uEGMAglkox/Jl8DdZl54CJTUU5kHYzIEbWkepoKVtpNqF7O0rV+dVGR2nmjmhZIEz1ZTk5Ho0MMJZ34Dv/YqYfL5sVtDgHhgY8AUAit1IeWJwKYhyU9O9kJ7F3LUhDkA/WnyziU8hESdWmxujqE1DIwO+IFBFdZYuWTJFbes00UbOylWrcMRMKw2vXao3kQdHUo1qpuSzel0wrV1Es3dIT0r+ss0+3/JzIB1gI8DNoio16i1Qgpg4sQ2rKuK/dEJYZIAJp9NJi/XEeIjeyVa4lyr0qnpJdnAwjE2S3vzBQWwu60vlWGqA4ub4lqBbFIevXz/tx84pGbO+ZsMGKBP9TV57V6ybBl2qzl/vPgY8+qT1hbJqjqg/cVQpeLbFEoGM7cOPOMIXvSeHz/+ZZ5xRU8/aVk+kBmX4TdbWCUNNpOSmmZyHOWEn861W5ZAnehoupVLGO4K31nMdXocNpeRA499hNi29HshgaqUGGNcCesqO+40EDmLe6iUAZbwa01fvnUb3qEjJzMegKE9ULZ50Rn39koj7PnGlc845J+VSkI0OEgHtsmXL7Fcdd1xtDq2D/Fn/YH3TIwHhu1V1E0XQ9hjWahVDL6QG83CH6Yww1bLGtdefc06Sw9G4xu2mLhNHGu/rs0877TTf6uihxuBIDhHzIZJWHYlN1a2Th2aQC9ZykBCDAGKvclhZXWGgCyABda+dPQdKcJSGgz9ivDpJ9DoGYG1RFB0HEyFbV7xNn06Kav1dcqdu/a2Gb7zxDW/gfX195IbY8NlaD8AvnL3+DW+QjjziiNqbI7Vebub60CgYjOqL/wxNUK5/kZ88Squ6g80Nt3qpzVS69jOvPf10d82aNdhLqz3Uar9duEORnF5z2mkMXHxnJguVBWk6wqmptU34aeMxPcXUXAYaff+nPi0A6GoyyYp3MiYrm1X5m4Y7eKuuJv+p1VL1wafDFYlzRJPxYXXASSLkjF8TkzRZ5uAqKTBAS7UM48M0KDecdpr65je/mRHYtZM8ziYe5x//2Mc8Nzz67XtqRGs6pRF/AZTse1OIPuvWrdN+57LLOIFdB4l/9CMfoY1qDEYfWw6f7lqeYcW6ehYIfpZZzHjmEyo0VVXkPl/bVVEGdryztWd5xcM+/ewxUBIXSEbnwpfzbiB6UySZqihIHQfGzogpOFelkYzuE3GDzgY7p9LnPvtZNjQ0ZCEwQ8vF5bNZccX/+B/26846yxe9W8sVWKAvfPKTn9SOPPJIYGXrYElRhS595zvdSy+9VPUdTJIpWDDCrZLUPT1ItM+AOXYQkzq4CmCCw9i8fXa+Tbr0HCip3pbD054auM1GFF+DaVUDUQZnYKnY+Q5GieMja1BsUf1PmmgbNmxQv/fd71JUoKYnLr2Xy2T4u979bvdvvvIVgwC3fkkd3G3EUUrQUUK93FIJcI/DrkHXJwvVkWiHuJLyt//lX9iS0VGrWW7eozkWpjPOOMOkiEOI5OQ/zdOTguUz4Ah6Na0hd0uyGehEANVMi5P5UVdTryha1si8Se5InSUaddB1cozjuhMoAf8qPzd0qFyux2EfpGZrjnxUCvcCGT80Ad9+8cX6D77/fXbC8cfTxOUI2MtsG1Y3tFOG+/RHOjUTHBDd01TV+cSnPmX927e+pQwODnr3O6N+9be9Bk9P4mb1pnv0EhyBSoRZk3ZVswYSoBur3qKLWHXRqNayrJnZ/BtEz40bN+o3XH+9dMZrX1uT5kR/4jqJ5niHX3HFFeZ1116rYfPMX5G7WEVS3qFutRNUXfEkcynSUI0+qf1u4ztEF1WWhtExgdGeamHa2MzrcvLFharTOqPhKY+09fq4iUIgUYPnFw5WtaqipNeREksiWi2HxWojXqeJEguPACTh2wIXWu+41ooxQvM5PSVJOdg/x6sHPm+6oBoPUrsuvugi/Zyzz+bX33CDdcONN8rPPPOMvHfvXhsG0gL2lmx0yRIJnFAMHGj+/VdcoZ36/9l7EwC5qjJf/Jy71NJVvWUlCYGwQyAJOwqGTQchCwEVfDhv0Oe44jKKuIzDMFH/jo4zqLiNgzOj6F8dH4IKsiq7bLImQCSBhOxLJ713LXc97/fd6uquqq5bXXXrVvWtzj3Qqap7zz3Ld8753e9851tOOcV5OdGzjUpECdHbo1ZckwRqtXP4ittSdA4pBvvbWGqEnAg3qmvOy+XMM89U77v3XvuOO+/Ub7v9dmnTxo3SHqL5yIjjb7Kzq4vj4Ce6ZOlSDSIOBSfmUSj3NwYkqafpVISZenldLLqPsaaIjOSfEo2gK74mlG4SH4KXGL2ofC2bCqNiLdvOIKw5OZzG7tH/OtwaPeVASWilG7ZBiufofLyehYv3qWwgYrPiNlVQF954JnSE4DqVtfkymJgQdiwm7FjCllLgnkrg14Hj4cEYG+onFSG3caj7OtEN3KH0vve+N4Y/1tPTY+LP4WbI8gZyTHbIvHkc7tjG9CXroXU1DaZpzPftSGIBlc3uXCWz0pJ3S9nMoxed9SeJKBnfOHx6aWai/whcnBrg4krv+fyb6AetA+k9V10Vwx87cOCAQ3N4B3IWdXtHB5s/bx7laTjNHVoP96uCPKuXzMGxbtNcBUdpR+Mw8aistTX2TJVfCMQg+9cAlORcpatRcwuWfDIUbw9GjhJ22tgZ4iTLjEbqexHRZAERyfkE6dlNWH60yLDtluOqFB3A4ceEDFVOiqJsKNSKtSlGR7cEzywTDbcAUmyoT2KpIdS+oOhRv38UTs45c+Yo9FdaR2Ge0nt+/qaFAxmILe3dSXtg11CyADyY1DnMTvXVU34JSup0Yl46iLRgYSklhgbSfO6hCZoTjUyF9Jw1a5ZCf6X1FeYpvefnbzHYD/lKGqEXx3C5pHiaqwk471VUv4GS+ghRN85KeaRRqkG08cjqdoTcbrq9C0o67NvPpiPzxJY7KkJRbL/rt5oB9QyYw2FxVFgfnCcUSYcham0HCBMbnruCzb4ZT0b1jpnwj+ciHqUT6QN7YaHSvEQTt9xf81qAl1ImpSOWi+E6q2mgCPC8zELuBJdyGWdc3rMNhlrNTeXoTdeakZzJ3LNrpJLolg55tO458AHqf5uoRGwNMrDImeRAtS5qCDBUWf9bP3mbvEzRCaXWa1eDceM4+QbK1DmCeFyHkwV8uPaLNmxJVVKwBS/lRSb0q6oLqEyoUWZ2zhxybT5VtXG922u+qmpaLZMzmXdvj7F9u6OuoXupUzjI8dQ3uYL3IIQBYn95EVv+gydJ1NnXXm6vSGs4bckesiheMe56HSSLyFK2kS8GehlkYPDsbPPraKeXR10BpZbCwBIbdREIQJLVbOxNHVWRWqouykvIBwe+ZDCfcSMmQTE6rYCr9O3NRE4GUvOPglWE2w4TLdvyKskVECPGH3wu6nhQf2zdlOJZl2Br1GYiRcSGrLjGDiA/TBSSeL4sMR03YjvfMBCatT4fAjU2a6qyO3Mqm9bY7m2Y3O5LGgc5dubQo7GX8mczVdhfDIQN5qOr7IAUZqzjO53UZrIWeTb3VEolBmqyAt2pOtmTBfcxMbfbtgVjeI8JPchkRQd0e+p2zQSQ5Jol4CDXvS2kHtQBrjK3Ut3zVX0HzHDqyBM76DSxbJJB5r07OduxxQ1Jyz7Wyhcd8r/4pCs3OTpXdPgXsmt9d1B+IZGHGlZWJYtCc7B9O1S28+Cgt0Pr11+RxGAfXh3lVyFxkXrnDMNIdiDaUIXF4WHSEVBj250CUDbMaxCUBUjfOoOtd82hQ/JdQhkH8t9r/fQFKJU4X4fhSbkN0mSNorHVTCHD7tuVE5ysjPx9TAFOQkps6Sq8NnG8Dh1r2VFaLj+x8uVV80lV6V2zLaNjRqpstXSwO9Qvs40vOE2rpsxWzkMLh+/fa7CtGylua/mu0BipkFDKds2aKg5DATegOCIqXzjoDVUZib30rL9Hu+V7MrVXQWuQUrBXnjUlMNCuaxAnIKmFx0ateIe7f1CPPSHlZRzkxDEY8NlAA9uYlIa+NRghT5hFmh8Qkq3z2jJPlZZW9uRR8V0gz8ORCMU895awG7A1TdQdt4UWKThKis5Qfl+G5tHAxhVJiuKIjmSWdSeUZ7V3yqlFi6HHVn5tCoRcYH9+RMU23eXEp+5WBKYAh6Lrn2BsoBdviPJTDHnIwpvGu3yGyXoDIxBiY0D68gNIAP3CnyIMrn4mK6rV7/Ns2mbEvdMcc01cpA89RrfVBvg+ATpCsXEElhzlX1yubarlhrAzGlmUEFtVWyKQ1HUti6X3p9qeHM/tbZKOP+98WwsFbiz/b0MkZMhu20/kdDgNl35CsKikshb88xHE1ZGwcmDKqKAUfHNPoLbcGZG8HSSUFkurFZHwho9ekoWcsvzCJO/nWzdx9sar2GrWPNalNQb3N/XN0E322P3Yj1WYXmS6GLEptoqn5FBQxfbbLRG9d2yW2MaXIIyZvvR2egZuku3ZDnq74BSIbLW1s6ETz1L8Vgsi8gMgRRSqQV7H0m0Ix66jk2CkIJ+0TRKb1ZJorUVjEIOb1i+f63thfS3PFuatMJMLs03+ffUp7Q+DU/sscqZjUKxWYAEg4w2n4A1GDY3ASoIISYL2KHSeSxkJ6hDklGkAHCmeT15hhRzEMWqTec1GFR2KhDifLhxJhfLL3cLBARtYcnab2d6FaNNldv3oE89mJPane4kM03rxsqcftNkbG2VMgHKkynH6Kjzbw5ipbIYqLjqLUoXNr4SQt+USzSEtw9kjvyeec1rSm9YJji4t9shdgCoKdF4+kXwyfejRljb7UKitlpmb5R+r6iqtY6whyCeB0h5fepNVRPYjBpz1ajqZOk+shOiQx5kosIewhv5iUK6nZmUyqbtSNv/82gsuqN1zzGjjys/kyVrucn/lkuRNd72Sfkpo2tXCNk+BOAHG6+aAZZnrsQN6FkM5wE2haiL7ZnT4g4hm1z6+M8KBDmQQ2ChJiqPr4FJJNZdBuCwOdBKyc4ru8jLgtP0W+DNTpk3RbOtLeOUZHTPloRPOzM546t4oK7PFIfMx9sQfFXbBpQY/7GhEhJxmicBJ1yz2h9/gxY8YRi7dA2oheAuYA/BADuC55Jv0MomdVLxayVK83AAq2Ga+8LjCtm3S2aJjvcuFJm3I1GRw6Lv5Lybb8HzU9SCRmgb3XP2nXsDtCAya8EL3M5GjIIiwyMMHDirdRry+Gsk5QyZtp3CGMcEjPO1g4bzaMg39CV3PPg9g1CFuOQQcWRTPbQWIPs5jifuuXFKfH1pfgZLIsfLEtqfx8fTdr4lod4xJO4eYdeWJToyTQmr9+vcvDj8Og6qfgcNsw1vRuWdYtgxzxhElJtcVmRG8G/QpyYsvHdhgyZZZjXQN5zlquyoZKWipl11ohS2u5jsk2n2nnq92P/sA6YRiH1SyeglI0iMSu/t/JPbhL1KlLiBeTWUBzfPMIzZEDGrFhUvWzhGb/FDWlRygVW1oUcNZbTmzNofeUE+66+cS+9iXSCTisjetqxlT9zB5OrnnlzJeTrkAdmVa4px2z5hrD55wOkylykuFyjxW9SUMoQU/r2nIAbsaZZFDW9GRtAUfl470bqxttGOF0HIPduUfzsjt9xXiDGYYMNL1XT1WRrVfGrZQVxzDtbMX8kxh4wsbterk9ttB2G/TFj2fCM9GMjbkwvkrXj8hkwEO6mDXK0kqaZ12RWBsXHd9uXbS23rouFPV9KITdO42KSkO958fkcWGF8jU0msHg/cc9WWg12R3/KwyGBHbEbUtiP3r7jzNF0SQhnwHKiNuFCF6P/uYwl58om6RjlsVU3Kd6P3ikwZ7/nFXEYfTLpx2Dy49x9ZnzpMaoWiOtWMhakCiUSBJ22qsZSOt2UWqRyTCw0512LTsv1m9rOPOUpzxEySJjg0DymomD/D+FrDLQ9iC57PzVMYib9fl5U75XFV80hrC9nuSnJyRcWqbKsFHhutSm6SM4tt0qLNv+RowOBRdslwCv2sZnP3qP2BmkK77lL9cDVN0TbDf3MKh9OyuEkQNk2ECHrX9k2fh5BvlYf/tiFnKdh0vLc5+/Z+qGB50N6cs+2QwLxJ4YGdisNt+RCyVq0oQySPN9m77wNmrQO/J1kLtfSX5ZESWsUVqJKcOazvdliGfJE8QY42MROjMw75l9bLkA2MXG/hlSoFy5ckdm7D9fIYErpRo/LOI2IzttzMX6uk3wZ4GhhJ7MiiolgfB3Paby13YOxCy1VNf/lkOu+6Bk94cGTl6aRaAmL9c9OlsS7f8RRW/vcUng/Oi4pv+w9HYeOoBgz/yewRlGd8hTGhIjpvENtFF/3HCA1VcoFGLYvstuatdOWozWzdJ7Lc/pkGmDVwVBQc0C9qOtwJjv/2JhFN9xe3AzGk95mL/yefZ6QVHSgh+52+H0A5LWCY2ZG3YdjcUR1JZW4OYdWzQiJs0dD0Nf2O/8LdT7qU1tIPu1Y7fwXHdvRQMPp90Q0ThA608wuQzVfkJR74STr8rYiDNue6IbGPA6Wv9CW9xEYvLey56D9ShFbCOLsXisIc/8BuZP/+njAfVsPrb6VcJWDB851ab/fIHKsmF3EDImeUyuOxozYY4k7YUjI0KC38QvkJWovdDd6r86QdaWumfusifekBjf/wNXkruOpFkVmt2zjB7zr0MR160CPxP8PtKMagqkt2HWu3htF10EEeMlW2br2eiO57zofyqiphyoITvmCdJ/7KQ6xtKuYucqurVaCaaVBkTTESFsSSuEoOtQqfSt+036aoNHX96tO+0Cw28+so3mbgaE7HA//vfInzzX7JuAFP+4YBcpT707bfZzV8VrL8XJ2fjL7zSFoILsik2H8frwx/efbwGKo/HbOijMRdiIy/aKmgL/tObZL7ttZalN3/tZYP97NukSO/6UnIoAw6y5y1rWHbeEeAm/T/EoTpwmJDGYSn0Jyu9oZzWePqHMAHxcUyoDRbtCumkG3X+4Up49PdUsIeHphwobdneAEHw63SC5SQQZyRtkzlj3Q4NiIvJ2mQaWVk3EwPCu1QZYTadTY0HMpY8gomDuqXdF1+t6rMWaK5CdBI5DA/I7IdfibIdr5stxVkSSI4MGew/v2Zx0pnMj18JKegneHXBIUcEN1l3WOIyxTuXwMtKrM0BBHdUAJDzkUGZfW+tyvbuaGDsabdW1nGd6L1js8Vu/hp8mw66K5ejCnpRp45cYvSc9w7Z9y13vgtCGHFVjhcyOPlb/n0KlspAEwbqeyQxcRLoAG4SJ77Svf7VM3lJUw6Uq5Z29WMd/SmvgE7MH+y+Jdh1AkXqf1PhPIdnsAWvJIIkBXW4XpMSquwTUoLweKPrs+erOy7/CKyuJPjnd+kLKWXv28XZd26Q+Y7NLbF4ncUxPGiyf/+K4OufUUUZndH81KOXFXhIk7U1ZvuXr8eZKhGh4hQcvpvHrk744siH9+2Q2XeulwGWRku8nAgkt2+22Xf/iZx94JTbXQ7sbLnj7QLzTjHbklhOjaE7uEmoBUH/xm1eT6C8twvDqeITWQUvZNM0NqNiz1Y2Xloy5UDpNFqw35Piaj7hDFNOZ+houNKUz+eu/EkLNQNf2Ch9vIIyjyCfNCuquHMjZZ6Z7JJjrbPsLbF9b3236boFp0LoAARgyb/zjzLb/BecQVGrA5rQNrF3h81u+iJn65+OiEns+53ztISFxQ01nkYnbEYByOBuWWXTVNCb79rK+Y2fl/jrG7JBprfTtk0vGex7Nwi2dzv6VgEkabmA29q98n0GvFlxycXvgA/DAJNFSQNOugtJ66yEXsamJXSoCxZ5jqXIIcDmh9++rL2nzipqejwQQAmT+ucsw9hdoCbEBlNW1JFr1dSd8plhS69Ap7yyeyYMDJTPZXgVKn6FlS+y6qukmrLn7X8dG1zy5iw3KqxfLADRs5uzb39R5X9+CJEJAZb0F5SEtjiL9tV1BvsWQHLjy3I566N8c0dbDjfKlu54CarA5eWfqfsTdZAMFFtwUhqqeMxLnKXYt4s4S5U9/VBObShA9CagoGMv/twjGv8uXqB7d1YESYd2iPjYe+bF4sA5qyKNsOl26sjRSIsqkme/kNWMM+0scYgjASyLFgHp2OMo57fVlOFnnkAA5apl8d3gKB9TRk/xaCw0DUbwGozgfdAGpzUKDp5091yXK20hFBxHdEdlisXiXwIvi62ptOPKv+PZ+Uem3FSGnAppGz48ILEffjXCfv59m2XTua14bnL616ZaSqK66c/QbX7Hzw32zc8r2LLCpsmds6HiQU4BpxcmDnCKTixrqdpLXmcnCGGAA5aT7UhIrjrUJ0s3f1Vhv/yeSXqtU/6CGqW3yKQs+df/qbPvfzkiaE5UkAETnbiJqBvHn2rtfMdHcnqsDiG8UHCyZwS4SRlOeiXSd25YApMksO2GVGx88tM5hmkZW1S1g6z/mpoCAZR4e4Lm8u9grznGRYFQMk6/Qa6CPblH0tArKYujEngVcvccQGUjYze4ShVcpceqyj9G8sqZh0S3/J8bZLNzFvQrKzA7dMBDajb3wszxX67l7KVnSJ1lNNoG9aR5ibgaZzFs3mCyb/2DzX79IxXav3idTLKLzoNkwqKtWXMbnSdPFDSMQc2M2lIpgd4woeXs7l8p7Ouf5uzlZw3MvbF5WOlRf+/RIfYovV990WTfuNZmv7sFDqjRD5oTFRJxj5n5R+rbrrqOmW2dDTFVHKueAjni2BOpYdhBdIATDAPrP1Joheh4JuPs4bedwHvH2tOkL1Mzict07r51w3NgY/YiOMh5eXOoCBxWHLMwAnVWCCbqTDT3OxF7rkPhFd+EpBa2K20a+zImsUy+0ocOPRKbX9aP/vFaQxnsTzgHC5X6RTKmSFSw088z2SXvlsThR8M8HclZ+pXXf6ViJ7tHE5UEunzvTo3d939l9vgfEGwFzsQryMfGynRAEgcqCaiv0Da4cc0cq9LtCxaZLUZknWsyHJDgQG+yRPRWkPWciwx28ZVcLFhE3qWAVQ3sBGhNiegt7XpDY/eA3k8/IDMtWxW9HZA89Bht83v/QdYOORxu1BqoMYO2ArnSnRGZ3H/5ujYcIoz+Q25i9/Tp1t4D5pg5M4mfMYJQkmFvv3hp8o+F+ZvxvWGdrbXxmIz8rpeHfxSLJf5Wy6Tzj4tFh0Qzne1yGxmp1ZuIV5sTkwTQxtU/EY2/btnmxiEdMcIL+P56Kx99ngKRJbe8pB35X18W6lBvbFKwpEVKURwT7YKdBTdRyy9h7KjjoedSYA1R70JGn2ki5E+7+PbXDf7kH2zx6L0RikfuAGQ16yLPSSYdGWFlNsgnek5WDJoNsJR0lpWi6OTk851oSRx/slOw5Rfr/E1vk8QRx1FfxoHWJ3qPzmgLnuAt/hjc7z1xfwQqV1XTmw4LMwuO0rf87T/x7NzDVL89A5XSlmZiZ0TR4oqcIE2RRiRaf8AC6/WdmoDmC6RhuXrIJ4RpGC/3stSbrl52SKoRdVcqc/KJU+lpn+/dsz61ArFQ7gRt4H4Lqw406k4q+uHzHL2duhcekbwL0ympVA6pSVzlzrRp782YFO3G90ScZdvO17NH/PirRmzf1nZRwcJirHIiBokm4ghVvehYgOb5Bjv+FEUcegT2ZjjnLUiFg+pMMzxbyAA41wry0+mVsn+XITZvEHADJ7PXXuE8NSg5buGqZ+ZJT5I4ycrCy4J6m/jVFmnJ4lmKk1QFWFLDiGagt0gkbXb0STY/+yJLHHm8bM07jNTqC0lc9CPHfdI2erx3pfTGC8mWd221xBuvCvan+yQ4c5Z4ehj0hqSi8MHxIiZ8o4PB9KLFxpa/+QJ3OEmaG41MaBfezukZMYVkznWvRbem0pHEcNoyt+zWi+Y0+bDNZkauX7Ws66tuzzbyesFwNrKa6sq++ykEGGsbfk6R1aPhGcR5CNyfdfRhMTuqSmQiV11BFXLB8aQ9KwrTYFJQdkkEKjAutTYNGZzMIF2y1XWZ1GpiPTuzh//8X0Vy04vkabQ6G0qiAfCI5Jyic6bN5i20AZwSW3xqhs2a18baEji+79RFNE7q8xwoqtKsxncK/iYkC+f/qWGVDQ9KOMjI8FfXy2zTelns2S54337F4aEdKKih28RJtlna6MFNoOZUwSAJlgWJ0058t+oXOtEbtCY9WNDbYgsXMX70EksctVjjsw9JirYOwRJJA74eHd+amDoqzVIQASgLvl9HsM/0COg9ACumfSm8hKLstZckOA8RfLAf9AadHXpXRzZHHxegOACPQDve/SmK1SQ17IS7gHgAd6tLVbWYCreIPqzDgqKLvmJd2tt6DLt/cHzbTabk2FGmIBk5e81pyabqT+YbV93o5HM34fPu9UNfj8QTn89vv2lM5s2OZA7pVmI4A6u7vTSJZ0QkMwl3AgQkbl0irnJ3xtR3p03AaoMSthPSyIC58I7/0mY+cVcMW1z4/HZt0sRGkB/PQl8QJEPsnAHX7d1ZbB1tJktwkBuNAIRVlh5Okz99loF/xuHBKEwPIQfLjJdJBwYFu/nxGxW+ETHJbDBhKo4KUIWsgbmFdx9LgcygDDW/plRIb3o4BofbnbMs1t6h4eWECyg1nmjDmEBjIZWFPhWsaLCVHh6Msb4eKCwVuDDwQO+chZdk7bvwXfbuS65WbYhxKh4M1tS5CpkdbpJlZsQcVYciTq/CUzXfoqmvGcJ8bacGFyfjDIoKpgJmzn945vbkxWvXunuJqrnCGh6oYVXWUGodWX+/fuA0WYo8jCKSuThc8KIVYfpRC6JckX3iKvGCmk1cJaDBbbEQYSCjtF4b0jnMIGlH0JjknGgKMfuR36UW3P3fUUnLVnZ6O1krsJgdd//5tz5xQvjLOd1ELzAbHTAmTqYWUC6od5QWJpzvmthqU5AvKCUWZAjyV2q8Be2HDN6TmiNX8P4eJBpDKcPh8kbpnXdCPSZCztN7kpPryUhGYgC9e46987KPiL7TzpclYHGjrG5K24Je2h2QTbYpcrxRskmqk6bjvj7D2NtrqvmpSbs7Ry1IN9+zclnyl6Vta9bv0TnfrOomrweLmt/90sj9eIu8DW+R/AN0qKN1JCVfAhjRmu5UOAYf56IVuEoizoGsaW5PYxuQb0kjPmkxKaro2Pi8cdivvm1H927HVpxCkze0Vm89oW12ziTRCQ6GJqLx3oqa0qfQD65LCJCMd6UFoA8gqYk+ZJJIW//hE043AJISIinKFQ0XfCYqDS1QK9MdU7FaoM4/+kLwuRqnOBRtbtqZlRCNdcwah0wWDUPfgnidZ60+vcNzXO50P66kAABAAElEQVR62+v9bVpvzS7PYzAAlfYthbcJzHqHTIqQ4ot+I60JqGiSCQ5mYYUEAJsBW62kIvlqrTOhRuqgofOh406LbPz4v8mwrEgxnLw7i2RC5im6QAAJ9TbIInXWYUlwckFC/dYESSIhAB5RomX0hfQtaR5UtBGnR5qdSPZoJtrNnZd/xNj8gS8r6QVHNRUkqb8gkwkfCJDpNxYkiYMkvWkYFxETOZag1QyJEL99KkGSGhM4oKRGYUt0r6FlX8uHiSDCwfO5nNEpXGUBFSmzxwTlcz5C/6A6tyLo7QmdLml+GwarQj6352u9TpyC2TVL3XbVtYmtV/+9YXV0IIwgtrfAdOq1Pz2vvlWjdSLcG+SQbXDF34mXVRsAEhpWIE3rJ+oD+gLxgcQ6cNYVRfhbENx9RjSpy8TtQkg3fMJpmU3XfEPa+7arVFsBQ1co42xCU4hpgeMLA+aKMCdu7ICjeKt3EO8qUrAfTXSIYxjZYXgLuiV/bao+AwmUzttD5r8qdJwMBlA+MABkg7zED2LRaKQMIRmFI1OmYFLfhDqRNCvmo2ehMvWMXaITVhzQHDjzovjwsiUxltBM3m5Q+ARsSMTwaD7ifpwZRTvfsZk1VkjtX6gMpxxnPUBgLiE8umpnWTsa1GUoLG5Fp1qBvPZe1fAEvQuTsCRqx+YhDg5TwmaPuOjG4sN4A1EP6E9vbgv1w52VLva+/Uo7ffjxkkQ+Auo3UBuvq8pv6LwNbpI0BBqKE3QAMJS2LHgyH1MwpyYqODsSln1/emP3X6pscsOyNZQA9bRa5iri6WgDebCkPd5Ayo5kjNqDoLu1A/t4cJWOumbl5YBX6yFxxUKQdwep3crz7TrWCZ1m2nQCoyKWcRTHJm0w5+qy2lgn1HvarCEWsw3cg5swewCImRPmUi9yizu3wHO/i5uVv1aYlx5DGQDilKMLmTRTrN2QARo4MXe22Ll5Qs9M15TvG47SQF9wmDikSoCbV51gnjldtXweP2iQo3+uJAJHuIcTCXh8cLh21K8KCVxkoimn2mX6Q82Ly4oGjjLSYGYSUiZhgwki9TjnXZ1vDhTM4Z5Y/NeVV/psUpyvoIbPwALlxSfGXocU6Q4KbJ5PpDLQO0Dw5o+KAI1K2hQywkVUtAGnLThNmEOxBXfe+vkGNfwTU4f+pxkExhHoB3dlEBfF7W4O7ke0Y0F1mTEsLsjayJrEzGBrvB/6jAcAeBkO60csQLyaC/6gFIOpT9d1yOb6se3sY+2mzamMTphttlsy5I/tpF2M7tUXd7vh9GlABSCNk8j/UBwOY4nGOZGDSTQjSR3uQM8HczCft5pmUN5cfhJlWBxawaC/Di4WJ4vY9oPu+E0aBDmwcPLXUkE1jag+D4Y/06ZwOsCp/iEPOUmUBk7SgoNeqDiP95dUghCT59nsyNDDHor1/ZGG6UT501L5u7qmXQFVC2yGcn4h+kdMZWanbMUi3JdFTEMzhGBmpC+MKeE6K2gLDltxbMEVc38W6gv+dLBiKUKOkJhhwsuMgDOXYI0JXzEE5E4ulcXBnMTpHmUZz1bwAw139uyASnyF0uVoXlhDUZ+oqLHn6OZBnBw652QbBJoSA2WxAybXKpBkEteP80ULMesFAM+GQE2Itjy5HFrSAZEkMnjLQWtXQLaL+UX67jQGUOXEJ6k2UJrIsTsARaVMQQIj0qbKkkwegsYnW0MaAtmn6B0wHZl3HpMJnB2DE8v6jyvPXlig7NuQJlRV6IRFWNVTTcq0ckniWfBRd6sFXKUF7+e9A+QNyx+ukroCjlLCwU5FrtLpMhB7XlyW8aZt7Cn4KH21GYcOjX51/SiaxwRyo3/OAqRFmFuIuVdAft2NXi/KW5DVtbKD+UaelgRvCji/CCAwhvcYeUhK2klw9BCLEHeY+xO5T4gvcC9pxQC0OF1Hftrak7MQSvmxKaUr0NiKJZkN6ypnQEvvN/g39k1Z2HM3HCTJvgGu1PQh+J3MgyR1jbwE2Za5AdFy/qfBXa26+EADJfUCu8bv4O2SzSvwEkEHQdisDvFFIXWr7vLEjIQfKQAw/JnlZFETszhXnC04YlYcGlfAXrhOc5ena7+MdeS2lGovLHzCPwrkQbPWEmt4TkBBHeeXtdZQf37YDyWiCukNN7xybBKtA4PWBA0KWutg3P999enzx7zj1N+x+koIPFBetCT5mGUa9xVylYYh5P0DJl7P/h0FkqbQoE74VxmcaC/cHpEVHO5QfMcGp4ZX0OD2h8W3GAVEQpYNHFr64lehUt+Jx4HepJ3KQiZOnMpoopNuqAZuVEfYL/LXgvAZeKAE1yigoHCjqetGIVfZP2yqaQiB/eQqs9iC43CHQkZURCgST82B99KOqNSwU3BqgBnvmKQlQZhCYRv8pgDhhq1AdVGBjLriTPS3ZsTXSyGyogIHFAXQ5W8dVJrTPxyg9vQbEh09FNZAQQaxpr938dmdfYXXp/p74IGSCBTtee5JmF0XySpBYMnhKvPGtT5RcgghOcCrTjpT8BqU58UUnKb4Jyst7YIVh2eaZq6U0gaEv6eGAtiq2LFExoy3a816U4I5IAucGISFDXeTRxzkwIhtgtEp5ibh1EXXsq9KcjJQ3CRNgpYAygsuuAAmIexfDFPP5DlIeg0Npmx1GMHR/fRYAbdqfEDHWRxZaFRIZKnQpkhKEl7TG/fSb1zJFboW3jqYKJDbPllt2HJHJHj/b7A8idavZtrmvn4dyuVFzGTOF7Usf/fiE3mguEmaDi0BlNTQS5Z2PAnvVbeTflU+YUyl/X04rp7kECafv5pPGjpsweUUoq3ge0WkIoDugGe0ipmqqTTME1JgiihAwBiRJRPqQOMLq4FtAYcssBPkuj7uRo2qczyY69oraW4G5qS7kAwtA5TUaBXhn8CaF1nrwBtypH/IomiNvuLVEHSwEeaWNOZcEyrkEFVGG3E8SPVCRtnhWnl4Y/pSwFEPamdWNAntOF+n9QSawZeBloTOJLg7V5eDEx7yeIHmNLbbcMqLTWDRusr9QF//9coTgyWbzHe1pYDy7YvbX0ZQxu/LBXqVRHAIhRUdpo3FxM930dsnuFRpkMyuK3gsclTqwIBimpHPE28VVXgKrtcagcEVagxvBYUCNqJWON7PG9sgK0FOXiV//LxWaipts4H51t5emCWWHOCocCmICKwPxfraf1WpjKm811JASYSKSbDWyWbeyHsWomvwiqzs6yN1ocpyRcpbS9JgMjloOCpIrvJKEJAcVLjer6W+CXkbzE1MqC+8EBwKOGPfOG4Szpst2E5ocbnx1jdEVLARYnDYtIYzxY4vCEBty9LxUvjnCy7g2eAMQHFLWg4o37YkuQ80/zdHqWCUi6MPR10oY+slPH1xb2v8RTwiFNFVAktMWcdyhwbW+aOyMJmhoQ5H6MUqDjVW456drOLq9IztXnh4J9AUUBFdXqYA2o0BS9ivWgmEnUXp/m+FSghL6xORTa29/SYOi4rrUyMxZlrGHaumIARtSTMr/mw5oKTeJDo6/tvQ9T8VKqGTutDuXkOFJxLSg/Q1DZtC6dUFy1gwQbWFgT84MWLmsMX0/ZodsXmxYNqXyjGjrEibY8rmo169L00LC2kwBTCZzUhbzJbkaCNOoaGpqCUj8B1Ib/ymJC5w6GprOMAprFGCgrShZxFUSPpyU5pRRyUtCZQXHIEwNpxfD4sdjRRUKdEAwAOJ1DtoQlbp78EOzSbahvfqttyj2Zz+9mOzMGAIciwRh6cV2Js14s2P0gtnltPT8J+QAnVRwOiIIhZcE+SS1Eo6ZE2lba1v2BqLg5NvPYV5gJrdTSuXJl/KXwvqZ0sCJRHz0qXtj1i2/SMFguB8AqbwngEzgpM1vVH4Am8YCoLFxjDADjhCY5bHsENqBExSvwikw3QQUqABExjvcoETbhGBI71GcKqlo0RdMKCYvKtPVy143i68T+4TDU17JaaKmwqvB/V7ywIlERS+Mr5m6JltFKUtn0xT8N0HDFJurKjak8/v6bOEe0R0Oh6V6IDcx4TCrEjCtKIJo2iG+VhFWFRAKYBdktE+y5GB+9ZCWJDBI1CqTcVi8XWiurcQ+2w45LX0TKbYAod2/IiwSnEkv/S2Ezp63UsIzp2WBso1p87ejaCz12PgcYiXgxP6GMlYCpRaYf7VoNPogvEbnXMc4Tw5Ke76NQfJdM2KxgzEbtYas60v6ET4NVgUwMQVUA/y6yAHc1JEJCkLZy7w2wb3cE3oLa1DCu+wf8CIjS7NsVrpAEdY1u0rlyRvG7sY8C8tDZRE26dvS/zCNI2fFlrsYIzYvn4zClUEuFOlX41PJBjvRHwRPznL0ZY3pwONJ1FYQw0U8NPGmwKEwYIMgNXYSIr57jkcI9yT7zlgkH/jokS7PwQM2w31vn9Avsao1RXV6M+PlgfKtWu5HYm2f1HHFrxQtxIKPRK24LZpIUhU6SvNH9oVlULzAaDMO6Kqsw0vuun1B7W7CW332rzwuUZRgAsj3pn14w2JKWl2RnB0g6PlZsglcxQR9t5+Q+CsoCgSwNg6tKy/v2hx7LVGUa8R5bY8UBJRLjqe77Ztfh0sDqEaNN6lTNaO7D0Ad7xN2ruS6BK1806AJbbhdXlBJ9M1K5JkRqwTzQ/oi5dojYiRTSJvI+Z/IMuEHIkZHbMyddEVZQBoDcxFE5ZjFDWpKYlOuQdHbOPAYLHXcqpcgZ8GBAz79YjSEUh77koEGkeVSrla4B4UVm+DePgWMofKJ2LGeoctBbbgWRrA/PVGflIlxAd2qAqPQS4EjtBzvbRggspROtEBjzzZZhe9T+MKIpYhamRrJAwHtTWoLx8/iEjzRghSAzKw7Y41i5OkajVs4nYf0FXa0RV2RYYLNehM7oVR8OevPBEmvy2WijrTYm0vai7Yemiasy9qUDkolFdiwpAiejSddRxnFD3TqB+EjDCqkdqjihrlXKsHLDHjG9XMusp14uFqI8y++AOKeP/XLTbvSJM78aeD2V6ns8T9Qk+FvflSnZ11aYabCKYY1OTVRwXQCnild0RUO4rwTs0CyRwZudiz3+C6UaxYTltuzBd4eRVfXLW0a0tQSV6pXdMGKKmTa8i8URKfQGCikXw8cLoOOaW0s8cQ+IR+JaZRE5KzDYfwHG91FTE/Ke52jQiC7JIkB9UxhiPiGOnXeGowxY47QxHXfFeIc95pwGkJQo0DkIKWDDAxiS5bXPFZ27ri84o45pQoJDVBa2WuPZijOtSDavYcRIAETjKpyCZ5tWomSFLVOOE2BlIW/EwWk5UYF9uwfr5iSftPiu+0zq9pBZRE9lUntT9km+aXiNXPgyKNG2IHR+hwB3hFljtNGSGaqKhL7iTOUpJqAkt6VshKBGaMMSidNaW9tVTieLYZGYyw/dvJXpjxZJcqrvysxP5mrSFmHGIyMyC7K9piE+d47BmmuOY7Oj/7MojsEJoXI8IwR2p+f9VCJM95oWcok9FXjQlvKYCkBJBsI8fSzUo4MIJKHpzx9iI2fEkixXI9m32JKexzWAvNa1RJO+r9Oe2Akggyouz4DuKB36FGY2P0IS2hviEzdqDfCUo2dr3RX/Jg2R7BlPFRz7LR7Z60fFrGmWGZD/Q4oQMEyf1sS2anvC3CPvY9iy27UMNvyC6nkGsjsI4mBLvkA1nxwX+VIB6IOe1E00V2xIbQDN9qx6NJaeNDBuINayzGhuGDQDgHihzetERMh27a9q4eWN/YiIxSUDM2RNhwizSufWrlicm9Bbda7uu0BMorTzxR56rySQiPXyt0nEGDuKfPUGB7mgFb0bT5RGAJmaUMpXQlWutpeM3rpVlzkGRhIGHf3gH8m6MltRWAKboPiYr3fkUR//ufdDbzEAu2asjRRK6YQJvaccLZ4CK/bdlvf38M3KNUcOAk+L7tqXywumZRrOp6AD42sWJVS2uEDYsbG96AmgqS1B/MbWP3ft3MwmlM4UaNAFSG0wuEmv7KimXtD1bd94BmnJZASbReuTi+Dev2Y6ZpZshLST4RZm3fp6tpzYJDjfzVxn8ShoDYdBoOl+gS2KwqgBrg4piyAWUDmaAeJPZtwyuHeleQCKggOGCn/lVUfOz7NnvLO3TohlicOLySrAVP1f+VZI7EJc493BLv/nuNvf+fJXbo8YpzQj8G1Bh0Q7fZq0+1QbRRf52NKAF+fWC6miwla7mqQHgEBVPIhrtppon5dmD9CGy32UDKhhg+fzX3SXJJ09T/JyUnvll8pzV/BXQF+kNMmEj9AY4zvuCMYcFI6pZQtu81FNiF++6SrVLLCU0gAiBzR5IjVcUvCKUpoUwqNdv1Hskppb1bOrhl0DugOB8BIgFm91zVvuJzEfHRm0xx0rmOnNYBzKp6X1yk6y+qh0B4xjyLrfmkJj7+fcHetCrK5CIu0nmc46XJN6+z2N5t8DYW4Ok/2QslN5+NdlWxnO32ZPldieftBomyehEvpWfAKFIqp9JIRQ8hW16WZOnaVlQFKkeRgL5SyzXV27XMxuT3+XEjx0VisWsQWN0phJZ0RrOVHT2GfvghqsAJecOjz+VbT2CJ+jk4ANqqwLGlRVO8woqlJwKayLHwwH5b6JrB4wmcIpdpK0CM6M0XnRQV7/+axTc9a4gnfkscXZRRUE2SY3lwTuycrBMHiaGzDz3O4mdcYopT3qqI9hlR57TY4WpL6EYEJwfMG/4kuJbiAjbHrZiIypgw0JNULexOmqYnmacVYfRI2s7u6TWhQFv8ipTB2EKpvAc6ze9fubR9T/6ZVv+c9kB55ZXc+v16cb2ujSyJxuLLEUbCGTMa7KGUpe4+wLQFs+EqDyu2mq2OnwOOeCU4BxQiZTp6KuPygYJKhKyScK8CkBZknoqvRtZiAz0Z1nYUWF93OaRziEK2xsefKbOjT7X5ns1Z9uw9stj4jM3274jl5IeOlgBWngOt473BqyQ3NqPLksB15qE6W7SYs6Xn2+yY0xQrlog58TDLAeR4SYhwlGZs2ysQoAVz6nMStyS6mFBpJ0H9nZBsReImOEkJh4NNB0niJDVTGDv2w0m2VXp4g2nKuQ655CcvPaXrmQktb+ELwZwtPhN01VLef+cLg39r6vo9ONw5ynBOO531yPuG7KgiW9q8WY4pbNPpASE8GFrbHMHRIZZFESASZ5SdMX8YW1yKxkjoEbBEqyaj8J0b28X8oyZvG/HOBGQS9rwLj4ubC49jSgqBNnq2ZfgbLxtsx186RP9eHWXCd3zuheaAZjQB9zdxlXfPVsRhJ42wwyB3nL1QMZMzFIWoQu7tUW5ZWClsFQFwdkRiPTsiokBuXZhlyr+jE3g5lg0shtbb8H2qJxQFzoCgkU70bGKiAxroItvb9+qKpsOLIdF+NDmHN3B4gS33v64+uSuwQcLy7a31s+nAUGsD/cq/+pTO1+5eN/whbHR/B7WFJPzhjRaNA9B+IwbmTp/drdh2iemVX/VXKocCPMlRRQzrFiO4LJyATJLd2bRKhTbjHjVUz3LevyenFgLwgZvByWsmDhHARiy0aOtQ2RFLVXHEUnIBBs4RIfq0jM0yI6OvBlSS6BBMBfOUKzmZyyeYjDFESbmrVf5LOn+OkUiV+aciWwH+oHoSFwhBXCR2IAwTNYqfE87PGt1OAkL4UrB37DNs6EyiOcU1RqCKp2XSP5V29Xyl+M70+FXEwUyPLrn3gtQUEFLnE5h7VqHlDo057FMjBwZNTZYq7B/di67rDi11YhGgmC7g1tI5Mh4rMA8PYxeC9YVHI+yp++5Mfet739d6D/QaUq1bWnphEZc5+gc2KcKjbQnePTfBu+hvThtXIgnIJNV8HufTedHVCpISG9ENM4VQNI4cM1ikHG0NVE/VKIwAoemDsQc+GTjV1rujqhJDZFlwkVWoS/jbMQJJ1Gvt6slZ3pQDSYi0HtBt6+9WrDiGDuymXTqogJJGb+XSjp+A6/kaCZ2L9g64BzvVyMCIBR+WzR9nWvIUVqIT0fdIcRiH4w4naUeaEijPe4dVhW3YsMG+9hMfl96+YgXftGmjVjNYFtRO20kyLSSOc+wPW+t6tpn0UqQ2PfDgg+aay98p9uzbT0p+BbUG6atgRrwDIeviGoARAAnVH2iU4WXedIAkqhADDhbc6uk3jb4hC+5W6fd4IjUgXdf+YsfUD11+SvfA+J3p9W0KIGHqCZh6NbkW8sp/dzwN5WaC0yiKgwMdS2lwxALHWTIjmtRsNIcjQp4Eb9QUlMfWkjPzs7VJLaixGiB8jDw24fDhuWefVS57xzuVbVvf0OsByxpbUDE7tQPiFOurX/1qdvWaNcrzzz+vQk2x4jNTfRPjrndFVAEXaSTBjtTGN/veetHTZ5rkCLtgqTiVqBhzOM3ehnCzf73q2NgW32sOUIEHJVDSSbhlDF8HG9TbSbZSmCBikyCHEUMpOzVVYEncE7gJuRP78GisLV4stCxsbQC+YxXPa1M59EI5VLDYXzZskP/3e9+n7Nyxo/ZtuM/dIZAcGOi33v+Bv7Wvv+GGqKbprL0tymbHIJoPqkiDZLTtMwwehS36FMgiC4cA8lwbXKS1t89w5KKF9xRVxQvI3Aeu/91rTu5+ofDedPx+UAIlDeTq0+enbYN9WMtkHohEnXMEZ3zprQmbVWXbXk0BZwkvRFMz7MRF4ESXx5MdcaHAQUJQFzYOnw5NRhLJiOzookYBln96/HFp5erV/C8bXslOFWdJ9QKszXe8813illsQKSQC4xEIoCHvy7QpCBszxWya66yCmMFqnzUDJ11N9f5T2h4wCfb+QdPe2aNPcPpL4RyEZQ8YuvaRlcs6ny59djr+niIYCAYpV5/ecUAI7b2wCd8QgaylMGG+RnfA1NHhLEv3HIUZG/odoSTh4caGXl1TbaVr6ROA8rD2KO+KybD2zaUotuLrX3pJWb3mMuXee+9xOMtCM9Jaiq81L8mdCSTB2WprLr+cP/TQQwqBN10n/asjO6I68DLf1FqLb3x+STbNGQsyRd4lGl9rUQ0glcDBpg0bbkcrplBQMTqOQza3Prj6lO7fFj04jX8c1EBJ47r65Fm78Ha8XDf0dWq0ECxx+miLKNmFD6ZgozcVYInlDMVjeDzotIN7SosTe4WLs+YkTYo/mk9R0PKNrVuVd135bvVLX/qS0dffbxGAFWob5PP69Unlk6XP7bffZl108cXK8y+8IBNI5pOAM6PzFrR3gLNsSiTCfL3VfjqKQLCJN+cf0z9VDYT4VvRiu50HycK2kzcgvHB0yzQ+teLE9l8X3pvu3w96oKQBXnlyxyYRVd5hGcaGiTJLEQFYyoPp5nlIH5902CFG4pad7EbI2gIUGs8w5d+INQPw8AsP64jBhLGokSrkWLqus7Vf/rJ68SUr2O9+9zso54COPgJm/kSbyty1c4d5zcc/rv/vq98r7967VyawzidqJ5ppnjQjbgRW5ksvRiibG11zm87zOpw459aBwRxIlkp6yBMQOEvD0s1PQnPkx3m6HiyfIVCOjjSd2hlG5n0wv9pWFEoC92GqJW3fq0l9g6aON24RGDR6ophchteDruDKKIkA2NMuP6TdnJtU4YGSIGk8EZARYD377LPyu668MrJi5Urxm9/crg0ODtkOYBJo0iIEx05/bil/vxAY6fmsplkkC/3HG27Q33Luefzff/CDCDxGMRVytMKE3QE7ojPKz5ibhFZ8U4ewsBkVv5PgFEAJA+7EjLJ28xWf9n4zR1tmwgWhsWu/4ViCFpZGqnQ4YDTgQ+bvVp7c/h+F9w6W78Wz6WDptUs/Lz1l1jN3vDx4hSrUWwGWh0NY7eSk9Yu1Je3o0SLYjZuzuxTs1qG90+gE0IEdBrPj7YgYH8zFTSSgRX30jHjkLfM7sre93qeUU1HEYQotNtJlVB959FFx7DHHWBdeeKF57vLlYvlbzrG6urraAKg2ts7lX96wCtF1Q4LOnrl9x470448/kVi3fp354rr17MUXX4ym02m4lwQoF2y1C4eHAPzN85L67KQapy14IBNxlPC8Tgr2zfJQTiBJ6lP7oAIET0Cx0lcVHdwgwwCcXHx01bL2/wkk3ZrQqBAoS4h86Umdz9z5fO9VmLC/LATLXDbOdh0wFEzi9JwuJQq7icY70gA+mh2zGWLnlLQ0YD+x4D504mzlN5v7yIax7EuEFiUBJhJ/deNG5ZWXX2Y3/+hHdmdnp3rYwoXs+OOPTy9cuNDo6uwEk5oDM5INDw0N8V27dvEtW7d2btm8WR5JpdpGRkYk6MJGyW0abfFHy3UlCr3rrjxmFionKAgmUJKM0uya24uxxuldeRq6dtDDDRoPuCEUu/ebJnn/x8+ipNBBorCHbcv+AEDytqKbB9mPECjLDPjqU2c+efcrwysgtP4FZJbLYOg/ngsLeM8Bo820WOqQGQqUcBEzeXRRj2fy95tIYt1INFS0wEtms79VeS8NLPfyBR3y8vkdxiO7huToJMe2CjgV+gPtpP7+fnagt5c9+9xzSddtMVnX5P5Ack6eRFg0Pq7WVanhBjjeU+ckrOUL2mGgGkyQdNqPeQQ3cRocCpMpUtmXTaV+1nKPQBF7aVL/IZ3hicrkeKEZurEfLfrYwQ6SRNfy25xaKD5N8+JUbwPEMu8EWL5YesBDXe7pMxLwZ2nQtqWRiulkt2Z2zEnDLVgV3iambjDoXREHOn765Lkc7nKrhiPiagj0SKZIskwCv7J/uEecIx0qUH56rtoEMBYfWzpXdMZhG9rgl1q1bSqfD5oWbV3wCFJ938qXU/kqkQ6hG7QtezS4GrRhOVucn2T0pmltRzjNy1Ytbb+1+O7B+SsEygrjvmJJ12ZL0y4zNO1B+LIsykmTq3/IiL+xWxMI+m6UTraizPX8AABZnbOFLcGRdICZIeqiQNy2lUd2K2uOnGHohbpC9fS/zmd1QPbJsxPGlcfMULDPrLO0Bj8OObTdBgMDiKbBUTakMrxjxHDKzm7ZrSlZzZ6g9RaBM2O4IVxniOzqVUs6nmhII1qw0BAoJxm0lad2b4NdzHtg7ngPvWkLORn6Ti6ntu7SeTYr0uAsfZ/dpD9pR9po3zlJS4Nxm3wR33DmAmVOXM35bp/CZtFgwLrJ/ofT54tETIVjoilsTDVVo312PEneUHwfbJqr+N/a328ZW/dqEWy7S4QjkB/DnFfXs49xprxzzZIZ66tp8sGSx/cBmY6Ee9uS5L4DYuQKU9duJlUW2vrlE3GSGcNWsI2JDI6Y4CxL9jH5jB4/na0i7UWdSoO+0sFV4kR5yZyE/PVzFpK2S9VbcI/kqfgY+UJ+7wmzjcuPmYm9ZMC5SacnzvgqPk8hTB06tBHmjh7d3AV3gnhhFLkFcUQfjkxS+6mtD79jxZLY5oqEPQhvjq/4g7DztXT56mWHpC5ZkvwI9Cy/hFezRbpl+UTQCPZJ2bbPUPb1Gjp+I2iZf4ApOMJ+ts+C47XgAyXRBJo8DAClvm/xbD3nuD1PqeZ9IoAcWzwzbn75TQtUQoWWoBzoZsfaZ5ZTr/JKOfRdpLO2uXm3JvUOWuSurSjRPIY+qoV4Ul9jscSH4APhQFGG8IdDgfHVHhJkUgoA/Gi9rb173cgWvJO/g9DLnWY+rARuQJ9QgtJuJGvY2vzZEaHKPp2IA3RzgbBaYrk7qAQuht947mGRrUO69sftA7Eook42K5HO5IyYYvz7BUeIee1RKbB6k+UIQsHGS9GsXL5JrjnvafD0AEd9d6+uQjw74cyRQofbpjlom9YnVy7r+OkkRR7Ut5s3e6cRmVcsS/4U5o7vggPg10tPxIl7GRi2olt3ayyTtREnoU5mBthIUQphxggKtghQUkvB/VJY3lv+6ojIklltptakre8o021+c/lh9rmHdUZaCiR9WiN0QgMZpLGzxzB37tejZCxRir00bwGQr0I68U6azz5VPW2LCYHS49CuOrXrjzo3LjEM7cHcIc84KeltnkY4XMgt1d4BS8OrvL6tOHw4wOO13qiTUI8kmPQxAsv5HVHptpXHyLCKMQCWDUV6Kh6Mq/mt5YdbVy+eE6VT+IMpkbgH/KiN6KL6FhwwIu72BCsFkkcSSMLq7O60oV28elnygYOJRl77Or66vZZwED+35sTO142BzGU4KfwWLO/sUrklItbJsOSJbt8DhyuWIMD0Ri0u2UxRU35sybw1wPtTxNEdMyPO71h9rLxiUbdGYNkIuNSwt5wdV63//+1H2x8/ZV7UVXHde1ca/CTeIWQJE2nztHGglzPmmIG4NtZWipKIA0a6VpjI0gY7ew1uBb8aTybe+U5odBTeD7+7UyAESnfaVHVnzVtmD69a2nGtaVjvxyHG/kJXbbl5KnjfsBnZskuTBoct2ooXx/mctBYcHcOczUri5BZ7qFZMBJaz2iLSrauOjvz96fMNWHObZC3jR6JiCHzPgOXN71cfK73j2JkR0pf0p3Q/WlhdGTRX4KA5a7d3D9WyKB0uEoeLUBw3tuzK8v0DJgUgm1AEcZGWbe0QlnHViiXt119wBC8wN6uujQdzrgkEPZiJUU/fVy1L3mJy8VdwK/YwOQHmCF2dT/Rmz+q2SvprO/cZlmHaOrhLUfrGz+cv9ykkJ4J1uVstcY3YyDb4gfzn5YdF7lp9nDh5dpuh4dTF626cdCJJ7glv5eY/nnWoee9lx/PT5iU5bbdbDSTHBxBUkmR9/Lf7N5o79AetAmP7Ps3etkdTMrqYwEXmVH8QAEzT7rIk862XLOn4jXup4R03CoyvZrcc4fWqKbD6pOQ6KZZYY5j6N/Cm1+lUsSRJJDfaDPlRP0LjYrFbE0wjSh6gn87Cl7hR5lZLXSJwI+7ywsM71YcuP0H5t7cstBa1R2HFAz/z4ALptLpSovuUj/4Qo8f8X8fNdADyy2cvVGeQQjnKbvmEODmT9YHmDM0dOLIwt+zUsWOxVPR8wnt3VHaeMk3thrl64vLViztfm6zs8H55CoTqQeXp4vnqimP4EB7+/O9fSj0qDOObMH08lpxq5G2MHS7AsNXtiEXSnpL1Q2aoZluM4jUzWI5UWuhSoG29ayEYAVoH7MI/c8YCBfqW1v3bBo2fbzrA1/em7Z1DTvgBx0vsmKefHFnEnDZVXzwjrpx3aIcGk8TY4hlksUTg25oiiVpoRnlpm43e2sNpy0BURCWVtpy4xqXIShpGtKvRspl1cEXwmdXLusIDm1qJXZI/BMoSgvj1c9WSxF13vph+UTeM6+FC/wOYvEpe53K0Dj40YkVTadvqTMrG3BmqFI0weCKCsmZFwPSrhVNbjtNFbJNnxVX5PYtny+85YRbbOqhpWwazbMewzl4fzGb2Z80MIibGj+yMxhHpkRzvsqM747KsSm2OzQ+282LavD7cx4MAEv/bGQ3xtft0MZCyVdqkE26WgqSjGymsLNIPEcToa+9Y1tXjXnJ4p1oKhEBZLaU85Ft9ctsuPPbRO18cul+V5S9DoH4SHA44litUHE10iiWOLZQMLsHqbleMmZ0Kj6hOAEYY4lTiMD00KICPOC8FcJi04Bd1RqOLukZj3AhBXkhynkiIUA4mCBxoARwPErWfPEBqhjD29xlSf8qSLLLRBjlyJCGy5BLlpa02vF2tw6Hi51YtTd6fvxd+1k+BUEZZPw0nLWH1yR2/sTKpv0IAsx9gQmdoQhcmmvSkStTTb0Re25mV9/WaOqx7DFx2DnwcrSLbKn6osIBp8J1eCXTgQ9to54++5//y1wCoB8G7wwFBOuyD0ri+94BhvL4zqyJ0LMXZmOASjYaeuEjMKwNqaj8cSo1cvGJJCJJ+L4mQo/Sboi7lrTxzzl7c+tidL/TfaivWDdBpu4Cymub4GQ0BJsXnoYDzPYOGjV2m0d2psEQSx8UwH3cpOrw8bShA3ipwsGUws7/XsHqHTdUwclvsciq45JtThm4k7LSft5j9j6uXdt49bUgRsI6EHGWTBwSxkB9ODQ+sRPyXj1qWsTkaa4M1RbEzawJMuCaU+kesyBu7dXXzDk2kD/QaZHYRpmlKAbDUlhyTdqbalM07dE4vS9PMgWRpj2mbHYnGSWzTDy5yrWaZbw1BspRK/v4OOUp/6VlVaVeevTCDjD/83fP778Bk/yRE9R+G/LKLgpkVHuQQYNLueyRrKyk7FqJkVdRt0Uw4lRruWqTuVg9VuWaU3WJTzxR4ebeRLEu/wxDin9YsaQ/9RjZhyMPF1wQiu1Wx5tTZu2HV8wVEjnmzpmV/BBF9liwoCpXV6VlEJhS2ClWYg0FA50as6X4dW4iehW8aBhJiTU48xCM/qGT1BW8/z1uGdcXFi9suX7MkGYJkk+ZFCJRNInSlat6+tONVxCb5kMGttxlG9lbgYYYA0/HVSw+SfrHEtQm6IJUKDe+1FgUAlEMzj0hAI7RIFp13YgHs3AuHAV/kUuKvVp3cfntrda71WxtuvQM0hmtO6ngczXn8rnXps0xD+ztEBFgDwGzLmrYMBZqiBRSgZodNqZMCHCBpRduZEe1UKfQHJdpVqPA6bhpGCsfZPzWy6ZvWnDF7Y51VhY97pEAIlB4J18jHVi5rexrlv+fO9UNvZob9Caa2XaLFu7scpxjF5z6NbEZYdpMoQDpg3DbxB+15vA4dpXGc9EEn8i7c+tolJyX+3KSmhNW4UCAEShfCBOHy6qUdT6IdT/7PRrFsxp71PwWLsTQI7Qrb4DcF4EfSyLK2kd2poegZCVvLPAXUvP7iE0NfkX5T2mt5oYzSK+Wa+Nz/Oo6vW/Dafa+A1WhirWFVTaUAVMQWbnmwTYz03wcj1ndcEoJkU8k/WWUhUE5GoQDch9gKEURLAosHoF1hE3ykgKSwGfte4m/91VU/v3hxYo+PJYdF+UCBECh9IGLDi/jSiXCjZc93HEE0vLKwgqmgQO4IRzBVS108FfWHdVamQAiUlekTjLu9h8F3jNIRjMaErWgYBcimnUlvFdddNKdhdYQFe6JACJSeyNbkh8zImdxUDw8VzptM92ZXB7YSWkGzLZE5t9lVh/VVpkAIlJXpE4i7MFj7MJRG4lC3m2iyEYgWho3wiwICjkthn3UJYaZfZYbl1E+BcDDqp2FDSxAfXHGykKXH4LkyytpSULgToUpXQyk+dYVjMQqRVk1uyCm8Epfz/7r/5alrTVhzIQVCjrKQGgH7Tqfd8ED4JS7zJBgMlds4Gg3TtKQA2V0JXc4yHTEqZakL/OSnpmVHW7RTIVAGeOCsj65CCAm+Kh8TBgbf484rA9zusGm1UcABSZsZTJMpiiI8oMDiW+LvFh++KJRV1kbKhuUOgbJhpK2vYHHNxWfAWetXUUpujEg6acmwc6uv3PDpgFLAxjDTHyUaa86T8Lz2LfG+y7qca+E/U0qBECinlPzlKxcfWrFEMOUXcNA6m8IhOIkA0uax8OS7PM1a+arjB8PiKgCSws46iXYRXJZOtZX0TeKKKybEPW7l/rZi20OgDNioiY9fejoOb24HSB7tbMEK2geLYMBlyFIWkGR6fwVYSrJ0td058E3xvvNHo65N7y4HtXchUAZoZMxrVlzFLHEH5JJH5+WS+eYRPCKUrcmEZJJMK0zTnwIOd+mApfwxoUT+L8By0fTvdTB7GC65AIxL5kOrD4vI1t9LQvogJJIQ5uc3YOONc4CSCY3F0owrdnTUbeF4hvBba1NAh/+8NJyeuKxIbMMpzPFrXLAvssHO3/Bbbz0IIpoHZ0hdhiU4DZzOLREASFsS74cD8w9wRVrAyIRtIkYWkkAQUDI5jMhYSJSW/06r0MDmbgSiyAorEjsNOujBFBEP2Zx9V47K9/Dv3qO1fP9boAMVhqUFWt+CTdz//nPau9TukxRJXAW73sugI7kwB5CVEXKsq9EsjHRCLaExekyDL456kCnrbJjic4tIpZngLFhwl+TEGWq2z+D3bYbF7lVtbSP/ycOYHGFqBAVCoGwEVUvKFB9d2c1kvsw27UtgWnMhbp+KrZQTLKzcNrvk8aKfPIJIjapedC380doUyAElT7NUFBYGrK0SUOZ76ixcCl+ML5BnayjjWUT0fBGXHsGVp1lG6uU/uz+Vzx9+1keBECjro1/Zp3s/cUnHDFs+w7bsMyTGT8HEPwun2AtxaI2ZjURb7LJPTnYRw6VqGotopC4Sjt1k5Gql+4KDo4zS1rpmVSDncC8f8504TcEAkHwjPhGlUazHjn0dk+zn2M1/HMKk8Tb1WomWDWhruNh8IKr42IrDmcWPR9jEU/B6PxuhuE9FsTNhikaxZx1gdCRLPtTFZGOExbIJFBWOnR/0DEoZBF8pYKSVe5fW0ywHOOmdTDJNsvKxBbbkfACyzRcRzfMh3HmGRaXnIN8cqqeeg+nZcLF5GG3aSls2f7Ms8XNwEnkBJuYizPN5XMXJJZ1YO6fWjtTdQ+nuj9BgCdkEUGZCoHQnU2ve8REoCwngLPD8PwScdHqum8jCt6HKBwW3fysbxqOQbw4UPhd+L6ZA6GShmB7V/bIkGUL34+F1/FRwjEcBvuZwFaTMvb3xEyBZXUk15XLKtKUQJGuiWvAzEwcobOjI2s65tuTX3MnhI/6lCpwTc8xLHS9axgahabETtaWhlzuXJWS84cNUiQIOLStlCO9VpoBzUGOL0yGFPwUT8i1QCj8D83ImPLCq+clJHKYAePqSJGyl4lARaggU+9LCsJAaKQD5NRMm64V60CDieR9JXF9NmhCj9REe5kARz9PL2nKOxkcgpHkFt57GnFwHRH4J8srX+c1/HKyxmQd19hAofRx+2OTKbIGBSPb6UoRoPhtnN0uwNT8Kk/dYvL27c1WB5PkJTRcKAZRmev43fTrYSv/QM7l7gkHPmIASx6Nhmh4UGFUmf4SPxK60TL5S5mIlXqynQ0PicOdl6yBgbhoU9Tg/BUbnCj4wMcQWAO/rmDsbLCGekoV4jiWU3lDfsohyNf+gJRumBlJg799clJgbj+Jgx5yPQ55jbMGPQHULMJnng4+gbVYnBgF6IWwYYJiBulAK62IbJvxGHBBtxp5pD5PMmcj6Vtz/GOx25ogoHWqCswzTtKAAASU0JG6Sb3x0zAel+MBb5zJZPRK7kWVQ+zkSHV2A3XNX4UYC/OJOWHL1YV5skwR/ldnmdpaN9vNf3NU/LQgToE6EQDnFg+Fwod3ZKL/5TtpPV0ziI6vOF5zdymKpmUwKrXMqEquFbjqSSZu9h9/4yC9bqNkHVVNDoGyx4bY+svKbPJb5JFdM7KrqbTwKoBP6vA5evcWFz3uiAHYXgpnGqfzbT7zoqYDwoYZTAFLfMLUSBSD7/DXaW79DBKAsV6Hg3DUHQBkeek7VHHAOcoTYwyK8Z6raENY7OQVCoJycRoHKocTs7TjIGXIOhOpoGYf7bLHopD72/n82HbAEAodpCihAK5CzXaxNDZW/p4D81VYZAmW1lApKvtTQIJfENucUvJ420b492Z1m7d3kHbaeksJn66EAnWjbYh9b+3Bol10PHRv8bAiUDSaw38Xz/358WAh7ny9AGUtSdEfMgbqFnX538+ApD0AJIUgP4DIchACPegiUAR6cck3DaqI15c+4SXDEQAcJYZo6CoCzh9rP7qlrQFhzNRQITRiroVLQ8nCpbr+DgmSS8Y5ZAEpiacI0VRSA1gEsF3unqvqw3uooEAJldXQKTC5iJ5F6nR1zva2CvVy9RRysz2Mc6n6/OGUAKCVm7TtY6dgq/Q4XSquMlN/tpAMcFYH96lfG9LtlgS6PwA3CDx1kS9M5jA8JRtkQgYQp0BQIgTLQw+PWuDrtFwkcZQSyisGZdgiUbkQufz0HjimILNaDpfRDaIHImmxH+crCq0GhQAiUQRmJWtrBxXbHpVstzxTkHeWE4CmdvNX4wxYVFD/Nv4JegmUFF68AJf0ASlIPCgch4LMmBMqAD1D55tXLUaJUNcpZohPeGELnGuVp7HI1B2lZhPjYgBx+IJxgKs+41BZeDggFQqAMyEDU1gwf1IM4wFZSzXotfGpr97TJncEJzAvASbsu+uVA14Db+lA9KOBTIwTKgA9Q+eaJvRS90ft+zZFRIkZ4ctJA4uXrL3fVe2vKlRbYa043xQBc4O3BqY4/dp8R2Z8tfGCJ1voNC4GyFcdQ8OG6pWMy3P8rStSXwxzSyWyHX+I4DH2m/eEQkJLz/UzP7MYYUPCZMB0EFAiBshUHmdt+jJuNk2+j7u4TMEbaLDbz0AyAEie4wWSO6MyKy/AZTrFj6klUjsBhGpuhoZi9AM16SqMXS50F1Fd9+HR1FPBjwVVXU5jLRwpItEg9I5ITv0eNRJmsdDoWOnW0zDHr6Z57gJ120X4cDNlBNfMBfmeYJTZAZLG1ju46j+L4a5i9lLEAkvXFnXHQm+9iVjbUo6x3UBr8fAiUDSZwQ4oXFgn/6932ESfjj9sgE7jdPTe43CQF6+JsPWJmnwNbpA+j3wD0OpLgu/nDD5sQ8NbPUTKW3T+ien7p1dGL8NEaKBACZQ3ECkxWQaEY60i0PY4i6m2928Z8E2wrybIjXfgZ5AVv8m8jdrUl1ef3ETSDnrnDSQJs4cUpTwTPn/WX4Lnq8MFqKRACZbWUClI+PxSU4+1QbfFhjRLoxtslqBqBOw2wJyIoCTjxiYS0A0hX12k1RBcHaDpAlxI290GaGGFbGkWBECgbRdkGlqvZEVqokJF5q8TBx0j0AICyPs6UqocqIWufAaXpKBCzvh2tt97U+JSsGKCbd7GFzSxFlkZlivaeul42zkCIfbPn7A9llDUOY7Ozh0DZbIr7UF90pkrhSL1zRcQFdnTDc1T9LCUdDPH2GXEmw8uGP7bPPlDIpYgT93M2y9YAlPudeNku2dwuOx7pLEtnipw/xIGaVr3SBg7P5rPrf2G5NTq87gsFQqD0hYxNLkQzISirU61EUrPAyTpXOR5Xo5bonqfjxLs15hJvwxkMq4+Dy4s+yI8kjnQ8MvbOpMFAhiDZ5OXjpbrWmNxeejaNnxnKKmSWU5/z3jafZJSyarMZh2QAlPXgRXNGa/cwZ89uBkeJGDXemekhYNsoR8n7wVDCS7zH5jurT9rB1z7sXRTgserwsdooEAJlbfQKRG5N04gj8i4fo+1iJIFjb89LPEcHp5yoiq13B8CjRTijxQg/6dH/IwEiZxqTIqTHiu8WnaBjLLwiJZ4WIk1FhSnYFAiBMtjjU6F1dW6bVRkOMeosg4CyfabFJKk15tH8LOe33mqBHd/vGdvIIblm5vpryH0ox7vnH3C1NnG3YQo8BVpjggeejM1t4Oy2CBDKu2zLYf6iiZlodV3jD1M+KJofMiR4izl18CqjzG3Xh1gskdt68+gQJ+7UA0PpPALIliSoGIUp8BSoa6EEvnfTtYFDvbTd21WHnA2U8SFeDmF152yJwb9Ga6TFTjMl4uK82nyTbHhOW04+3HnfAA76vR0MASmFZVuWDe42TIGnQAiUgR+iMg2c3w5Wrg5dQDVCp9VYqWXKruESMZRwhNEBtRkPPFUNFfmeFSo5TuM9FEzHaENZp798raM42uOhlNwjsD+XBcwgwxR4CoRAGfghcm2gN5gjgFCjNovG6vNF6ZQDEUC0jVSVXBsZxBu2JHrgIMPLjnlCd1AK5JRe3hPwZETcKTf7JhQaXggcBUKgDNyQVNGgtQ9b2Djv9iJhHF3TGaZEU/Sd4xzGC0NIFs8sEjNYsivdakAJFdQ04tR4Q3cORf/B2NiziMoNxxhVjFlpFjyDQrR+RRsovRX+Dh4FQqAM3phM2iJnjdlQU/GSCB+ibRK2zCqCizFhGH3C0DQvYMmUiAXnGtABHMMNLy1q/jO22IcWkyljbYnyC9bPv3VrwUk3OErvyeiOrx72/nj4ZLMoEAJlsyjtcz1giLybMEo4pZblnbZh3cjXPXQpG+jpqflAhrBRQcjbaKzltt5CFjAbrMMEtGAsJc7r8yD0yiu1wnVB7eHXZlEgBMpmUdr3eiRvp94wyWaZkRR/8rd/I3fNvo79+Isb4fW79sVKT5D+JG+ZI++xEVAMTgcw9SmKj5XGsHWunXzOI4jnTXqd40WF34JKgRAogzoyk7WLe+QoaU2b2tDIfT/Z7FSx4CQJ28ma986Ol3Q5EuWK2tZqMkrIdkcgmPXFbNASdaj38DptziebI+F93ygQAqVvpGxuQZKA/l7N8IY2OswPzyTjp+TkbEm9D2LLAplbbf1wALO2R6Y+d8fcfQD3+uMFoSeybAzCMYbpgScnOnhgRaeefAdjC0KgbNVR5/J+b55rYDbHxBD/wa0j1PVRhwwH3/ZP1OlUJD9vuKzhReOVfiFQ5ukY8M8QKAM+QK7Nq8PNmswPcrO5VwBsEpyK+DD7dVPqA3c65E2XEkHKwtQSFPBhqrREP6ddI01mY8uM7aMHngTuFEsdMXgopYVJeuKJJJWtz03daPcR0hxK4x5UtbBXB9EpSFyYWoACIVC2wCCVbaIkkXsujwcSJWZznA16AVzSvfSkf1m2Q827yNeuxbtCeNMagBeMwpbGrDjpUYKjLLxa5XcuWsVIvsoOTd9sIVC26NgiPjVxRABKDyt0gmsvOrmtrRwCSGEaOuKCZzxuO6eW8kKq/SVDh2dCKrakmZkkjhJjURv9nM6XljW1FAlrr0CBECgrECfIt9ScjbAn6xy4+3GiCI73r5hLGr9e4ZsDGpbFbMJqDyBRoeim3IIOo5d2g1JF3n742luhfeDB+W6OZCXj0JSeh5V4oEAIlB6IFohHbGF60X90zA0531HUBy9hJchX73D/COvv+ROQ0ouiUlETmv5D8ujPs8whGmeSB8ADUnIR+qJs+sB7qzAESm90m/qndh6KSILQf6yBmXOyItwq/nNUg/KdAMpBXpf/VeUn+XO0DIM/cccX4Aj4KTwFe8YWSoLvrrnPbt3jjKJi1p5ECJS1E21qngiBcmroXn+tJ54IjhJcZS2J5IpCDOIfsnUuTN7i3XApy37w4w2cS/ehMDi4bJ0khO1nrJqafEqSpEIYtmVyuVje2TrkO+haGgJliw45ndyi6dtr4opyXOMAi1vFQCmY1y1glm9lWdu29wB8LS8yv0rkhw16pdt13ZNJ3GD7IzGw7QkvnmralhWS5SdYV1NnmMcjBUKg9Ei4YDzGvXCCQywtF5ksWlzUztnkDnCc52xmbwNgo0wPh0JlCJkrWvThZP8uHwJWlKkBl8DNCROBGHzAYij5FMt8y9c4ftWpVIyopge6j5cSfmsiBUKgbCKxp7wqWqAcW+/0cBFHqfJimWX17eTOllPhnU8grvcT8CakVP9shZy5oI7Po7mfwJFLXyN0NUlm4Q8/CXtvWy6S+VboWXirRSkQAmWLDlyu2TVylMQ9wfEs+4/nimWbkuIpRjii3TqWJfz444f5s/d9iY0MpBm5cas3YVZC7nkn/7dH30BRm/0wNSxtkuBWH9TlAXA+sJQch2G+wW5pS8PfQaBACJRBGAUPbQA3RCu8u6ZH8QTFeAGnVsxMmbbX+Dnjss3n7+1jmobQrfUBDz2Og44hwxaPUd+wmX8SnGpN3awmsxAyRU8sfmFU82DZPFIGMtraojHSGMhS8TiULTu8GAQK+D8Dg9Crg6ENnzt/AbbRi+AKqPqEvHA+We6EdgChU7M1bXEBaLADHLdVjrajcB/0KXGAg6I3qx1zX6GO4edz1Xew+pwRbpOyvj9AaVlpiAgQg6iml0QUVj4tpSlQPXWnX84QKFt1TC1xAU6Fu8HJVN8DOuXlfHvZB2ooJv883JuPh2qNxIm7HK5/J0ssJXvEsXihimxpCzMtgHi+Vp8+bYl0H+HA14fyVMcxRtV9xyEVBXXrtoR1vA+1h0U0gQIhUDaByH5Xsfe6ixJAk4+i3Kr3boQH0KEkOHxtYns4ufuqHTTsAoXpLPzosBplphMb4ggUUNBDY7dM+TXsvxGXPbKGHwAAFYFJREFUxg9EGyuVsXaHm6yFHy94uPQrnPfa7EBtbRTg7vnVpSWFv4NJgRAogzkurq0SV1whzxbZb0Bu92aB2NRVpxzQjDBL2TjhGUVJg7OqWqcv5xDDhjMI4etpL+lN2qbdbyrWWBv5TQ/AJZztyS57Qj8LLsBh8QD6TCEhCq56/Povj6McUZNOK40d+rtCfOa8z3msNXysiRQIgbKJxK63KvGZ82fZC/fdJEn8GpgN1lZcTnl7A+u3xw9g8iWYNh0t1IoYAEm7SM0oX5znT7QAEsotUTuxs7AMyEIdeWXhNX++89r1R8tUDKyF1zb+bMkRWZmcJZdwogQ2/+vWtef+p/j0m48uuRv+DBAF/NF7C1CHpmNTxGcuPNzixkVM2J+SFGkxs2oESSIKQAgnyI9JP3m4foe1BKk2fDCKAgsf3eQsSgrndNNjIsQR9kbpxvuLABhedp9CsR/2WKrrYxBE7K2jtUXlGkK6T7HstShPqZbPJ0EIuswxpn9rm8pqcd15t2GQfsGGh5/mNz/nS0yfokaGPzxTIARKz6Rr3IPiP05T2euJRQCjs1HLJYybZ8uStJA4FpxO11zx6FY5I9nSr2p+uNwDtF2VEP5AToxvvY2BIRZL0Bbee3IOm9ifSwuQFbZBmMJCtXItZ1el5ZT+xiE9NADqafB4iaoZf0lEUs9D5efMWl5kDqiaNkX+nYMj/o8K0/4ASyaeE9ctvxtqBXfsFNamhd96ssiSarzW8FuzKBACZbMoPUk9gg5o7OwyrNtL2CZ2DnbCZ3KZ49AGCehQkzyytC4YNgNo7pC+9fCzpbe8/oYiUJrFu8cWMHFA9meWQ+WGpDnV8lQlteMx2+bPl1yFEg/fgzJ3AUgOI1r4lbCl356TSNRfIv/uPZr16eU/4zI7k6C31lbSSTjZnuNloAJs34Qi3gTz+esXSOoz2Jr/AeKW+9nQyDrQuWpZcv29CkvIUyAEyjwlpuBTfP5tncw0zsSquoCJ7EpsXBdzOWcGyEkHvJbDGpf2O44lLHs/XA192SULmCqTYntXL68mJOB8aEyFx7Xg2m7gUH5E4WzrhKc6pD1s2H4ddR5WOwRNKG3sAjhKWNT4w1FSoZJq38IsfhWA7uxauMqxBuGL8x4Y3TVgJxABq3kOl8Q5ANF/YO2JF63PLP+DxPkDbKjzKX7znSFoFhKvgd9DoGwgccsVLb64fJ6VlU+DUcYKhFJYgdPSBVzF5hKLg4Oj8LK1LlcPXSOQBI9iodwvRL/52Aa3fEzIM+BcckYtbBBaOsZNupZbww2nrbZ4jSnWhAMWCqlrXXvey4C0C2socvKsJhwYS46aUPXrAHabbgXzbzw+rH/mvE8ptrgHu4GZ9b7oikCT/H1K/AxJls8QhvVZ1j64VXz2vN8zS/yRdUiPgkbjYhC3BobXPVOg+gniuYrwQXHtuQvhoecsmfF3MZ2fCZA8gmE7TMBI4ISJ7yuRHB4J5aPsLE7Hv8BvfPTH7JsVqpCsuUDVeNUgTbtEO+cQo0Kptd0CqEMLcxsjVZtvTHxUkqwXAegTb9RzRZV7hGn2AtTmOlvfasoSoqI1TeTGR54Rn1n+18zmv+CKNINir7siazX1jeZxynC25443OxXc9TGYQ58GC/ppMWxvsK4790FsQn6pdEjPAzTrP7CroW0HQ9YQKBswyuK6pQlmdcxlsnweXJBdBN7uLbLEDyUBFMmhHJmj6cfyGW+8A470j4wddK6O57FYr5dvfPQeduN4vnLf4E/xPNrwV90isDqo5o1yZdV57TWQqHwzZOlZcE90klW9iGCyxiTsfdCkpGiMc6vtPUi8RHzikijJJN2K5zc+dp9x7bmrFS6+BTA70zFtpO30aM/Kd9CttInXHU6T/sE405QC0C9GHYsR3eIaMWI/CU7zV2lu3pb4xuPjJqYTiwmv1EAB/yZdDZVO56xi7VoJILkc26T/D1P5s5jHl0L2Ng/bMAsnmg5I0uzG5GbgOBi23bk/+l7rHz1Lz+ROJKBZA5UdW/weQPzXLCGdx2985J7JaC2uOT+JllzqgOtkmfP3aaUL8+X8z3o/Cd9BGxDIdhcPmNIeYMP20b7WW6XzPG1XQbNXqxZTku6qxE5kcvrUyRqgfvPRJ9je/gsRfu09YL9/B5AcwjPO1oGAE7LoiXMgPxdq+GQKuGxyGkKIqeLIR5XPwVvsO3FbfsG6bvnN4nPnny7Wnh8yRJMN2CT3QwJOQqCab69dK9iHTnuAzW9/uL83E5kRiUewp2zHqphvWeYhANAEF2KhJLiETdk8TPE26EeiGp4A/nRCBEYwVDEhB2GLjrXRC25QQ5nbJG6v57LyAhsY3leLDp4dt/4PVFOOqxYoaT0C1gaZ4qMSuIOUzADsb3Lt+LHDg+y1xBYAwiLU75qt5htcQFFcvKea52hkAHBttmx/Ct+fAi0qNoT/bD3pg/4SQHUrS6tzMGTHWYaYh5HvALd/CPphoYTZEpc7cnOgmla45AENMYvgtZ1BQwAJhaJsldnWW1ivTI5QdjrXw388USAESk9kc38I81WwnLIwKQznZUUUpe8N96dydxxudLJMuE+4MhoKoorc7lkgS7sM7OhXqLiKK76wCHBC4P7W8XQ7TAv9SkQ1gG/E/otbifzDzxmQw20AR3lhji9zy1nbdUkoDwrLOWauandFuwLwbVfY1527SbBHb3DGe5Iq6TAKWWgbHG6FJ6FVUG+HQBmgkfED/KrpjvjcOe22JX8IiHsD/jqqPcgggCYeCqh6ZyUZXTVtKMpDECXY66wvU/nkVvCX6HCE2lE1sBdVVOaHyG7iXH0G29Wzqj/MwnZA4tez6847TDPF16PfftQV4MvUGF5qQQqEQNmCg+a1yUOwFW9n7F04Cf+gJPNTaa9WLUg6dZK6kWXv5cL4ZWkbcviJ7Z4XCMMelgv75clEBhKX1qEBGpASvhxLW+DtN4fVi2M6yNhZ1QKwswWnfxTp6ogQa8BdPohDuzvljH4H//6fJ9rSe2ta+FSAKBACZYAGw++mEHixT59/lCWZZ8iSfD5AcSUOIxYgzII3fU1S4RH2dwAuUNQuSZ+6rJOx/qQnACPBJ69C5qkYm4QuDSH77JLa6/up2j8RGr8GB2yLqpXVOjhN3C3nnXjuctnml7NYfJt17fLbJFn6LUs88jhfS6+iME0HCoRAOR1GcbQP4lPndzHZPAo/j4Uk7SxY+pwDHnCRzOVZEO4D5LC8oVJC/9Wa6HQd294nma5/v/yzvXGcIKjl77lfJYyEHimkhPaYazXX3E8pw+w0yDElPhuqQq7ZXG6gA/vLyiH51x7bD13Xr+O18kOXZ10vOy4+oepF3ChQ83BJVa6F8cA1bPjc58Vn+M8103wgdtPjk/fNtYbwRhAoEAJlEEbBQxvgliuucXlhVFKPsZn1ZoDgsv/X3tXGxnGU4Zn9uHVsx7GbBBQ1jVtZqZGIHImkBVw7jUjbICoFKkjDH0RFoBAokA+qEvEngopQ2tgB/iA1Lf1RpKoGJT+QgKjFcVw7LS1plDZKIVKDyQfUTe1zG3/c3e4Mzzvnte/su83d2ZfYyTvSeXdndz72Gc+z78y87zugnNtAVvUYElYbRjD6lMicyJHOSwyGJJX+N5j2O/I3r5Gay/TgimVQg4F1T04umv58GENMqfSAr/13wqh8R3kEFjpr1r2OCcJ1Ano3BQf6QAi9VMQD2mMovSo8NXGq6jkthu+Fes2X4VG96E+JQZfKgfEAXqkC+pPNIPTmmLT7MTTvQdwhjNV7RJW6wArhU8Gf+9dMlHO4jfSvv+8JNVqLlemVGDKvANctxDzdEhG/VCWG+u+OKd0ELz4gRZATiTRGYoQMSfqasxCIw0hPz6xyB/Kbsr37ZL5ssW68Ah6OqosmZCpDiHMVF245J8Sr+bKfiAcVvUXvaV53Ijb6hOoEtZ56JLoVT+YkSlqc0rtbt+mkWoQPwz0SEmvaIXx03rnuGl4miRc/rNJ/DMz5AJ57QAd+XF6Wb2P1/hTcqZ3S2u+zU6Jf3HxrHYbtSw31Kz1o2847Ihg4L3d2jObKn+OuPgJMlFcf88gS9Yub7dTFurWw5FmvReIe6KKsQYIarDQjCvRADFG7GATmCBnvx7AVWkiG0SKzLeqmUeqmhRtfpbAj4u8tYe+R7X/ri8rElnIt1RB6e1GPTb+HuqOkXtnRUVBCW1mnUC9s5CWqihL7pHTAfERYx6ZXIh1jhuC7N3xVJFM/xbTFQyDMyplK4+kPh5E3qZnw0RMtaMeW9BSIo/WiqqSIeYRCDCthGBAQP8N7vF37ht6/9eBYSh5a8OiBs/nqzPFXBwHqdhzmAAL6qa31yrW+JIX1NTTKarHAdagzpb3Q4Jjua5M1xYKMSEFNc/B9IUax5Q2JMdSaU5+jFCYu8wYezGx5c54RofR5jNU7sbHX07K9q3uy0Nxn+uE1lbqm8jgWiRqLlShpWB8kU1uc9p4Xc+eeHUtTDlq6J7CAcnsxZRH5Q6//AtJ9Rv7yyPnsXKdfJXc132FL5xF4Lt+ANDdnPWFERsRMwzXrKVxMxRnXXqWA307MUDhJ4cRi0vPSH7owT8oCtImPjjnqsRQWr+Sz8G3yjPzhM7NmDTW1pnwdjUBG74h+kO+WBwGID1Ls//YX8Zf0Gj+BPhKgz5B0VcD4mToT3FMMDVo6TgsVRpyLIRJaQBPESCc0csCq9EQgfUWyVab2p21WP4IUcwme1o5DoHkVSV+XbUcxFC4s6F3rvo7O/TuQdeGK68jaSK5Kvydc1Sx/8cq7hZWGN8PWCTDX21rsFAOZDapAH7D3dX2r4LIea1kRBPD2JFSLVnIVsPo43hK7X2IeUkCqFQJ45w20aRvt900GV6O6pm5YLIL/EXxRMLAnOkTzT7TTtEyocXCX3Jt4OPbh+Cux/cBBJMyfaFouHDEbCPDQezZQnGkedqpHWpXdwk35ApuoUgcpLIBLaXli2XJbDo9gLeISCDbmgXjqQo8NHlwVQTJ1fcta7CjwGGwn8YuDhscSgZJehQeLmGDI2tMN8bT4kPhRaxN67ePovAUYX07J30h56phVBEmaHKRF9uzfwHnhUOFhUigHOW+Fy7bTdltXlD+liYrKJ175Dy7od5AijUOMBaNLE4lUlec4NRgqV8AcMSdxJZUaijmwzgLOKHxYetUjohI+kkwbp6tOEw9RIbwrqzHCSI7lLCcqPd+bHQTCdpid3DiXGwoBvQMOFyz9AmYBGooZBocgYUgLlSPxoGzr6gjjCjnqHRtv0tZIr7TtxoKtacYzJjEOgdxb7IVuwOO8Aj0ODB8iEcBwjQMjUBwCcPJQDcXq7dpS5KC2ZJKEu6C3Bl33cHGlQ4xs/+sAhq9/uIIwljPb8ZEu/IDIn4jL6hCscj6b80GOZAQyEGCJMgMMPo1GQG9vXaYsuQkS5HdBVE30dCmSJKUjaVIFapu9r/u3dF1soJ0pMZX7GupSuNPdjELMPz4tmCg9DPL8M66fFY7bK594aSjjMT5lBAwCTJT8jxCJgP5xSx2Gx6uxTLsFqxD3Qom6wSwxkJ5hZMr8N2lRBUPmTrnQ+sJMhr6Qandbrv3zYhd1MmsGwk8vl5DuqZQnQZxHhKUOQqH9JEw1BzKf5fMbFwEmyhu37fO+uSHHhHUHdDg3gRTXY5nmk8Y5LESvUiXIsDCjpqPFB1Kq++ST3cfD+FKOZudKPfpHKMVvnAlZUtmmI9CcKZ3RDCYUwpVUf4d73b8IV3eKvd2XcKfUb0Mpr8dp5hAC5v9jDtWHq3INENCbN9vilv82gBw+BYnxbtiTYC9xsRzDY2jFzJwcw1cy6kASq8C+2ibbup8L42dy1DtbbteW9SeYNa4sdmEnqlxT17TSPT32Pwzxu6C01Zm09LHYhyOnr+TpKCpvvjf/EGCinH9tNuMaQ0HcFTULG+GKYhUIoBkqKq0gxnoMQ+uM1h7t50PS44xLmsyAhtvIdATzkrtKnZeczC37DGS5Wlt2B8pYWYqddnZu2Vemg4TDc4IlULB112eB2UuYfThqu+rEuApRdkK+uq4QYKK8rpoz/8uMPfq5Bk8nm+BVaCMUHteio98G5xk3mRRkAUSsOMvkSHmbOUBs1i183QeJbAcsfYw+oil3Fv+MQbKMWVYbJMH76V1mOkWQr2rmfajXQNo00rYW56AkeRrS+MuI7RQx512592X2SZkPwHkaz0Q5TxsuqtpQ36kQiWAhFJ3rhXLWgTY2gDzuhFnckol0NKQGMZYjmH8qIhKa80upOGb8YC/uPyn39faVo7wwT/3Q+gq1RD8M2fUH6UUn3IGSeXnecnxek95zXDkT0iZZVP0Tl29AEf0wFsGOipoP3pN7TpF1Dod5jABamcP1gABZjAjv8uch6kCi0qtADivRuHUgDNtIP7RKXSZiJPyMpGVIA7RMFjBanoU9ygvYQvV5bN+af3fFMoCvv3fnYuUteNCy9Ba88l2Ya4UHEaBBkjN9IMpQpsGA/hAG9Evj/SGmNN6E9P4vbALXB+XNHlH9fi8TZ5kaoIzZokU5zHcE9M7WDVjQ+Bko6tPwpwiD5jQhTDJCNjUUypfjglIanvDC/MdM+bdBhhjqxkGWpyE9noCV5GGhvKOkGH4tsT0HBxrLbbsJNH4ffi34UDTiWE86nDhmVA34hBCZY/qiUJwooxCeyUyRPxUREidhFKgkDBh7UNgjV/vjMVkvPisFgcz/llLSc5prjIDetf4rMOZ+Gg25CN2bdvsDV0UHeOzxTAcOySHP4/A8TnnBjxvsw+HUDec0hKStGOBEQwzgdwZ242egFfm2CJzzYviji1gNHsmT3TWNRl2leOyuZcK3ySvFKphnN0L1pwHxy/F+tahcNX4VeApbxwobca50ya17YUH7gY90NPTOF6ivwR2GdGCR9A9p+ffLp3r78z3M8XMLAXaKMbfao+japLR/xrXtTeikfiFfPR9U6miFIbl2o5yEw78kubeJQ9E8iWfhSMMfEEmXfG3Exf4jQ2CQK9Bs0a9S1gR4F9S35yIKod+bmYXRrpQi5dUkHL/SUrLWlfC2RHtiJ4NauHKKhBWMKgLbUrZtDfoJHcBNaHRALZBnzEkEJTkhic6c7zICjAAjwAgwAowAI8AIMAKMACPACDACjAAjwAgwAowAI8AIMAKMACPACDACjAAjwAgwAowAI8AIMAKMACPACDACjAAjwAgwAowAI8AIMAKMACPACDACjAAjwAgwAowAI8AIMAKMACPACDACjAAjwAgwAowAI8AIMAKMACPACDACjAAjwAgwAowAI8AIMAKMACPACDACjAAjwAgwAowAI8AIMAKMACPACDACcx6B/wNd3YIFuud+pwAAAABJRU5ErkJggg==;" parent="1" vertex="1">
          <mxGeometry x="760.37" y="380" width="62.71" height="80" as="geometry" />
        </mxCell>
        <mxCell id="bbxzTCmNcXKcuzSU-puy-32" value="ArgoCD" style="text;html=1;align=center;verticalAlign=middle;resizable=0;points=[];autosize=1;strokeColor=none;fillColor=none;" parent="1" vertex="1">
          <mxGeometry x="756.72" y="460" width="70" height="30" as="geometry" />
        </mxCell>
        <mxCell id="bbxzTCmNcXKcuzSU-puy-33" value="Deploy" style="ellipse;whiteSpace=wrap;html=1;" parent="1" vertex="1">
          <mxGeometry x="908" y="380" width="120" height="80" as="geometry" />
        </mxCell>
        <mxCell id="bbxzTCmNcXKcuzSU-puy-34" value="" style="image;aspect=fixed;html=1;points=[];align=center;fontSize=12;image=img/lib/azure2/compute/Kubernetes_Services.svg;" parent="1" vertex="1">
          <mxGeometry x="1128" y="385" width="73.67" height="65" as="geometry" />
        </mxCell>
        <mxCell id="bbxzTCmNcXKcuzSU-puy-37" value="" style="shape=image;verticalLabelPosition=bottom;labelBackgroundColor=default;verticalAlign=top;aspect=fixed;imageAspect=0;image=data:image/png,iVBORw0KGgoAAAANSUhEUgAADwAAAAhwBAMAAABikNZBAAAABGdBTUEAALGPC/xhBQAAAAFzUkdCAK7OHOkAAAAYUExURUdwTDJs5TJs5TJs5f///zJs5Xqd7sXT+L2/DbIAAAAEdFJOUwDLSpdKlL5TAAAgAElEQVR42uzdUW7iSBSG0chsYAbkdxOr34GIhQD697+VYTQP02pFCRBTZVPnLOHeK30qkODtDQAAAAAAAAAAAAAAAAAAAAAAAAAAAAAAAAAAAAAAAAAAAAAAAAAAAAAAAAAAAAAAAAAAAAAAAAAAAAAAAAAAAAAAAAAAAAAAAAAAAAAAAAAAAAAAAAAAAAAAAAAAAAAAAABeXPc+fuz//tfm4+N9MBAAeH58P/r8YXMQYQB4onGfz500GACe9Pgd+3xh825EADB5fvf5jgQDwNSv39xiMxgVAEzm6w+ff7c2LACY6Pm7z+1OOwMDgKLPX49gAJjKNvc6DaYGAD/SHXM/H0MDwM/62+chB6MDgIet8ihfBAPAo8Y8bmN8AFC8v8nFAAHgAdtEgQFgYf1VYACo0d9rgQdzBIDS/VVgALjPPtPwo1gAcLtjosAAsNj+KjAA1OivAgPATbpp++uvGQCgRn+vFBgAvulvnygwALxCfxUYAGr01x8EA0CN/iowANTob7I2YAD4xCrPpcAAUL6/CgwANfqrwABQo7/J2aAB4DdjyrgYNQAU768CA8D/tokCA8AL91eBAaBGf68FHswcAEr3V4EB4O1tn/JOCgxA434lCgwAhR0TBQaARvp7pcAA6K8CA0ApXdX+JjsrAEB/FRgASvS3TxQYANrrb3KwCAD0V4EBoIn+KjAALVnNpr/J2joAaKW/mRMFBkB/FRgA2uhvcrYUAF7emPnZWAsA+lvBxWIAeGnbRIEBQH8VGAD9rVngwX4A0F8FBoAW+pucFBiAF3RMFBgA9FeBAdBfBQaARvt7pcAAvI5uMf1NdtYFgP4qMAA82t8+UWAA0N+v/WVpAOhvBQdrA0B/FRgAmuhvsrY6AJbc3yyVAgOwXKtEgQFAf+9wtkAA9FeBAeAmY5buYokA6K8CA8C3tokCA4D+PlbgwS4B0F8FBoAW+pucFBiAhdgnCgwAhR0TBQYA/f0pBQZAfxUYAP7UvWR/k53VAqC/CgwATfRXgQGYcX/7RIEBQH+ndLBiAPRXgQGgif4ma2sGYGZWDfRXgQGYXX/TBgUGQH8VGAD9bcXGugGYiTEtuVg4APqrwAA0apsoMADo7/MLPNg7APqrwADobxtOCgyA/iowAE35lSgwABR2TBQYAPS3LAUGQH9r2LkCAArr9FeBAdBfBQaghf722qvAAOhvPQfnAID+KjAA+tuItZMAoICV/iowAOX7K7gKDID+zsLZYQCgvwoMgP424uI4AHiaUWgVGAD9VWAAGrAV2a8LPLgRAPRXgQHQXwUGAP19lpMCAzCpvbgqMADFHaVVgQHQ3zlTYAD0t8YbeOdiANDfChQYgJ/r9FeBAdBfBQaghf72avqIg9MBQH8VGAD9bcTa+QCgvwoMwGKs9FeBASjfXwlVYAD0d4HOzggA/a3g4pAAuMsongoMgP4qMAAN2ArndAUe3BMA+qvAAOivAgOA/j7LSYEB0F8FBmCGjnKpwADo76tQYAD0V4EB0N9W7NwXAJ/q9FeBAdBfBQaghf72CvlsB2cGgP4qMAD624i1UwNAfxUYgKpW+qvAAJR//8piQWcHB8B/719RVGAA9PflXRwdAPqrwABUMMqhAgOgvwoMQAO2UlirwIPrA9BfFBgA/W3DSYEB9BcFBqCQvQQqMADFHQVQgQHQ3zYLvHOJAPpLBQoM0JJOfxUYAP1VYABa6G+venNycJIA+osCA6C/jVg7SwD9RYEB0F8F/oe9u0lO3AgDMJzABVxMsYeivMdU6QZ4WPMzcAGcuQBOrp8ZLyaZxGNaUqvVLT3PEVTq761GjQTAAEylToEB0F9+OLg9AfSXHhzdoAD6iwIDEMlK4hQYAP1FgQFGYClvJRR44U4F0F8UGAD9HYe9AgPoLwoMgP4qMABFeRS1sigwwCBUiqbAAOgv963dtwD6iwIDUNNEfxUYAP0l2MbtC1Buf+c6psAA6C8KDKC/5G7mJgbQXxQYgABT/VVgANL3V7wG4eBWBtBfevDJzQygv/Tg6HYGKMZKthQYAP1FgQH0l/IKvHBXA+RvKVgKDID+EsFegQH0FwUGQH8VGIDePQmVAgOQXCVTQ6bAAPpLH9bucQD9RYEB+GaivwoMgP7SiY1bHSCv/s61SYEB0F8UGEB/GZKZGx5Af1FgAP1FgQFI119BGp2D2x6gd1M5UmAA9Jckjm59AP1FgQFGZiVECgyA/pKywAsrAKAfSxFSYAD0l8T2CgygvygwgP6iwAB04kl8+E6BAZKqlAcFBtBf+rO2HgD0FwUG0F8UGIBoJvqLAgPoLxnYWBgAXfd3rjYoMID+koeZxQGgvygwgP6iwAC0MtVfFBggfX8lhg99skgA9JceHC0TAP1FgQH0FwUGoIGVtBBW4IXVAhDPUlhQYAD9JWN7BQbQXxQYQH9RYAD0FwUGyNiTnFCfAgO0VGkJTaytHQD9RYEB9BcFBuBDE/1FgQH0l8JsLCKAJv2dKwgKDKC/lGdmIQHoLwoMoL8oMAD6S2cOlhNAsKlsEM3RggLQXxQYQH9RYAD0t5bz19v2m7/+cCkUGCCKlVwE5Petvm92f7ocAQVeWFkA+tvaZfsvu50LosAAbS2l4r6v25/tXlwTBQbQ365dt1sFrm+vwAD6G7e/CqzAAPqb9PnvPwV2YRQYoKkniQg4/7x932eXJoACA7zjUR8C3H4R4N2raxOwB15bZwD/VclD4x+g/QgdTIEB9LeJ7a89uzoKDKC/6U5A/+DyKDBATRP9bXUCyzmsOjYWHID+RtwA2wIrMEDN/s41ofUTYE+Ba5hZdAD6W8PpToBtgRUYQH87cLsX4FfXSIEB9De2y73+OoalwAChpvob6wjWdy+uUqiDxQeMu79CEO0IlmNY9RwtP0B/ifMLtPdRKjCA/vbxC7TfoBUYIMBKAiL/Au0cdM0CL6xCQH+J8Au0c9AKDHDX0viv5RQUYO/iUGAA/Y3qFhZgD4Hr2SswoL+0fwS83T67UgoMoL/xnAMD7CGwAgPob/pHwB4CN6DAwGhUZn5tVwFWYAD9zfYMln8CN7K2KgH9pdUZLKewFBhAf3s4g+UUlgIDvGuiv41cggPsewzNbCxOQH9pcQjaKSwFBninv3NzvuND0ALc2MwCBfSXxoegvYxSgQH0t5cAv7paCgygv5GE93f77Go1drBMAf1FgBUYIEZ/DfcWzjUC7I/AbRwtVWBgpkZ7GxcBVmAA/c07wN7EocAA+ivACgzQn5Wh3tJJgFMWeGHNAvpL7QB7FZYCA7xZGugCXJi9AgP6iwArMID+CrACA+ivAAuwAgO868kgF+BSC7y2foFyVca4AJdLgQH9FWABVmAA/RVgBQbI10R/Bbh4GwsZ0F8BFmAFBtBfAR6JmcUMlNXfucktwAoMoL8CjAID+osAKzCA/gowHztY1EARpvorwANztKyBEvprXAuwAgPorwCjwID+IsAKDNCBlUEtwEMt8ML6BvR3dC41+rtzuRQYGJulIZ1BgO2Au7JXYEB/BdgOWIEB9FeAFRhAf4foXCPAn12uDikwoL8CLMAKDPDbo8kswOOwttqBnFTmcrdqBPjZ1VJgQH8RYAUG0F8BJoaNNQ9kYaK/3buFB/jV1VJgQH8RYAUG6Ka/c9M4gWt4gF9crQRmlj6gvwIswAoM6C/dOPkWgwID6K8A8+XLwQAAejPV31QuvsWQn09GANBXf41gAR61oyEA6O/Qnb0KWoEB9FeAUWBAf8fBmygzLfDCLADSWhm9AowCA/o7eDdvoszUXoGBhJbGbmpXL8JSYAD9FWAUGNDfUTh5EZYCA/qLAPMTBQYSeDJt+3DxIqysrU0GoGuVWSvAKDCgv2Nx9iIsBQb0FwHmfx7MB0B/h8iLsLK3MSEA/RVg7IEB/SWGmzdReg4M6C8CjAIDiXj/Rr+u3kRZgoVJAeivAJOet1ICsU2N1p6dvImyCEfDAohqYrAKMEEOxgUQ09xcFWDCzMwLIJ7KVO3dxaugS3kMvDYxgFgcwBJgahTYyAAi8QBYgPEYGOiBB8A5OPsWQzkeTA0ghkfzVICpZ2FuAO35B3AmfIuhIP4NDPgBWoDxIzTgB2gEeCS8khJoywnobNx8DKkkTkIDLVUmqQDTxNr0ANr43RwVYJr9CG18AG0Yo/m4+hqhc1jAaDiBJcA4hwWk5wRWTk4+huQcFmADjABzly0wYAMswNgCA+WoTFABxhYYSM5LoPNy8TVCW2DABhgBxhYYsAEWYAG2BQZsgOnG2eeAbYGBMXAEWoCxBQZ68Gh25sbXCG2BARtgBBhbYMAGWIAFOFuGCVDP3OAUYGJ4ME2AOnwHOEM3nwMuke8C/83evSQlkkVhALargjkT5jlhzoQdpDJNow3cAFgboMrtd/so2wcl0JJ5z8n7fSsg0Ph/7+NcAQtgBUwJC3kCHM8jHAoY17CAAlzBimhzuIC3vqWAGokCHMsMkgLmfDqRAhzLFSwFjGtYQAGuYIV0498Bu4YFjJsrWAoY17CAAlzBUsCclVAB7EArYAqYShXADnRitwf7d+VLiulvsQLYgR71ClgBR9XIFeAI0tIKGHvQwPAMAStg7EEDdqB5sT5YwFe+JHvQgB1oFDD2oAE70AoYe9CAHWgUsD1ogLdmojJvAV/6kuxBA1l5hSMwBZyY96CBAyaSUgHTB+EC2IFWwBSwkC7AZ77JSQVMLzrxAnzGEJICph8GkYBPzeVk5gL+6TsKrJEvwCekpBUwPZnKF+DPDCGFtrMCzswgEvCJiZS0BU1PrgUM8GdLKWkFjENgYHgyUgHjEBgYniNgBYxDYKAAU8AKGIfAQAFzGamAcQgMDG8mIhUw/VnIGGA/D0FnL+Ct7yi0TsgA+zkCtgKmT56DBv7AEbAVML0SMsB+SwFpBUyfGikD7CUfrYDp1VTKAPu4g2UFTL88xQHs5Q6WAqZfbmEBe83lowKmX2IG2GcpHhUw/WrkDLCHdFTA9GwqZ4CP3MFSwPStEzTAR/4XYXitAs7OLSxgj4l0VMD0zH8kBPaYS8f0BXzpO4pO0AAfLYWjAqZvjaQBPpCNCpjeTSUN8J5L0AqY/nWiBnjPJWgFTP+8Bg184CXo8NYKOD9zSMAHE9kY3e3BAr7yJYUnaoD35qIxupuDBbzyJYXXyBrgnZlojG5zsIBbX5ICBtKRjOHtFPAITGUN8JYppPgO92+79S1F1wkbQAEnc3tEAV/6mqIzhwS8Yww4vJsjCtg1aAUMZDORjCM4AnYNOj6DwIACHuERsEPgBIQN8NZcMI7gCNghsAIG0lkKxuA2RxWwPejwGmkDvDETjGPYgbYHHd9C2gBvyMVR7EC7Bx3fVNoArxkDHscOtMew4uvEDfCaMeDg1sf2b3vpy4rNIDDwhv8GHNzN0QVsCRycQWDgjYlcjO34/rUEDu5a3ACvzeViaLcnFLCL0MGJG0AB57FrLYFHo5E3wCtLsTiaBbAlsAIGEpGK41kAmwUObiFvAAWcxLpVwCPSyRvgP97hGNMOtAehFTCQhnc4FDBD8RIH8Ip3OBQwQ/ESB/DKRCoqYAbiJQ7glblUVMAMReAA/1kKxchuTixgz0HH1kgc4MVMKCpghrKQOMALmaiAGcxU4gC/GQNWwAynEzmAAlbADM8gMPDCOxwKGAUMFOAdDgXMcLzEAbyYyMTQNgp4XEQO8NtcJI5rBbz1nSlgIIWlSBzXClgBx9bIHODZTCQqYIazkDnAM4mogBnQVOYAT4wBB7dTwOPSCR3giTHguO5+3LftyQXc3t/p4MAMAgPPjAGHtL67b79EC0dlEBh4NpGI4cr3xxfL9/d/BlbCEV0LHeDJXCLG2nY+T/m+Wgn7ToMROoACjrf03bU90MGxNFIHeLQUiFHat+3P6pcvWAEDwcwE4tjbVwfHspA6wCN5WF4/O897OthedARTqQM88A5H8VtXA7Xv8zJ46xsvrRM7wAPvcIx969kyOBovcQCPvMNRsn7v2yKcBhflJQ7g0UQeVrH3/H4yyU50OV7iAB7N5WGhi1dtWSsVXIzYAR4sxWGN9auCS2rkDnBhDLja+nUfq5yF3AEujAEXuHkVpX4fqeACpnIHMAZcYPW7akOxET28TvAACrjWzWcVXJJBYODCOxzDumtjUsEKGBicdzgGPPzdtWF5mmNIXuIA/jWRhupXBQ/MSxzAhXc4qr17ZR+6JMEDeIfD8veVKxU8kEbyAN7hGESK+n38Z4V+VoNYSB7AOxxD7D63ediHHsRU8gDGgO0+u4w1vE70AMaALX8tgodnEBhQwJa/FsEFGAQGLiay0PLXInhwBoEBY8CWvxbBJYgeQAFb/loEF9DIHqjeUhT2tfzdtMlZBCtgoEczUdhT/66y92+7uvJj7M1C9kD1JKHtZ9vQBUxlD9TOOxxuX9mGLqETPlA7Y8C99G87His/zl54iQOq95cktP1sG7oAL3FA9SaS8Ox27cj89DM9Py9xQPXmktDxr4PgEoQP1G4pCM/rrh0j29Dn10gfUMA4/j1op4HPbSF9oHJy8Kw27Wg5CD6zqfSBuhkDdvzrILiMTvyAAkb/HsXDlGdlEBgq5x2O87ltx86bHAoYOBvvcLh+5TJ0GV7igMpN5KD+1cBFeIkDKjeXg64/uwxdhviBui3F4Fns2lYDc5pG/kDVZmLQ9WfjSGUs5A9UTQrqXw1cyFT+QM2MAetfA8GldAIIFDBf6t+2Phr4HAwCQ9W8w6F/PclRikFgqNpECn7RbdtqYBQwoICtfzVwGgIIajYXgta/GriURgJBxZZCUP9qYAUMDG8WdWdX/2rgs/wi3d0/fNL7X9uIn24hgaBiITPz/mmu9v5O/2rgL/4qxf43ElMJBPUKOAb85lWLX/pXA/9/P6I/4NWJIKjX9+iZ2W7Dpvta/cZu4I8PlIVbBHuJAyr2V7TQ3KV5c0n/Bm/g2wT/zdggMFRsEr5/oya8/g3ewPsPCII18LUIgnrN4/dvzITXv8H3KG5z/LkggkABx7BJs8aq7/8fJWvgdZIP28ggqNYyx63iK/2rgU/yyYf9GelzLmQQVCvLru7PWPGuf4M38OazD6uAAQV8Qmhu9W9osUZsP5/Qvgz0STsZBLX6liY0V1n+UqhVpD2KQzfkAv01ZxAYqvU9z7LyUv9q4DP9hK4UMFBcoHc4Dr7rGGXZ8kPXBl9XHvxVCjQM7CUOqNYk0bnqKkm6a+DAN6DDbad4iQOqNc+zAA6yx+kBjvALy2OOCOL84SmEoFbLVAerW/3rUcrz/IjiHFg3UggqNctybzXI3RkPcMS/3bTL8kGfLKQQVCpMDN3kuGirf8MX23G/SXH2oKdSCOoUZwx4l2KL0wBS+L+R1kk+54tODIECjn5xNcDtVQNI8Zttk2ap/swgMFQqzDscN8fGe8l7WAaQ4g8jHX9JLsqvvkFgqFSYdziO3tu9ypDtrkInOCTYKmCgpEmyHeiSuekCdIIGPmGT4jLK774YgjrNMw0hFV4C69+jlfvPSLsEv0gKGHiwzHYEXG4J7AJ0gotYJ53SRyngRg5BlWbZjoCLrVxcwMpwEWuXsYAXcgiqlGsKuODyygWsE4+Bt/H/SooyCTyVQ1CjMGPA0R9bcgErxUWs035KUW5hdYIIahRlDHgdfX/TAfDJrqIvgMPcwvISB1Qpyhhw9OTUvykuYm1yFrBBYKhSlDHgmzb0EtgFrBQXsU4+pw/y238tiKBG86QFfBU72ClyDLxJWsAGgUEBJ5lCGn5x5QJWimPg0/9OMggMlLPMOIU09PmiA+D/7TL0X3FhXoNWwFCjWcYppIEXLw6Ak1zEyvNel0FgIM47HIHXVg6Ak7zHcaOAgUS+5S3gwS74OABOcgy8y1vABoGhQt/zFvBQ4ekAOMkx8G3gz6aAgQ+ivMOxDru0cgCcZRp4l7iAvcQBFZokLuBBgt0BcJZp4HWbuIC9xAEVmmcu4CGWwDagsxwDbzIXsJc4/mHvXLIbx5Eo2pKO5p5o7onmnmgHJXKqOi2SGyDtDYj29rs6q09Vdle500kAgReBexeQpknku4jAxwANcvEsYIOTSHfs6eQs0rYRJCPgZ7IIoDlOrgV81XwsqLBacPct4BeyCKA5BtcCLr64yAkkN8vAv/gW8BNZBNAae98CLt3aZAHYzTLwXXIAfZ0bYQSAgB2dAy5eWHECyU8T+uFcwBwEBmiOg3MBFw3QkQZ0TiTnSggYAGqx8y7gkp1NGtB+mtAPzbqcg8AA8ClH7wIumKA0oP2cRRp/QcAA4IyzjIAfanUVJ5AcLQNvblbIjH8OAgM0x0Umf2a1VKcB7acJvX2yhIABoBYn/wIulOo0oB01oTcPnl5HwC+kEUBj6OTPfXOGLlo1FZi3K0a9mpybOADgB+wDCLhMiNKAdtSEniMI+EYcAbSFzjHghJZviRKYBrSjJnRCt+Kq8x+Ag8AACLgWUilKA9pTE3rWmg9s5J/EEUBb6BwD3n4QuESo04AuRi81W1p0xj8HgQEa4ywk4IdOCUwD2lMTOmW2JDT+B+IIAAH724WVPUexpKMmdEoB3CkJ+Jk8AmiKSxABX2VKqiJ8vC/jZsW8fsTeCT3LjBsEDAA/wUkof5I2PgVuQL8vKW/nd9u9PZR+o1Vm2KxKAn4hjwCaQil/khq/OUsZIVn170uiZ/4oN1+Ffi2ZdoXU+L+RRwAtsZcKIJEoncVq30wCVqqDO5ECuEfAAFCLg1QA3SVKYJUjwB9Llr74fztmfIvWhJ5FJgLcxAEAP8dOKoBGibamRJXYv+ZamP5LkSfRiu41xozUEjA3cQC0xVEqgNJO/2QqgSe94jevgDXK4E6hANZaAuYmDoC2OGslkEKaCqz8Zp0Y/H2tWV/Bi0ABrNWB5iYOgLa4aAXQVL8Err0Dq3/P/G4+a/bW3pDVC0zZrmICfiaRABCwzx50jqKqcgP6r0u/6TvUPv0XKy8Gr9ULYLEONAeBAdpCLYGqFzQPUf2WEPBv/qr661YfL2od6OGJRAJAwE570Okl8L2mkF7LPNr/f+EVFdzVLoBXteF/I5EA2mGvlkCJPehr3UAvsvZbVsBVt2MtdQtguQ40B4EBWuIgF0Fz1UivtwPrvVxx/sN/uZqC+7rzpSsCBoB67OQiaKzZ1ay2A+vjCxOHcgKutxS8ep6tFYCbOAAa4igXQam7oJaKP3tzIfilhy4o4HoKXtxO1jgIDABpnPUiaKqXqpV2YL0Xfrqv/fN1+tCd17kaAgaARC4DJXCuDWBbFfTVB54Lv5E6RfDicqpWjGcyCaAZTgMlcNUdWP1S/vEWozdvvQ8rYAHMTRwADaGYQbWCtcYRpM5ifrCYvXrTfVgRC2Bu4gBoh71kCI11aqpZufw1EnCNIpgC+DtuhBIAAvZ8FnitUVCVr8FmG9U8xF9Dpu911Rz6HAQGaIbdQAlcTTyL1QP+5ITkTboPkGnHXK858jkIDICAne/D2lICWx9B6pZBVMDm26E3lcB3+yFiwa+EEkArHEVjKLEc7c0LqlJnf6sI2Hw5fIMNA97BwUFggLY4q8aQ+SW/s37X1VDAxgviGyZMid9L1r8cBAZohotsDhkH7KjfczUVsHEbejX+XisCBoDanHSD6GGqONMC+H3bGzHe8Gv6Smwfrtcd9tzEAdAMwkGU2ARdZAvgjZt+zQVsuhv6Kjw4OAgMAAXYCwdRYpHzcyXww4F/zQVsOi2xPKt8HRAwANTmoJxEhst8hluOErbf2gvHcCH4p9ry91qfwABu4gBohJ10FKVpsZcsgN8HTwK2fDOL2dRskR713MQB0AhH6ShKbEJfBQvgpOyv0nKdBVsDac+0ag96buIAaISzdhYl1l+LWpnXp9VeddY8J7nJyVitB2ECsQSAgP0vA3+1prr78O9YR8BmBu5N5ku9un85CAzQCBf1MJosmo261z1les6u5jQo++e6V5wEcRAYAHIhH0ZpBu7LB7rh3tux2o822gzdG0wH9P07PJFLAAg4wEasTqe+S196rCdgq1XytfijrA5G/I1cAmiBvYM4SgvcpbDhLbf+1BSwjYG/UgJP0f3LQWCANjgM0Q3cF9SadfJXFbDNPOVa9nO9DwgYAETYuQikpMztJMSSpfKailaWGgYuOhvrXAx3buIAaIPjEN/Aq0ABnKfzWVnAJgb+UQn8Ft+/3MQB0AbnIb6B+/pWybTztraATd5VuYHgxb/cxAHQBpehAQN3tQvgXCdfqgvYwsDXUg3o3o1/uYkDoAlObjJpKtQAnv34V0DAFq8L/3ITB0ATOAqlMgYeHfk35cKQwY+BPy+Bx0b8y00cAC2w95RKbyUMPDvyr4SADd7YZ/pNGQAOLqD8jhvRBICAtUiJ/j/WgV8/bAvgnMEvIeDyBu7+5wv1Hx9vHx8Pmc9QHg4CAzTAYWjGwL98vL6+fkvxq6VMsga/hoDLv7RMq75u/ctBYIAW2A0NGfhv0rh4AbwOAQVc3MBdnpV/ZxdQfgcHgQEa4OgsmPLUQ72ZSTIHv4qAS98L/eeC7dikfzkIDNACZ2/BlOfP4nVGBXDu4JcRcGkDX7P+nM6dfzkIDNAAF3fJlLUkKlwAZ7/5P+F5F18Gztmh6AcEDAB6nPxF05Svx1m4AM5feAkJeLQogaecMnfFC9kEEB6P2TRnk+PszL9KAi5t4G8/o8UN0L/zRDYBRGfvMZvydD+vufLdsvGpJODCBr7mmiCtLsf4jXACiM5haNfAS8qWpkoLj1ICztQg/rwEnkT7EBZwEwdAeHY+02nMY0ibgzQiM48SheBb0RJ4lJ0HGcBNHADhOTqNp7K1l+7Co5iAyy6iP2TnQQZwEwdAeM5O48nkD8MLLjyqCVj+O3j1LzdxACBgDCxyAFhVwHnuRfE2D7LgmXQCCM7FbT5JJ3+xjT9yArb4c8rNbcD6xgvpBHw0GDMAACAASURBVBCck9+AEk7+cht/clzu2M5yfO/YvxwEBgiP54TSTf6hJQE3+R0MuJFOALHZu44o1WXgpS0Bt/gdDOAgMEBwDq4jqvTfAxDc+CMp4Aa/AwIGgFR2vjNqUMz9bmhOwGNz38EAbuIACM7ReUgJJn8/tCfg9r6DAdzEARCcs/eUusvl/tKigMveSdngAvC/IZ4AYnNxn1JzW7mvKmC577C6H9ncxAEQnJP/mHq0lPsprd6upe/Q+R/Y3MQBEJwAMTW2lPvCApb6Dn2Agc1NHACx2UfIqamh3BcWsNR9HEuEgX0joAAQMMvAMrmvLGCh77CGGNccBAYIzSFEUMksP5bPfWkBy3yHLsaw5iAwQGh2MZJqbCb3U9q8fSvfoY8xqjkIDBCbY5ComlvJfW0BiywDL0FGNQeBAUJzjhJVjyYa0PIClpgJvUcZ1BwEBgjNJUpUCTQ/rwMCHsYHDWgEDABf4RQmq6Y2cl9dwAIzoSWOgF9IKIDAxMmq6s1Pm9xPuvq6ie+wBhrTTyQUQFz2gcJqaCL39QVceTm+izSkb0QUQFwOkdJqaiH3HQh4pAGdC27iAEDANKF/uLy6IGCJmdAaakRzEwdAYI6h4mpoIPc9CLhiE7qLNaC5iQMgMOdYeTXFz30XAh5pQGeCiAJAwDShVU6euhBwtZnQNdh45iAwQGAuwfJqDL/wePdRH87RJ0JGvJBRAGE5RQusKfrC4+yiAq40E1oQMAC4IVxgVdn/46bJvsSeCXXxhvONjAKIyj5eYo2hG9B+BFxjJhRvNHMQGCAuh4CRNceuu9wI2H4mdEXAAOCHXcDIGmPXXbObWv1u/B36gIOZmzgA4nKMmFn3wA3oxM7u6udRW78D6z9wEwdAWM4RM8s2+PsBAUv0IkIWwNzEARCXS8jMMt2AuyBgjV7EElPAz6QUAAKmBNbY+ONJwJYfoos5lDkIDBCWoKE1Be57uhLwRAGcyhMpBRCTfdDQsqu87Df++KrX57gzISNuxBQAAmYjtEbf05eAx7BLAVZwEBggKIeoqWWV+wMCFpkKRR3JHAQGiMoubGw9gjag3QnY6Ev0CBgAfHEMG1v3sKnvTcAjHeg0iCmAmJzDppbJ9tsFAavsw1riCviZnAIIySVsalnUXXVOnroTsEkJPCBgAPDFKW5sPYJWXaO/OcOdJeAUXsgpgJAEjq056LKjQwEbTIYCLwFzEwdATPaBY+setOjyKOAJASdwI6gAEDC7sBT++J1HAZdvR6yBRzI3cQCEZBc4tsagq44uBVx8H1bgTdAcBAZAwAhYI/Inl9OG0iVw4IE8/EpQAUTkHDm3gv7xO58CHhDwdggqAATsjEfMxHcq4DsC3swzSQUQkEvk2Cra9bwiYKX5UB9awC8kFUBATgjYXcXlVcATAkbAAPAnoWOrZNNzdftrxVwSiC3gG0kFEI89AvaX924FXHJbeoeAAcAXh9CxNYUsgP0KuOSaQGwBcxMHQEB2CNhfw9OvgEcEvA1u4gAIyDF0bJXL+wUBi5XAsQXMTRwAATkjYH9p71jA5W7juIYeydzEAYCAvRHz3mHPAr4j4E08k1UA4bggYH/tTs8CLtWUiH0KiYPAABEJHlv3iAVw6kLqEvGTrMFH8hNZBYCAKYHr7/dxLeCBAngLN7IKIBr76Lk1BSyAnQv4TgG8AQ4CA4TjED23Stx+WP3Ai28BDwF7EggYAH6aXfjgmgKWW1TAanOK8nAQGCAcx/DBVeLqh75y3j88zx9GCmAEDAD/CH8MOGjguxZwib+INDTAM2kFEIxLA8k1h2tCexZwia9xRcAA4I9TC9EVbiO0YwGXWJLvWxjE3MQBEI4mouseLfT9CrjIPVhrE6P46V/snUuS4kgWRS07jTkT5kyYM2EHEpqS1ippAyJyAyJy+1U1666MikDI/X2uztmA4Am719/PQa0AtPjPJqSrStvxPW9K71ixnUiAX+WGXAFgwAlRu40jrQFzB8frsAgMIMb3bWhXlS5whwGHKEBvJAH+47/IFYAWOzLgjLtIWQ14bsRKEZawCAyAAWdkqiL8frXPpAZc6TW02/gR/4FcAWhxogKdMffK6VhjpbewlRr0Eb0CkOJCBTpjETqlAQ+z2jkIAwaAFRyoQCcsQg8pzw313sJGatB79ApACirQKZOvjAY81nsJHQYMAOnYxhpwRen30f6MGfDQyB2DrGERGECKbawBTzW1/4oBP8Vc8yW0GDAAZOMbFeiM2VdCA+6rvoNt1KC5iQNAih0V6Iz/RTuk86uhkTsF2cNNHABSnKhAZyxCj+kMeK78DrZRg0awADDgZNQWf/tdpHQGXPsMtJEa9BHFAhDisgHVql39dCiAZjPgsf4r2IQBn1EsACEOG1Ctvr76dxiw4xTcdmrQexQLQAgq0GV4T5ZR6r2B6xZ+yjcUC0CHLdzDYVCBNi9C96kMeDR5A1swYBaBAYTYwj0cvYn8dxiw7wnI768hMWAAeIUt3MMx2+j/FQPe0Atwgps4AITYbUC0mkYvA8tkwJPVC9hCDRrJAtDhpC9Zo5X+d3cM2K8AvZEaNJIFoMNFX7LMEjDLGmgiAzYLf9NuwICPaBaADAcq0CkdII8B251/NnEZ1hnNApCBCnTOXaQpyyfVDL8fezQLQIUNrAH3lg7QYcBeDeCN1KBviBYABpyG2dQCrhiwY/Q3UINmERhABv17OGxTsKZ7YMD/w0/b6G9gEYlFYAAZ9O/h6I0toMOA3U4/W1hE+oFoAaiwowKdswg9p7Aq0eC7gmgBqHCS16umkczCUhjwZB98fQM+oloAIlzU5Wq09wCT6m4GA/aI/QMDBoAkHNTlyiEJM2kDJzDgwSH0TStvwGdUC0AEWsBJXSCBAXucfTawiHRDtQA0kF8DdsnCLIrQ8Q8JvWroMWAAKIH8GrCTC3QYsNPRR78JzE0cABgwFWjXdZjwBiwbeW+4iQNAhJ26WjWNaCIW3YAnt8ir/6S5iQNAhJO4WI2Nqg8EN+ChkT36uINsAWDAGfDLw2qXQmMb8DD7Bb5VN+AjugUgwYUWcNJMLLZPOR589BeRzugWgAQHbalyLITWXogJnaGPunEPwB7dApBAXKp6VyPoQh8tWtVzj3wT+IZuASigfg/H5OsE18geV/HDzbJhDwGLwAASqK8BN87cN2nAvXfYMWAAiM83baUaG1krCGzAQ6N77gkBN3EASLCjBZy0GhrYgGf3qLfaP2tu4gCQ4KStVP5WUG0gaH1yX2tEbPIPuvoiEsIFoMCFFnDScmhYAx4jBF3cgI8oFwAGTAs4sc91uoce9UWkM8oFIIC2Tk0hzOB9UwYcI+biTeA9ygWAAdMCditCBzXgMUbIxZvAN5QLID/a93AMjbAbFBjwFg65eBOYRWAAAbTv4RijuMF1MwY8Rwm5dhOYRWAAAbTv4ZgaYTsIacBxIq59GyWLwAAC7GgB2xSh75sw4DAFaPkmMNIFkJ8TLeCsCVlEAw4UcPHbKI9oF0B6Lsoi1Ufyg8cGDHiKFPAWAwaA0BxoAWfNyOIZ8Bgq3tpN4DPaBZAeaZEK5QfFm5J9tDPBECve2otIe7QLIDvSa8DRDKFwSjZFM+A5WLylm8A3xAsAA6YF/HwK/JA24J/Bwq3dBOYmDoD0SK8BT9EcoVM24Gj1BvEmMDdxAGDAtIDdLCGYAc/xwq384+YmDoD07GgBp91FmkJ9nClgtKWbwIgXQHZOtIDTesIcyYDHiMGWbgIfUS+A5FxoAactQocy4EY82PE4o14AyTnQAk6blUUy4ClmsJUNeI96ASSHFnDeInQgAx7VYx2QG+oFkBvlNeCoptAFMuBW+6wj3QRmERggOd9pAeftTMYxqFk91BgwABRHeQ04rCuUKvyGMeA+bKSV/xOYmzgAkrOjBexhC3cpAx7jRlq5CcxNHADJOdECzlsZjWLAc+BIP3R/4NzEAYAB0wL28oUgBhw60MpN4CP6BZCaCy3gvKXRGAY8ho6zchP4jH4BpEZYnhp5YwhhwEPsOCtfxbFHvwAwYFrALrXRIcSnmILHWbgJfEO/ADIjfA9HH9wY1hehQxhw+DC3uj9xFoEBUiN8D8cc3RkaBQMewkdZuAnMIjBAaoTv4VjvTbWLq1cBA659zGln93NOXFgEBkjNTlac1rvTo/oY1yO9AVdvABcocQs3gREwgMycaAF/kjlV72+uawOP7gXasf4RZf0pQ7gJfETBABJzkdWmqURuWLvA2uU24MEiPlzFgQEDaHJgBuuzxMkgw8tswJNFeNY/RNeAzygYQGJoAX9eHq4+Sn1PbMDVjyfXMk+5y/7K9ygYQF5014DHMs5U3WO6vAZcfwPpXmacXXcK64aEAWDAgjNYrVGV9er4HdfVZ2ej0EyOIQ4ON3EAJEb3Ho65UNpUP817JDXg6keTptTX1L2Kg5s4ABKjew9HMWMy85lkBlz/ZNIWe5Lsr5ybOAASs2MG68uyZWNUaU1mwNXD0hWvZgiChAHk5UQL+EvNrn4bx8v+4GnAk2FUSvXzBTmiYQBpuagK02p/uBsOG726J+NowKNhArz+YbpTWGc0DCAtB2awvp7bMTWbHAZs8B9I9xoNfQwYAMLADNYzRcv6KXCbzIDrF6CvteoZWtzQMICsyK4Br05aH475nq0NvvLkn8YB6Yu+TiVYBAZIi+wacF82L6yf8L1UhJ6dDNjgQNKWfWCLAQNAMGTXgKeSBVATx7l6+eDDyfgXFcZnj/NNBriJAyAtO1rAz2VM9VeRXjBCLwOe7IMxFTZ0GbiJAyAtJ1FZGorXZet7zvJasJMB1x8K/z1hHc2DmwVEDAAD1prB6jxc5+rjhIvbo41HNYAprH/hiIoBJOXCDNazXmjQ92xTGPDkkACvD7/sVRxnVAwgKQdmsJ7NlwxS4KV10t4j8XaKQ1/e0zXYo2IASWEG63kn9Mn86hvwsocazIN/eCRY/VzVn/oNFQPIieo9HEMNT/KyntrF4GUGPHsVApjC+hgWgQGSonoPx9oyaevV/Fw2K1TIDO2Tbo/ot6K/dRaBAZKieg9HX8UGLVLgbkmiZt95tghBYzZXhwEDgB87ZrCW5IQW6d/V3oAXZN2zXxGgSltBAWQMICcnZrAWaXXj5z8V55Fbs4ONa/BVDfiIjgGk5MIM1iJHsljBeb4i3Ne2PJev/6jl/ncMGAACcWAGa1kSOnumgNXy0UgN4KvxZF1+zugYQEqYwVpoSCY54Lt1Q/ZubPivfZahmrXnZo+OAWREdQ14qqfUziZUJyFtTY41q2M/G1UWknFDyAAwYJkZrNa7DPucVYwmrmf7zT89e1Sabc8ON3EApOQ7Brx4DnnyzgNrfJIoG0if5+KjSWEhHSwCA6RE9B6OsaodmSSCj/rHjIWPMzl4ND7D7bn5gZABZGTHDNbyAnDvXootPw92NX3ayweBGQP+CIQMICMnZrBe0GmTWuwv25T0ywawyZfu6n5l1SmsI0oGkJCLpiDNdeuxIZLBwqXw1tLt3SIvasBnlAwgIQdmsF6RaZNs8Ksi9GiZe9qcOb4shA91Q4oBA4Admno01C5U2izkdKangIf/F37CHyvXNpJyQ8kA8iG6BtzXrcaaFWSvlp7Y+af81+qBF53CYhEYICHfMeDX0iSjjPBheQa4e899N/Vf7RUDBgAMOPAMloHHr/8o5Y8Anfdx45n0tHp3ISXcxAGQkB0zWC+KtJEnXS2Lwg/fAnRn8G5Fx6C5iQMgISdmsF4tU9qMBf+rKVZ5/MdF6GHy/apFK++iU1hIGQAGHIPRRKNnT1saDHNQoy/6ZHW4x4A/4IiWAaTjwgzWy7uiRinwxx+nkile3Qa+rcIuOoV1RssA0nGQVKOVlmE06vV0Zng3NMV3N/992hmZwvqAPVoGkA6GoFc4gdEc1gee8bPew97tHvXiHVWzzfEqFze0DCAbovdwWN3VYJUc/jMHrmqKvzyy/CVR742MPhUsAgOkQ3MNeLBSaKsU+P8/U/Wh5Df79HdJYmozYpcMFoEB0vGNIehVNcrezJ9+3Q1NsXv/+2lvPxuz/HeJLQ5WqTYGDAAV2TEEvW5Kxy5D/MsV396Gt1+NJIuCbtTizwViBpCNE0PQ6zKk0dSm5kaVh9377TBgAIjAhSHolT1CXU8MmwCvLfxrGvARNQPAgNMPQS+bkh1xT8sVJNshu0ycUTOAZDAEvTpBmrBPuzs4ipywNMeg96gZQC4014BHUzMY8E/jBHht3V9zDPqGnAFgwNmHoBfLMymw3R0cRd6w5hg0N3EAJEPzHo7JtkBJCmx3B0eRGofmGDSLwADJ0LyHY7Z1A8PbOFhB8ujy5+AHcgaQix1D0CXSIzw0V8Q1x6CRM4BcnBiCLtEgZBXJeih5Mn9ifI7oGUAqLgxBFxmR5TYO45Go3v4dY8AAUJQDQ9BFsiNSYON68Gjv+eHZo2cAqWAIutCADqtItma4rs3QYcAA4I3mGvDsoM2sIhkPRDEG/RssAgNgwLmHoF+tTpIC27ZjJw/Xx4ABoBiSa8CDiyGwimSbizo0+qPDTRwAGHDuIei7jyOwgmT6liUNmJs4AFJxYgi6XHeQVSTLaSj7Ze/4IGgAGHBmA14xH8sqkmkmigH/xhFFA0jEhS2kgspMCmwZbY9ls+CcUTSARBwYgi54RxKrSJbDyD0G/E/2KBr8yd4d5DZyJFEYhiRwr4323HDPDW8gtbY0TBYvQLovQNnXn9UAI0rAtJuVmS+zvh8+QHXJen9FZkQIHWEKadbuHKNIFQ+CT83UH8teogH9MOQY8NSuMlICd/Oyh2yDNggMdMSTKaR5jyaNItU67m951UDAAO5nyDHgQ7ND0aNtHJUazu/veRuyDdogMNARK03QMxdGRpHqnQIfWtqfgAHcx2bEFLq2lIJRpHoKJOAviDSAgPsV8N3NsUrgaq+6YbddKmuZBnTDzhTS7LGsBK52CWsO6ZatTAO6wRTS/AeTRpGqCbDtZUMizzINIOBep5Dm6I21jaPWGNC59QPEsZdpQC8MuYfj0DqVlcC1rmAPrb+14jAIDHTDkHs4zs3PJW3jqPSi7zrsGLIN+k+hBvTCAwEXaY3l1zr20wZ9i0FgoBtWppCKhLJRpEodUAR8i1ADemFjCqnMvaBRpDrHv21HvhNZSzWgE3amkMp0xiqB67jvEFCFEzCA3+HFFFKh0RSjSFUakA8RP+wktlIN6ARTSKVOJY0iVXnNJwK+YS/VgD4wBlzuWlAJXMV8BoEJGCBgU0hGkTp7y0MOAtvEAXTCkHs4riE1kW0cNZqfriEfAjHYxAF0wsoUUsFbQaNIFQrPkAuHHGziAAiYgI0i1Zj+MYd0i1gD+mAzYP5MOYmsBC7f+nQi4BvWcg3ogt2A+XNXIgc9ihGk8t9bQ84hbeUa0AUvppCKduUYRSo/+2MO6YZnuQZ0wZGAi86l2MZRvvHpGvTzjmAv14AeMAZcuiJSAhc/9T0T8GcMAgNdYAy4+J0g45YevT1EPQ0BA/g1Hkwhle6KtY2j9Bu+q9PtMuAvgE0cQBesCLh4HhtFKnzmOxHwDYIN6IHNgOkzhZ1IGkUqPXhrEJiAAQKO4JRVnymBi4/9ZF36B7CWbEAH7Ai4vB+MIhU+8T2n/cRbs5VsQAe8DJg+h7h6yChSWd0dCPgzz5IN6IAR0+ccJ2AlcNmhn6TNKxHsJRuQjz0cdVpyjCIVvXA95X0TtMUgMNAB9nBUGkrh3pLV5kTAnzEIDHSAPRyV0tgoUtGRH4PAn/lDtAH5rAi40oWgUaTUt/sx4u+AaAPy2QyYPfecR5ZriVUCl6w18/ruGrOWbUA8uwGz5xQpYCVwyZd7IGACBnrjZcDsCQ1jo0iXzJ+5TRwAmnAk4Gr3gUvfxlGy0jwR8GeeZRuQjjHgih2xSy+BU+/9beIAQMABAo4tzRXAxTrfbeIA0AJ7OKpmsRGkBf7Q22ATBxCPPRxVLbHkUaSPXAFfBvwlsIkDiGdFwFX7ca4K4IV13jVDuAHpbAZMnnv6cd4KP9tyS+ALAddlLd2AcHYEXDeKlzqKVHzU5xT82dWErXQDwnkZMHlOyQKeFMDLO/dowrN0A8IZMXkOyZ5YaAlcQXE2cXxmL92AbB4JuPpAih0cS+t9b4NBYCCcIceAz9miWOI2jhpdTgaBCRgg4I4FXKUUWt4o0rvvrvrYxAGEsxoxee4QXJXLwJMCeIE3D9WxiQMIZzNi8sS3wy6tBK7T45Tde9cA8QYQMAHfsrRRpDp6O6WX6LVZyzcgmt2AuTPlB/FZAbzIn3tdtvINiOaFgFscRU4K4KyX+jaigJ/lGxDNiLlzz1FkB43adnB0e/VQmb18A5J5JOBG3bB2cCyv+702BoGBaIYcA76jG/a9h4c0gkTAv4RBYCCaBwJutZJwKaNIFV/puYunrIdBYCCa1Yi5c+6iEDopgJNOFUb8RTAIDESzIeBmvTjLKIFrnu0S8A1rCQcEsxsxdq59CHgZo0gX3XcEDGAxAu5lH8NZAZzzSXMZ8TdhK+GAYI4E3C6Gl1AC+/RqybOEA3J5JOCWddD4o0hvBNySvYgDCLgqUzcF2/DbOGoP91y7+VSog00cQDBPBNxUwKOPIn0QcFNs4gCCGXIPx6mfim3wUaTqr/NMwJ+wiQMIZkXAbRcSjl0CV+8sPnT0o6+CiANy2YwYOl2l8MijSD96+tEPuYvSIDAQzI6AG59DTgrghd4+VGEr44BYXkYMnb4uAsctgRu8TKuwbniWcUAsRwJuPQw6KYAzXuaQvwt7GQekMuYejmtXzhi2EbrJmS4Bf8YgMEDABLy8M+hLZwK+EDCAigw5BtxdFaQAXuzHV3Fs4gBiWRFwgIDH3Aj90ZuAP0b8XbCJAyDgTgTcpmqbFMALbcCrgJADUtmMGDnTkqxhBmm2V/k2pIDXUg4IZUfACesIRyyBG/3wDwT8ma2UA0J5GTFyTt0JeMBJpHcCzuBZygGhHAk4IoMPTqCX+/VVlr2UAzIZcwy4wyJovDPoCwFnYBAYCOWJgEMaYa9OoJfagVcYg8BAKA8EHCLgsxPomSBgAga6YEXAIcuQTmU8OB0v/+e/qYz6PzoU8JjLoA0CA6Fshkycc4cCPjarQ8tcP18IOIW1nAMIuAcBt3voazMNliiB37t8kQQMoB67IROnywhup8ESp98/uvzpX4b8ddjKOSCSIwGnCLjEJPAvXsQO1YPV5wVESZ7lHEDAHQi44clpiTq0nfs/CDiGvZwDEhlzD0engyjtytACbVgNVXbo8rOhIDZxAJE8EXDOLqSGFjwT8MACNggMRPJAwDkCnr0N+tf/MadWh99hZ/lvQ/46/CHogERWQwbO1GcCnxveww40hUTAXxB0QCIbAs5J4EPDKvQwkIAnAr5hLemAQHYEPK6A3+q8srij/KnPxy7IVtIBgbwMmTenKqe28QL+V31QZwImYAA1ORJwjoBPLR14ald968ErzV7SAXk8EnDQJoaZHfhRy1oDCXjMv0doEBgg4B7OcgcScNMD8KYCvhIwAQPxPBFwkICnpgqcCHhYAdvEAQSyIuCgv0c3rwL/9afEmYBH/XuENnEABEzA9QT879uJTsMI+EzAN4g6II/NmHFzJuDfaecm4GEFvJZ1QBw7Ag66A5y1BK17cJAl4AMB37CVdUAcLwQ8qIB/R4BT0xNwTXgFeZZ1QByDfu9fCfhS98OFgLPZyzogjUcCHsQb8/w7ZvwC6PVLZlABGwQG4ngi4EEF/PF7T0DAgwrYIDAQxwMBDyrgbp+gtYA/CBhAFVaDCnh50zMz/TOmMQQ8EfAtwg5IY0PAgyxwmusg9dz6EJyAy7CWdgABE3CFG9jfP0g/LV3AbwQMoAo7Ah5SwB8Bz/Dmf4AkttIOCOOFgMeo2+brQD4kPAQBz86ztAPCGDRsOr0CPCQUn/O1YRFwEntpB2TxSMBJAp6tAerS/1MQ8MzYxAGE8UTASQKeqwn6vlnm2dqw+nyVPwb9nTAIDITxQMBjlG2zmm+EbdAEfMsf4g7IYkXAQQKeq/S8t/vpEPIcBDwr4g7IYjNo1vS5Cngu8b21+3yJeZcE/IW1vAOi2BFwUOvuNcV755AvgSb/hGEFvJV3QBQvBJwj4Cnm6vXU/xn0ucuDcwIGFsSRgHMEPNcJ9Mf9j9L/GTQBf2Ev74AkRh0Dvsdl3Z9Avwd9C7wRMAEDIOB0AU9B0putDavD/wOGFbBNHEAUTwSco4xz0rHvOec4fEFnIGWxiQOI4oGAc+qfqO0X3bdhEfAXbOIAolgR8AjGKFFz9r6OkoC/IvCAJDYEHCPgsJKz921YBPyVtcQDgtgR8ADCKNJ3PFsb1lub93ki4C9sJR4QxAsBhwg4b/tj53+UkIC/8izxgCCOBBwi4Ll09yPBYAmrHQn4K3uJB+Qw7Bhwd5uAE/8E71yP9Po3AWdgEBgIYtgx4Dsq4CYCnu0A+j3iHSZ0QhMwAQPRDDsG3FkFPM31Z5Bm7Xia7augiYH7/IvQZTEIDASxIuAEAc/n33mLt/keq8EptAqYgIFoNgQcIOAZ/fsjxWFfz8Zrl5Uq4G8QeQABE/D/8PM19qj3dU4DE3B71jIPiGFHwM0FfJjTcjOr4zrns/24EHBrtjIPiOGFgFsvbpqz/o2ugGtfBBPwNzzLPCCGIwG3rYBPMyvuLVrAVdVGwN+wl3lACo8E3LQCnq6v0QKeZhdwzV4sAv6KQWAghnH3cNxxe/nWwTN22AVd/4SBgL/yp9ADUngg4HYC/lnCbu/5Aq52FdzX4q46GAQGYlgRcCsBn66v+QI+lBFwpXNoAv4GoQeksHEH3EbA07WQ2l5DXmKCggn4G9ZSDwhhpwJuIuB/iolt3uvLcgKucQ5NwAQMEDABl7/8LSLga8knLa5gAv6GrdQDQjgScHUB/1XWah8ZCks4hybgivC3TgAAIABJREFUb9hLPSCDRwKuLeDpWlhqbx0JuLCCCZiAAQIm4P/q92dxpc359NNref4m4KrYxAGE8ETAVQX887280OZcc3F6rcFfBFwRmziAEB4IuKKAi58+zz4IfKgi4GLn0AT8DTZxACGsCLiagOvod95B4EoCfn3950LAtRB7QAYbAq4l4J+1XDangM/VHrrIVTABf8da7gER7Ai4joDr6XfWQeBrxcd+/4uAq7CVe0AELwRcQ8DTtabJPvoUcIGrYAL+jme5B0RwJODyAp7OVTU2pzxeK/P3hYCLs/8Pe3eTnEiOBmA4bIf3bLxnw54NN8DFloqw8QX4uQC2rz9dMd3TXdNgA6mUPknPc4Iiy+i1lJJs3IMI7gV4/AAfclcs3T9/k/ufvjx+CPDYHAQGAe4jwPvjUoBLrUMLsABDWHcCPHLBjgUSlu4mjrflsuoEC/ApbuKAEB4FeNQAf5YJWLJH+LIs40OAx2TgAwFuPcCHQvlaVh/gVAkWYAGGsGYCPFqAi6w+Jw7wtthHSLMOLcAnTY18EMCi5WFmWzLABfOb8CaOkh8iRYIF+KS5kQ8CeDIDHifAh5LlSlePZVkfAjyKiZEPAmh5lBkwA/5RdX4TbiJbLutOsACftDbyQXlNHwMuNgMuuvqcNMCb4gEeuA4twCc5CAwBPJgBp58BH8tXK9VB4LdlAEP+UKEAn+QgMARwJ8CpA3aI0KymAjxkHVqAT/pp6IPyHgU4bcCCFCvVTRwvyyD22QO8a/qrYeiD8mYCnDLA5V/+Jj4IvI3yeW59FWwGfNrU2AcC3FSAP8PkKtX8LU6A//g/2WUN8E6AgVEtBDhZgA+BYpUqH8dIn+mWV8ECfNrc2AfFvQpwoneob7FalWgBdRnMta+CNwJ82trYBwI8qpdsM+DNMVipntsM8NWvggVYgCGoewFOMQPeHMKFKk2AN8t4rnoVbAZ8hps4oLgHAU4Q4EPETCV5gG/LiD4EeDA3cUBxdwI8OMD7Y8RIrQo/wCBbzAT4DDdxQHGPAjywX5tjyP42HuCLXwUPCHDbXw03cUBxMwEeNvweohYqTT+2YT/ehWvsZsDnTI1+UNhCgIf0K25+E/XjGPgDXvQq+M0M+Iy50Q8KexLg24ffTeg8tR/gS9ahBficidEPCnsV4FuH39j5TXQTxzK4bxMswOesjX5QVuPHgMccfg+r4G16TvD8NsvwPgT4Ng4CgwDXOQM+xC9TJwH+JsECLMAQVOP3cAwZfncVHj1KfhPHWw0B/nId+kWAz3ATBxT2KMDXB3izrSNLZVcQ8v6ysRPga7mJAwS4ugAfKonSsqMAn1+Hfin6C0xohj8oa9b4GJP+Goa347KjAG+X9dgL8HWmxj8oaiHAV53i2RwrKtJu+POr6eOefhUswGfNjX9Q1JMAXxPgQ009SnEQeFmXz50AX25i/IOiXgX48nwdKsvRc3cBPvEqWIDPWhv/oKR7Ab44wFWtPicK8Ka6AC9X+1RvsX+0/uVwEBiKav0Y8JAp3HPl+U1RkLdlhX5/FSzAZzkIDEXdCfBlAT7UWKJOA/z7OrQAn+UgMBT1KMCXBPhQZ4eGv8R8WS5rT/BRgM8yAEJJMwH+PsA1rj4nOgi8rfWT/70OLcDnTY2AIMAhA/xj8AguwAESfBz+G5gAAyNYND/GDJ0AHSpO0PCbOI41f/r/rkML8HlzIyAU9CTAXwb4reoADb+JY1m5j3Tb4Fs0MQJCQa8C/MUWps2x8v489x7g5WonwOetjYBQzr0AfzF2H6rPz9CEbJY9az/AbuKAgtq/h6PqbUTFDwK/dR3g9+a/HG7igILuBLhpQw8Cvwhw09zEAQU9CrAAC3C3AXYTBxQ0E2ANafYUkgB/a2oMhGIW7Q8xfU/ihkWk7/4OP0XtIDBw3pMAK7D+9hvgiTEQinkVYAU+dwSp9/72EOC1MRBK6eAYcOcnaX750N/bdPDtcBAYBFiAoxVYfwUYGNODACuw/nYcYDdxQDF3AqzAJ/vrkfURYDdxQDGPHQwxWvLLD8/saqsOvh1u4oBiZgJsDuyR9RzgqVEQCln0MMQoyZVzYP3tKMBzoyAU8iTACuyleZJl+0pNjIJQyKsAm9Hpb88BXhsFoYx7AVZg/e06wA4CQyEPXQTYidYrCqy/f3vu4dvhIDAIsACHKLD+CjCQxaMAK/A/HTyg3gLsIDAUMutihNlKyT8LvNPfC7138fWYGgdBgAW4dIH1V4CBXBZdjDAvUnJRgf2i0mWA58ZBKOJJgBVYf8/ZdfH1mBgHoYhXAZYW/e07wGvjIJTQxz0cjtZc0hb9/bc+vh5u4oAiHgRYgR3V6jzADgJDEXd9jDD+uM+3BdbffgP800AIJTwKsD2++nt2r1ofXw83cUARMwFWYP3tPcBTIyEUsOhkhNGSLwusv30HeG4kBAEW4BIF3ujvGT8EGBhNJwOMJeizPvT3qymwg8DASDo5BuyG468KrL9f+ewhwQ4CgwDLLxHXCAQYSK+DezgssDLUvvUviZs4oIA7+YXuXwW7iQMKeGx99XklHtgO7SYOCKjxezhcAU0ijU+Bp8ZCyK7xY8Bb4SCNdweBgbSeXL8Bl7wFbvubMjEWQnZtjyovuoE1aDdxQEiNHwO2Axpr0A4CQ0xtHwN2/yTWoB0EBgG2BQtr0AIM/KXtY8CaQUJtHwU2GIIAOwRMVA4CAwk1fQ+HLVgk9SzAQDoLE2CwDctNHJBfy/dw2IJFYi2fRJoYDSEzZ5DAFNhNHJDfvQkweAvsJg7I78EEGK7Q7llgB4EhsztboOEK7Z4F/mk4hLzaPQZsCzQK7CYOCKzZY8AWoBnJh4PAgAB/0V8L0Iy2FbrR98Bz4yFk1eg9HAeVYMxl6J0AA0OZ/oJ1aAeBQYDll2oS3Nws2EFgyOpefuFGnzsBBm7W2j0cB/kl53asplai3cQBWTV1D8fmUxHIPg3eu4kDuEU793BsTH4pNQ9upcEGRMhppr6QYi26hffBUyMiZNTCMeC9lWdCLEZXH+G5EREyeqo9vqa+xIpwzcvREyMiZFT3zFd8ibkvq9Kp8NqICPncVzvxtexc1RvSVXcf+Vjj7mgHgUGAv9xv1d/Ed7Wq+hP/WaLNbn/s7xePz8/9fr9xEBj4l3ru4djt94dDf2vOf8Rr9+c+71ob9NtqbH8N/t//ZA3r0gIMGVVwDHjfYXb/atfv1yxVuer+779e32+DK7g4y5AIAux476mx+q2+T3E6OIeeG7wXYOCXWej6min9/yNpo7+dNzjyNHhqTIRs4t7D0fG9zl9cqlRZgX98+V/ccYPDJnhuTIRsot7D0e/fFPzmSsOqVqFX3/4/99vgoAmeGBMhG/mtqb6/vFT0cS7a9dtrg1ch90SvjYmQS8xjwAf1/UI9vXq21a66SbCbOCCbB9Pfuupb02vg1TX/6V02+IeDwNCxu4D97XIudM1y5LaSD/XuyFnK31Hy+GlQhFziHQN+628Qvqq+9fyKckNc+jt4Fm8ObFCEXGbmv4V93rAVp44p8PttPwAHBXYQGARYfyPWt5qn5AKWEX9PEWCoX7R7OHp6Czjgr9XVMAUeNLXrqcHBTiNNjIqQSbB7OLbq28yL8qFd6eYmtJUAQ59swKqvvnWsFKTISicNfg71JVwbFSGPYPdwqG87SwWJqtJFg0MtQruJAzKJdQ9HBwvQqf4U3aajqLTf4FA7od3EAZmEuoej+R3Qn/t+FgvSvthsvcGRpsBu4oBMHk2Aa5v7VvKwkk/q9i03ONQU2LAIecxMgPPMfZNfux99v9oYp1sbbnCkKfDUuAhZLEyAM8x9Pzr8dWWkorTa4EhT4LlxEbJ4MgGusb4VHEQa7wdlf2zx58RBYOhOoK/9S5P13XW6YDDujK7BBgc6C7w2LkIOkY4Bq29Lv7CM3pPWGhzoOiwHgaG3AL+pb0sPLMeErq0G7wQY+hLoHo6t+rb0zjxTTg7tNDjOGrSbOCCLQPdwtJPfj50nlnE+10qDA61BGxghhzj3cDSyAr36yFee0OHJ+sPTRoN3AgxdmVmBrnHuG/+RZZ/ONdDgOGvQUyMjZLCwAp3M587vLEXXU2tvcJy7OOZGRsjgKcpXfqO+TZ1DKhOTTd0NDhPgiZERMgjzlX+pur57zyzKbK7mBr9H+TaujYwwvjjHgI/q29S+tZLvM6ttcJiXwA4CQwZxjgGrrwAnbbCXwA4CQ2xhjgFv1Leth1Z+Mldjg6N8HX8aGmF8YY4Bv6mvAGuwg8DQkTDHgCvbg7Xah+iLAH//jKr688FhdmFNjY3QT4Cr2jUT5VWdALe2tiLA0JGFANc8u/OMGltbCfPU5sZGGN2TTdC3LECb3NWTkq21lRusjY0wOpuga94rI8Ctra2sBBi6EeYejso2Qe88tWrmcn61u4WbOGB0Ye7hqGwT9LsA26jWdIDdxAGjuxPgmtdXIz+1lZ+smgPsJg4Y3aMA1zy9e5GS1n6ydlG+kQZHGNvMVtWap3dbAW5rD1agAE+NjjCyhQDXXJejlDS2ByvOTRxzoyP0EuCjcbK1uMR4RBs/WLeZGB1hZK8CXPMuLI+otfNtcQK8NjrCuO4FuOZdWBuPqLU9WHEC7CAwCLBdWLXGZdXgD9bqY7/ffwowMNxDFwH+NWomHzTtXKtjo1rSH6S/9pXtj+0H2E0cMLK7DgL8H/bOILlxJIeiUVXhvTfea+O9N7qBKW7d0xR5AdK6AGVff7orqmesrnLZIgHkR/K9CzCDVOIDH8jUy4+oeaovUCLAoS7925K+Pzm9NJljSBwEBnDmRma3O2lJ+/wmZpqKvMKIkXh/U0FLBh/9dcjoEGCAjXFftwC3k1+Zfag3ayFH+WRL+1S1AO+IjwCu7GsW4HbyfIrCiBGT4oGtjV8qo70Ey+xIbuIAcOZOZrd3AfJrq8CcQqo+R2lP84c9/1O1AnxLfARw5VirAL/t/b5TEb2uHGUtP4Ulf8dE9hzl7xL+hwa/X83bjhYICfAT8RHAk6+1CvDLR+Hyu0Cve2ZTW9JS45GaweAT/z3w3EYlQq3OluQgMIArOseATYPYYfp9TfT6bCFg5Tucs7oAl89RRpsEov9gNMrOhz7obEkOAgNsRYAN+5kfBMveSvSZwao9R/n8RLKZD93obMk/CJAAntzo7HYzNXkJe+ZUT85S7RRWXIplVASfhbYkARIAAV4/++zzzNKxMsH//OTOUa7LH2yKYCUB3hEhARy5F9rtY3T5u9qgLO0WdvoCfE79iq510C2K4CMCDLAR9kK7vYsuf1c/s7TBOusLcJM6q7t69euL4FZJgB+IkACO3Ant9iG6/F0v+sxgqU9hhZ/0PiV/YRfcEiEBHFHa7atHiqZw0Z9yv7D6r+Lo479vn9syuOCJCAngx1el3X4sUTpkjpZdBgEum6MUOWc2531f/4KbOAAc+SYlwKv6dS95RH9TAnxO/IqW9mNPaR2Df8FNHACOfJHa7iuiZTuVEP3CEzNzBgFuEr+ixfnV8lksqRYwN3EAeHIjtd376PJ3fRVZ1DDMoL+Fc5RiycMppWHwE4RIgK0I8NJ6pV0hgysF+JwyX9nMFFZf7uv2+d7WL9gRIwHcuNfa7svU8LVgiG7Sva1NTWEV9TeWdDcOCDDAZthrbfdFaviy7pl5DdYxhwCf876ilU8/5XpZv+KBGAngxp3Yfr/eg26n8EeqWIZzDgFu0r6iQ3xCKbYfuYkDwBG1/d7FW3Zj2vouh/6WNAmK9xeunYZWc6CPT8RIgM0I8LUR86WA5qvUd0MSAS5Y1Q3lv+11CjwhwACb4avafr+yHj2XD9LlapYuiwBPSX5NPgsfMxfAXIUFsCUB7sMDZJ+1vhuzCHA5k0Civ39KXAAjwAB+fJPb8FfISmsUrrLWdzMC7PtprZrXQ94CmLsoATYlwH10eFwrZI36i9ruFJZKd6FPWwBzFyWAH1/0dvxnS+AXswd2ImG61hmsci69zHzd54ahmyMCDLAhbgS3/DFYf1crGTNYqpXdSm/jbLiUUdgo+C0ESYBNCfAQHNL7nPIy5hHgRjmVC/qwJ9k0BQEGKMO95J7/UFraSSlONynVJZKDbiYXZ230gfW2ITuiJMCmBPijjtmL8fPmjPLSJxLgQuaqWnN/TDYBjQADbFCAPxCXKTQwqjaBE81glWqTy4239/n0FwEGcGMvuuuHuPLXYJypSPOuyyTAZexVwUWfsukvf4cEsDkBfrdWaKfAh0k3gedMAtyIZXEF86rXoKwSAQZAgE1FsX2WLJWKlC+Z9LfMG1rrEXit66cquD0fEWAABFiJnzqzr25W7ywaqiuZwSo0hTXLrvl5TlL+HvlDYAA/7pS3/uUw9MsUqPX6TeBUM1hl2uTKtnl/+vHjftWWXwQYYKMC/FeY+qdh1vqGqU45VsfNYL0+v5WG7FNYg/qS+74/6oMAA2xUgL+HqedpUo/VBVqc9ir58o71kHUKK+VsOwIMgABvjXznXM27tJOlJ19DisKu+M4TURLACeKLTbAOd1itZ7Ba7xZzuhSlZVcgwAAIcABjNoe189VfewUON3SHfKY5AgyAAG+QLlu5NDrrr7kLfc72hs7sCgQYAAHO4OjmnsGa/DW+yfaGmMFCgAEQ4BQzTedk6/3M4lNfxZEupUKAARBgprAyTPmazmAdnLqoRQUtXVMBAQZAgJnCyhCvO3cD2tyEnnJ9UGawEGAABDiGIZe+jAEFsHGdHWzSJ7y6CwEGQICZwtKvmOYYb9hS55tc35MZLAQYwJk7AoxRxXRItdpPLtyyBI416TvHtGRb3BIlARBg9ZoylWH+2VJvjKm0Nz9UhwADIMAbpsvUNOxiCuBApVezCJjBQoABvNkTYKykJjJkGxam57Bmc5PpazKDhQADIMBppnYie5xzmDEcVmuLZShsiH94IEoCIMDyojblSRY+r4qGj4rMULLd24UAAyDAW2bM41oOYQ50ZLGtlKEwg4UAA7hzT4AxM1sPeZZ6hSgatpunPC+IGaz/sSNKAiDA+r5uwhmsQ8BrKaBqidoJCDAAAgzHxzQedOj9kJFqL/OC2A0IMIA7NwQYu7IpqsLrQ11hu4Zz2GTTkGalCSBIAiDACRqHbRZ9uW7F+aawxjxmOQIMgACDha5NSTKF64RmjjS8N9ZM0OcPgiSAF1+IMIbOblDhFKyIwXq/oUwKAQbYNN+IMIaFU5tkndd5wnYt56AprDS9hAz8SZAEQIAztA5jmpzhgphtCmtOkiggwADb5isRxtJrDfFYh2hL2O4g0pQjQWEG6//8hyAJgACniNyHHHnClXpop/jnHO+HFjACDBABEcbUa001g9WGJSahpeWco5OQhCdiJIAbd4QYS6/1nCJNuLZen8OfWL+PkYVbYiSAG3tCjKV5ecggMFdnC3amd4oWOS3gNzwQIwEQ4CTjTZlawAXGvgK6qzlsDAQYAPg3BmN395xHgNvI9xKnbXluzEzBjhgJ4MYNIca02dkkWOP1Sx0LPLOYi8E1HG8hRAL4wV2UxtVlnhmsKfS9RInbmCBJSAQ3UQI4wlVYxs1O7y6n3QyW+kPr7SIkgouwABzhJg7j8O1dP5kVo1cNbM8Fyu565+gSwT0cAAhwniawt8lq1o496z+1yOuhBYwAA0RBjDEWmkk9RViyTrODSN4GQZq/bErCLRESwJE9QcZWaBp1hVlU6CWZwhr0a/RcPBAhARy5J8jYThu16gqzKE8wK7y37mAkY0eEBECA8zSBfSN4V6gZ2xVxvgv4A7SALyBAAnjCQWDrEqoRX9+iSrQvVHmH+wO0gN/CMWAAVzgIbB3CXWsoKyv4ap1J8YdIY7gzUDkcAwZwhXNI5pXepL28ZYWoVentmp7k+LuIRHAKCcAXoox1ienosg7FWrFdIe+7JvsiH0/ERwBX9oQZ60pPfwbrep3pi0l/6LejBXzBA/ERwJV7wox1jTlJpwcLdWYuZX6HOtC0gC/YER8BXLkhzFhXegdliVmqM1057a8id0oJ4RHAF84hmVd6rXJ2sNQkH4q534H2AC3gCxiCBnCGMWj7Ss/LyCwqgvJTWOqHpPLBEDSAN8QZc5E7CCcHi/uwczn7O+zD0QK+4InoCODMnkBjXunp2uPLO51F1T9oQI1f/wUPREcAZ+4JNOYqd9bNDRbrjFUD2ske6EtZ8xWzIzoCOHNDoDGv9A6yGrNiddpN4EG4OE8KN0EDuMNt0A6TTpPsypbrzCgtwMLGRVYYggZwhzFoh0rPpZay6sJOZfXfReZ63dSAGSwAeJc7Qo15pefSTTSawWpLapxyckIL+JJbYiOAO0xhORSaHh506SmoufDzvddGC5gZLIBomMJyqPQa0XWtsYCtLPBNNe6ZwQKA38AUlkelqdsCLj4E5iB0o2hikBnuwQKIgFjjEM3Pmsta1enUncLS/psIZrAA4D32BBv7Ss8+nBu1YJviKUCj+cVoAV/yQGQECIApLI9mq+oM1goDuCteg3vmJrSALyEwAkTAPxJ6xPNGMi1YlRgILMFvXRxCuoRrOABC4CoOj0qvVVzUSmt8Ll6E+70aWsDMYAGU4I5w41DpGcuMUQP2nH0NXnnBmd89LWAAmsDlUbxwQqH6HB4V38wg6YtnZ0dcBKAJXIJRMKRLDEBJTmGNih0DWsAAQBO4XL/V1NQ0Kj5XjoYZleGCqUnDr54WMABN4GqawK1eTrA2KegEfHCfNU386mkBA9AEVmCWC+qjRO3ZP+qVm7NgUZ4fgiJAFFwH7VJVNXIys3r8SW8Kq5dbES1gALgGIo5Lx1VNZtanBKOcOT8qWPPVcUtMBAhjT8jxqPTOahnBVF1mcnzEgXZgR0wECIODSOKVXieynl4tM+nkSvIa4L+AAQLhIJJoxWmbEBh0OmcNK1x2PXXAISSASO4IOh6Vntlsj0zh2Wm9F7VEqRIeiIgAgdwQdDwqq0etfEBG8cws3xEH2gMCIkAkHERyqfSsmp1Csqc19CR5OTUONADgQZevOVuldMCk0yl17EcrTaqGW+IhQCj3hB2P2sqouyh0M5fUHSWPWvU4DjQA4EHLVHpG7qaQzijdPDXgQONAA+BB18cgVAJLXbcodPey0aRcw68dBxoAD7pCD7qRSQaMOp1jZXkJh5BwoAHwoOv0oC1qPal/3NPJBoy+EIeQcKAB8KDr9KANpGaW0hkZY+ARB9qDB2IhQDg3hB4Xg7OtSPLs0gGDhnSHA+0B90ADFID7oH1GfNaXwL2M6WsofDLfBwcaBxqgPHuCj0uFdahF8UzzgdV156DyeSpjRyQEKAD/SejjQa/WmlFMZzQKchmDoi7+JBACFIHo4xPiDwrrMBw1GhXWY5Ye8Tu/4JY4CFCEe8KPiwe9NsarjRqZmL+tQhaAA/0ThEGAMnAU2KnIasovo5V7LyLfBgeaESwACRjD8vGg14lNJ1fozeVL8g4HmhEsgKpgDMvH5lxXZo1yhV5XfkWPONCMYAHUBRHIx+dcZQDPcoXeUFz6OhxoRrAAKoMxLJ86a1WcF7xtoviSHnGgGcECqAxuw3IqtFaojUm52di+l7Gw9g0S1gQjWABgCWNYPoF+xchRV/bxkmsym45r+I0zggWgAmNYTlbn8o7nKOi09mXFTyEvYgQLAKwhCvl40MtD/VxU/h0Tk+WLmnGgGcECqBDGsJxqraVy00s6rWNJ9TMbTseBZgQLQIn/snc3yW0bQQBG81PeZ+O9N95nkxuQ4jauIOAFQPICoHX9KOU4kWNKpKTpmR7gvQMkMqzCoBsfaRlW0A76tSPwPuWmdd9yLz7bQEuwYJFkWOXfwL5lBB5yblobfjar3ABsAy3BglRkWEE76FeOW1PD9XfwFLpt/UxkAy3BglzciYJ20HfN/v/n8pdlaHZBxo0NtAQLFkqGFTRvvep+X+S4SboZ2DX+C7GBfuyTWx+0J8OK2kF/7uqgqzCZNx6AbaAlWJCNDKv4287Xj8BD1oNmarQan2ygJViwXDKsqDv+XZvjP+SgafRkUHAAtoGWYEE+7kZRt/yXH4Vp/8Wfsc0DyWQDLcGCJZNhRe2g7zo55mpdlpZPQzbQEixISIYVNXS9+KZfosE6570sLf8ubKAlWJCRDCtq6nrpNDrknfRaPBuU/Ks4+82WYEFCMqyoHfRLT8M58aTX4DXsZAMtwYKle++WVHgMfeUInLk1mqtfjZa7CAkWUIcMK+q+/7LBa8y8ai3xXNJuALaBlmBBTjKssB30Xe4zrvLTwaHZg5DfagkWJCXDKt0bverMmVKvWmvPobMNtAQLVkCGFTZ67eoeOdu4yzLV/emKPgbZQEuwIC0ZVtTLx5fc+3PHvvvunkZsoCVY0AEZVtjwdfuhM9Y94VosBhr9HdhAS7AgLxlW6VH0FSPwkPykmWsO6LMNtAQLVkKGFbaD3lT8v4aeNENfDyO+hlKCBX2QYYXtP28+debk7zr3FSf0on8BW7/REizITIYVtgDdVDt0gke9ej9g0QHY11A+9qt7HaQjw4o7AG6b+/bpR72p1rNI0Q+C2UBLsCA5GVbcCXDbCDakH/Wq/YRl38FLsCRYkJwMK24HfVfp1Mn/WLLN+vgjwQLa+dnNKSzDumkImyutups+ltwlffqRYAEtybDCMtxbXkOOHexapxoXosXDjwQLaEqGFfca8oZTYN/BrnVfZUtedgD2NZQSLMhPhhU4hl0/BoYq02XzvcC5woXwIeCn/O42B0nJsALnsKtvIqcejpo5/ocsXGBJsCRY0AMZVuAgdvUg6OJl59DDg4gPAUuwoD8yrMBJbBf+v+viouwqX3YbaAkWdEGGFTiKXRlQ9/GzZY6XwHU3/xIsCRb0QYYVmWFtgpe72z6eSs5VL7oPAUuwoBMyrLLT3gtOyLdPfoc+nkq2Va/52a+xBAv6IMOKzLCePSI7WbaOsTNp6bW/BOsRXwMPzDlHAAAfNklEQVQNucmwAnug546DsZdl6xz5oDBWXTpIsIBM3rlNBQZBzyxE970sW4fIPcBcc+cgwQJSkWGFZlibwHOtm2tyrrfzl2BJsKAjH92oApOgp0+EuZu3nXFr4eILaAmWBAt6IsMKHcme3In287ZzCnsImeotHCRYQEIyrNCZbBf1Pzr081BSbeEvwZJgQVdkWKFV0BPz39DPsBf2rLCptm6QYAEpybBip7LLp0LcXjfhS+BzpQW0BEuCBZ2RYcWOZbuQSbvitnUK+VkDHnUkWBIs6IwMKzbDunj+9LRt3ed8BJFgSbCgfzKs0Azr0mE5hpxpabcCVRbQEiwJFvRHhhV8MuzKz9lVX3fOCZ9AJFgSLFgCGVbwu8nvX05OXb3uHMr/tAELaAnWI7+4rUEnZFjBZ8N3w9nc1evOsfjZONV4ypFgAfnJsIIzrO+W0F29Ai7/444VLrEEC+iCDKtoc3Q1ENqX/c/lfy9eYckgwZJgQZdkWNH70W+X0EPplXb2pcAh/gL7vZVgQZdkWNEL0m83pFNnp81YdDyNyNwkWBIs6JUMK3pD+s0JMfd22pT8gUOeb3wGSYIFvZJhhY9ojyrdsdx/qpMd9C56AS3BkmBBt2RY4SPw7lDsgD9090hS7+kGCRZ05ke3rZLR0fN72KG/ca/YARmzgDYAS7CgXzKsoufN86fQW5ew2/52AtvQ5UKLKyLBAkqRYcWPwF9Xxx3uW4dC0/8UemGRYEGPZFh/hpe6/2xK3/wf7/CC7CJfAPsMkgQL+ibD+jM61f3npNj3eNwUeWgIeq4xAEuwoG8yrKLZ7zPb47euc7c9PpGc414AG4AlWNA5GVbR6uiZYW3ucd7bF3hqmAKfapBgQcdkWDVG4N2bt7ltPnIzvn1KDbykSLCgazKsKiPw3djnwvWt1yPsBbABWIIF/ZNhPTZEnRdzn+fNW69H2BONfwdJggX9k2EV7X4Xdt7sGz93+BKOW/zhNgZ9kmHVGYE7fePpgUSCBYSRYZXMjpY28E05r4fPIEmwYAlkWB2cOAcbAV/CIcGC5fnNLSz9COxyGIAlWLBAMqz0I3DDA2c2AEuwgCgyrPQz39nziC/hkGDBEsmwss98DSe+veeR5NzAoGcyrORHTtOJzwAswQLiyLByj8BbV8MALMGCZZJh5R6Bm544gwFYggWEkWHlHvpEab6FUoIFSyXDyjwCN/7Uq89EJ/bpg7sXdE6GlXkEbjzyTQZgCRYQR4aVeAQ+uBgGYAkWLJYMK/HatfG1GA3AEiwgkHtZ2qmv+Rcfz55GJFhAHBlW2hH43PpaDAbgrNy4YAl8EintCOxa+GcYJFiwaDKspCPwzrUwAD/hg/sWLIIMK+nYl+DMmQzAEiwgkPtZzrEvwZkzeBiRYAGBZFg5R+AEl2L0MCLBAgLJsFKOwHcZLsVsAJZgAYFkWBlH4BSHzmQAlmABgWRYGee+g2cRA7AECxbPPS3fsZPkH781AEuwgEgyrHwj8J0rYQCWYMHyybDyjcDnHFciwweR/D5KsGDBZFjpBr8kF2I0AEuwgEgyrGwj8C7LlTAAS7CAUO5r/zMZ+3JcCAOwBAsWToaVbPWaJvwdrAIkWEAkGVayyc+TSK4YTYIFhJFhpTp47vJciNkALMECIsmwUo3Aiea+wQAswQJCvXdzS9T/HvJchr0BWIIFhJJhJRr9dh5EDMCXfHKjgiWSYSU6ebZ28dlehUuwgDgyrDzL11SD32ATL8ECQsmw8gTAqa7CaACWYAGxZFhZRuBkB48PQ0uwgFgyrCyvP7euggFYggVrIsPKsn1N9upzbwCWYAGxZFg5hr90H35VokmwgFgyrBxnT7rV6+wxRIIFxJJhfWcw+jX6IJIBWIIFayLDSjH9pbsGe2sACRYQS4aV4vBJN/u1aNEOfvUkWLAqMqwUHVay6e/kk1gSLCDaz25zKca/TEPw2CTB8nsnwYK1kWGlGIE3m12WFWyL8VeBdcGv7k6wcO/c6FJ0WA8+rzW/8hEkCRaskgwr0SnUfAhus31WYEmwYJ1kWGlG4M3mvulBNJ4a/bF9BEmCBaskw8rSYbXeQzc7fhVYEixYKRlWlg6r6RHc8PjdbP3CSbBglT662V3Q8DjaNTiCj3PLP7BfNwkWrJMMK1GH9eVA2hxXdPz6CJIEC9ZLhpVsCf33GXxczfGrwJJgwXrJsHJ1WHUX0afGx6+PIEmwYM1kWJcMrQ+mGjnWqfkf0gJaggVr9s4N75K5/eEU+7ng8b79n1CBJcGCVZNhpeuwKmyiT3OGP58F9CW/uynBanx0y8vXYYWOwcf7HH82BZYEC1ZOhnVZkkPqYQwuegaPp82c5U/ml0yCBSsnw8q7hC58Bh9Pm0QUWBIsWDsZVuol9Ncz+M0fDj7ep5l9LaAlWMDfZFjJl9D/vg9+/SB8PM3Z/jQKLAkWIMPKv4R+dAgfX3P45jt+LaAlWIAMq48l9H9fFn37KXw83W+SUmBd5GugYW1kWE8Uw5vE5odj+Hh5jTuODyfv/SY1C2gJFvDgRze+fpbQF0bi+f6r+UEPP/Nm65dLggX8IMN6Wh+nWX8soCVYwBcyrB6X0B2zgJZgAV/IsLpeQndHAS3BAr6SYXVVQltAS7CApXjn5mcJbQEtwQLqk2FZQltAS7CAFmRYltAW0BIsoAEZ1tOcmRbQEiwgjgzLEtoCWoIFNODbsCyha/CPEEqwgP+RYT3DF2IV45fpKb+4CcFqybB8FskCWoIFNCDDesbg6LSAlmABUWRYXgP7BJIEC2hAhmUJ7RNIEiygARmWzyJ5ASzBAlqQYXkN7AWwBAtoQIbls0heAEuwgBZkWF4DewEswQIakGF5DewFsAQLaECG5bNIXgBLsIAWZFheA/sKSgkW0IAMy2tgL4AlWEALv7kZOoG9AJZgAfXJsK44OUy9AJZgARHcDYVYPgEswQIakGEJsbwAlmABDciwvAb2AliCBbQgw7rG93G8zNavjAQLuIUM6yr/LIMAq6A/3HSAL35675YoxBJgSbCA+mRYQiwBlgQLaECGJcQSYEmwgBZkWE7gUj77VZFgAbeTYUmhBVgSLKAFd8UbOF0FWBIsoDQZlh10EX5NrnO7AR77yW3RCtoBLMECGpBhXeXLOCTQEiygPBnWVb6Lw5dQSrCAAO6MGiwRtAQLaECGpcFSQUuwgAZkWBosFZYEC2hBhqXB8kXQ4T640/zF3t3stm10ARiGHWQvFPBeXXivje9AibZu60g3IFs3QFu33wb9ii9t/jgccjgz53nWTZEQ5hxy5pUMfEWG9WN+G4MMWoIFLOPO8qjBkkFLsIDyZFgaLBWWBAtYgQxLg6XCkmABa5Bh/YCv4VBhSbCApciwNFgqLAkWsAYZlgZLhSXBAlYgw9JgqbAkWMAKZFjf5Ws4VFgSLGBBMiwNlkNgCRawAhmWAewQWIIFrEGGZQvaG7AEC1iBDOs7fA+HM+BMv1legB+RYamgVdASLGANMqzvMFlH+uhnRYIFTCHD+g7fhKXBkmABi5JhyaA1WBIsYAUyLBm0X8awAEsL8DMyLBm0CFqCBaxBhmUAi6AlWMAK3lksfQ5JBC3BAlYgw/I5JBG0BAtYgQzL55BE0PPyLVjAKDIsA9gAlmABa5BhfYsPAvsUkgQLWJgMywA2gCVYwBpkWN/gmzgMYAkWsLT3lkwD2ACWYAHlybAMYANYggWsQYZlABvAEixgBTIsA9gAlmABa5BhGcA+ByzBAlbwq2XTADaAJVhAeTKsr/gcsO+ClmABBdxbOLMG8NtgACPBAiaQYf1X2hz69OnSyUQ9vCT9534doQQLyCTDyhnAn8dQH79B+C390YMv7awlQKL3ls5/OU3YiO1gG/o1efPdj4oEC8gjw8qJoJ///kOtb0MfntOfPWTQEiwgkwxreoN1+OdPHYfGt58/Je+lq7AkWEAmGVbeEfCn1l+CD8///BuGif92JFjAJDKsLxwnb8O2+hL8NnX73Q+LBAvIJMOa3GD9+89emn79zfzHS7AAksmwpjZYh/++Pg8Nv/4m77+rsCRYQC4Z1v8ljdCvO6RLu6+/yQWaCkuCBeSSYU18B3z+xhny0Ozrb+77vwQLIJkMa8ZT0Eurr7/JCZofFwkWkOvGEjrlFfDjHNvYa3nJ/6s/+3mRYAGZZFiTDkG/WyHVvw/9Nse/3yHw/zxaQoDJZFgzHQG3sQ99fZ5lC95XcUiwgGwyrAlnoD+OkC5NHf5OewLxA+MzSEA2GVb6EfDPdmCHlg5/J+1BOwSWYAHZZFjJ4+ft5+/TQzuHv5Pe3B0CS7CAbDKsxA3Yt1H/v9pG8Nu8f2eHwBIsIJ8MK+UI+DB687WmEfw28u98cQgswQLKkWElHAGPn79/eRnaGr8pDyIOgSVYQD4Z1ugj4NTvYKzhLfgt7W/sEFiCBRQjwxp7BJz0/lvFCD68pf6FTw6BJVhAKTKsse99r5P+5+t9LvjwstxmgB+aR0sHkE2G9bTsW986I/g68ZzWIbAECyhFhjUsPXOK70Sn7z0nPo2EPwSWYAFzCJ9hlfgtuJeh/pffcldDggXwWfQM67TgCfCXr8HXek9+01+BJVgA+aJnWOdiE+fluvjWc/7h7LHM84gECyB8hjUsmmCVm8FzTN/i10OCBYQWO8Mq/sa3yF70dabpO3ZLPvYhsAQLmMtD5MV0jTPP46xN1uH6Uv6J5Dnyz8zOmgHMJHSGdV5px3WmITzv8B2/B/1BggWQL3SGtWZzdLzkbEdfFxi+o/cEIh8CbywZwGwCZ1in1T9183K5DhN2nZ87viQSLCCMwBlWLa97n8fwiDk8XN8WHL0VbApIsIBg4mZYQ2XD5uXlcrn+NYuH4fB53u4P+8PhcL1eLy8vx96PxSVYQEBhM6yj7daJuwJhP4gkwQLmZQfarEl8KnkO+iOzsVoAs4qaYfnIzeRD4A9Bf2S2VgtgVlEzLL3R5EPgoHvQEixgbjEzLJ+4mb4xH/SDSDtrBTCzmBmW3jfjEPg14k+MBAuY3e2dHWiHnUnXJeQHkTaWCmB2ETMsb3o5OwMh96C3Vgpg/lfggKups86sCxPwyUSCBSwhYIY1qH1z4rSAe9A76wSwgHgZ1tERcNYhcLxHEwkWsAwbrTZak/YG4n0Z1sYqASzi3pQxZZKeTcJtDmytEsAiwmVY9lkzD4GjXRsJFrCUB0NGaZRyPB5td2BnjQAWEizDOttmzdwdCHZx/rBEAIsxYzRYSU8nsfagN1YIYDGhMqxxO9BBf+XAyAor1h701goBLCZUhuUdb4bHk0j7AxIsYEmRMqxBg5W/QR/p8uysD8CCAmVYJ5nRDM8ngXboJVjAsu4ccmqwEnboA12fjdUBWFScDMsb3iwPKHH2oC0OwLLCZFgjv2ki7gA+uUASLKCoKBmWF7x5Kqwwe9A7awOwsCgZ1qDBmucKBXlEkWABy4uRYR29381UYQX5oPTGygAsLkaGNXIHOubvIky7RDGeUSwMwPJiZFiDxGiuCivELr0ECyghRIa1t7861zUK8ZCytS4ABUTIsMZur36MPIAH2/QSLKCsABnW2faqiyTBAqoTIMPaC4zm2yYIsE9vUQDK6D/DGtsXRY6gXSUJFlBe9xnWWV80wtjPSve/B721JgCFdJ9h7TVYc16m3vegJVhAOZ1nWCevdvNuFHS+B72xIgDF3BssBvD4Cqv362RBAMrpPMPae7Obd6eg7z1oCRZQUtcZ1ugXu9gNVkKF1feTytZ6ABT0rucFdTCA594q6LlWk2ABZXWcYR2NFY8qEiygWh1nWON3oD9EH8Cja7WOvzLsN4sBUFbHGdZgqsz/rNLvZoEECyit2wxr/A509Ag6IYPueA96ay0ACus2w3oyVJZ4WOl1u16CBZTXa4Y1fqYcwg9gF0uCBazgffhd1Y8G8BB+v95CAJTXaYZ1tqvqakmwgLr1mWGNnygi6KQD8z73oLfWAWAFXWZYCTvQIuikCqvLyyXBAtbRY4aVcKgpgk4bwD0emW+sAsAqfo09UETQaTv2HV4v34IFrKTDDOu0F0EvVWF1eGYuwQLWch96B1oEnVZhdfjEsrUGACvpLsNK2YEWQacO4O4OzSVYwHruIo8TEXT0R5aNFQBYzfvAO9Ai6NQKq7c9aAkWsKLOMqyk1zkRdPRnFgkWsKa+MqykHWgNVnIG3dke9Nb9D6yorwxrMICXfWjpag9aggWsq6cMK2kHWoP1t9M+6h70zt0PrKqnDOtpr8Hy1CLBAhrRU4Z11mAtnEH3tG8vwQLWdh90lPgiyikH5x09tmzd+8DK+smwTnsN1tL7Bv3sQUuwgPXdxZwkr0bvlJPzbi7bzp0PrO4m5F6qBmvaxkEvO/cSLKACvWRYaTmvBmvadevlweXRjQ9UoJMM68kALtCu9XIIvHXfAxXoJMM6a7BKbN33ceEkWEAd+siw9gZwiSeXPg6Bd+56oApdZFiJR5ki6IkDuItDYAkWUIkuMqynfdTvVHTlkv3ipgcq0UOGdd77FNI0p3ib91v3PFCJHjKsvQi6zOZ9B4fAEiygHnemSGD7aJsHO3c8UI32M6yTCHqyIdghsAQLqEj7GdbZAHbtRnp0wwMVaT7DGnwKqdQAbn77fut+ByrSeoaVeATsU0hfeooVsP3udgeq0niGddr7FFKxi9f408vO3Q5U5cZLXFip2wdt799LsIDKNJ5hDQZwhn2kCuvRzQ5U5j7SCPEx4Jyr1/bjy9a9DlSm6QzruPcppHL7B02foEuwgPo8BMqIXg3dL50DVVg7dzpQnZYzrCefQip5+Rp+fpFgARW6DfQKZ+ZmbSA0vIP/6EYHKtRwhjUYwCWP0Btu2Lbuc6BCDWdYe59CKnn92h3AEiygTg/e4Azgvh9gdu5yoEo3UQbwByM35hm6BAuoVZSI6NXIjTmAH93jQKVazbB8CskFlGABTXsXZH6YuDG3ECRYQL0azbDOIuiyFVajA3jnDgeqdRNiAIugcwdwmxWbBAuo2O1dkyvrIIJ2BX9u4wYHKnYfYXyIoHNP0dscwFv3N1DzK3CEASyCDjmAJVhA3ZrMsETQuY4BBvDO3Q1U7ab/ASyCzr6ELQ5gCRZQu/6nhwg6exe/xQG8cW8Dlbv3+hbRuftLuHVvA5W77X4Aa7CyK6wGB7AEC6jfQ+8D2LTNrrAaHMA7dzZQvQYzrEGDVfYhpr0BLMECWtD5AHYEHPEabtzXQAPu+x4er4Zt9iFwewN4674GGnDb9wDWYH3TqeuHGAkW0IbmMqyzI+Cyh8DNDeCduxpowk3PA9jXcMywjdDaLsIfbmqgEXcdn19qsGZ4imltAG/c00Aj7jsewI6AZzgElmABLOPW7Ijn2O85ugQLaMdDt7PDEfAMh8CtDeCdO/pPdu4YKXIrCqBoQRd5J513Qk7CEpxDDYU34LI3AOPtO3E0CQyo/+WJc3aAqp6e9HVpYIxpGZZPwEs/Ag97ipFgAZOc9rqAfQLe4CB/2FPM0TwDgwzLsF58Al55kP8qwQK4lGEZ1l8+Aa98jJl1jCDBAmaZlWE9+SHolVdRggVwObMyrGefgBd+BJ51jCDBAqaZlWH5IeiFV3FWg3U0y8AwszKsF/+EtO5T+qxzfKMMTDMrw3ryCXjdGbQEC+Ci7q2O7+Z5h+f4dyYZGGdWhuUEetkZ9KirKMECJhqVYb1ooFcdJIy6ikdzDAw0KsN60kAvOkiYdRWNMTDRqAzr2Qn0oueYUVdRggXMNCrDepFgrXmOGXUCfTbFwEiHfb27+R3oLTKsUSfQEixgqlEZlgRrySvwqwQL4PJu9/Tu5gV4k8sowQJYYFcZlhfgLS6jBAtgiR1lWF6AN3kFHvWnnE0wMNaoDOtPCfTFP6aPeoyRYAGTnfby7vZqsW7wIDPrRziO5hcY7GYnny/9CNYmDzKzHmOMLzDZ9U42hwJri6/ps76jS7CA2e53sTkcQG9ylDDrrzibXmC0wx42xx926hafgWcdI0iwgOlO8zeH/0Da5DoOO0Y4ml1guJvxm8P+3eQsYdj+fTS6wHTX09/dftqmH9rAL7MzNgkWMN/t7Hc3/fNH/TP6KeZscoHxDpM3h9ffT13I/9+Cf857ipFgAXtwmro5/rV+P3+e8PfMI4SjuQV24MYaYhgJFrAL1+7nSLAAArdu6EiwANY7uKEjwQIInNzSkWABrCfDQoIFEJBhIcECKMiwkGABBGRYSLAACjIsJFgAgSu3dSRYAOvJsJBgARRkWEiwAAIyLCRYAAUZFiPcmVVgZ2RYSLAAAjIsJFgABRkWEiyAgAwLCRZAQYaFBAsgIMNCggUQkGHx1T0YU2CXZFhIsAACMiwkWAAFGRYSLICADAsJFkBAhoUEC6Agw0KCBRCQYfF1+RloYM/u3eaRYAGsJ8NCggUQkGEhwQIoyLCQYAEEZFhIsAAKMiwkWAABGRYSLICCez0SLICADAsJFkBAhoUEC6Agw0KCBRCQYSHBAii43/PFHE0l8C3IsJBgAQT8IDQSLICCDAsJFkBAhoUEC6Dgns8X8mAigW9DhoUECyAgw0KCBVCQYSHBAgjIsJBgARTc9/kijqYR+FZkWEiwAAIyLCRYAAUZFhIsgIAMCwkWQOHk5o8EC2A9GRYSLICADAsJFkBBhoUECyAgw0KCBVCQYSHBAgjIsJBgAQRkWEiwAAoyLCRYAAEZFqUfRhD4tmRYSLAAAjIsJFgAARkWEiyAggwLCRZAQIaFBAugIMNCggUQkGEhwQIIyLCQYAEUZFhIsAACB6sACRZAQIaFBAsgIMMiYPAAZFhIsAAKMiyWO5s7ABkWEiyAhAwLCRZA4MZCQIIFsJ4MCwkWQEGGhQQLICDDQoIFUJBhIcECCMiwkGABBGRYSLAACrfWAhIsgPVkWEiwAAoyLCRYAAEZFhIsgIAMCwkWQEGGhQQLICDDQoIFUJBhIcECCMiwuLxHgwbwKxkWEiyAggwLCRZAQIaFBAugIMNCggUQuLIgkGABrCfDQoIFUJBhIcECCMiwkGABFGRYSLAAAjIsJFgAARkWEiyAggwLCRZAQIaFBAugIMNCggUQkGEhwQIIyLCQYAEUZFhIsAACMiwkWAAFGRYXcGeyAN4gw0KCBRCQYSHBAijIsJBgAQRkWEiwAAr3FgYSLID1ZFhIsAACMiy29WCoAN5FhoUECyAgw0KCBVCQYSHBAgjIsJBgARRsDSRYAAEZFhIsgIAMi634GWiA3yHDQoIFEJBhIcECKNgcSLAAAjIsJFgAAT8IjQQLoCDDQoIFEJBhIcECKNgeSLAAAjIsJFgAARkWEiyAggwLCRZAQIaFBAugYIPwKUczBPAhMiwkWAABGRYSLICCDAsJFkBAhoUEC6Bwskb4qAfzA/BhMiwkWAABGRYSLICCDAsJFkBAhoUEC6Agw+JDjmYH4FNkWEiwAAIyLCRYAAUZFhIsgIAMCwkWQEGGhQQLICDDQoIFEJBhIcECKMiwkGABBGRY/J4fhgZgEzIsJFgAARkWEiyAgAwLCRZAQYaFBAsgcLBUkGABBGRYSLAAAjIs3s24AGxHhoUEC6Agw0KCBRCQYSHBAijIsJBgAQRurBbe4fFsVgA2JcNCggVQ8J9ISLAAAjIsJFgABRkWEiyAgAyLNxkTgO3JsJBgARRkWLzhbEoALkCGhQQLoCDDQoIFEJBhIcECCMiwkGABFGRYSLAAAjIsJFgABRkWEiyAgAwLCRZAQIaFBAugIMNCggUQkGEhwQIoyLCQYAEErqwaJFgA68mwkGABFGRYSLAAAjIsJFgABRkWEiyAgAyLXz0aC4DLk2EhwQIoyLCQYAEEZFhIsAAKMiwkWAABGRYSLICADAsJFkBBhoUECyAgw+K/9u4gp2EYiAKoSC9QiLIvqdi3iXqS3v8uCAkkFixY5due987g6mucP64KFkCCGhYqWAABalioYAEkyB1UsAAC1LBQwQIIUMNCBQsg4SF6+HLzWwA4lBoWKlgAAV7DQgULIEENCxUsACMwKlgARahhoYIFEKCGhQoWQMIigKo7+xUABLwLoOr8CAAS1LDsIAGQYBPJDhIARmAMwABGYAzAABiBMQADGIExAANgBMYADGAExgAMgBEYAzCAERgDMAA/RFFJb04+QJgXoSvyN0gAeYs4qufs3APEncRROU/HHqABD4GkgQXA8awiWUECIEEPSwMLgASX0KXcnHiARriEdgENQIJL6EIX0BfnHaAdLqFdQAMQ4BK6Cm9QArTFcxw1eIIDoDUfwskHYAACfAb2ARiAgGmRTz4AA3A8n4FtAAOQ8CKiFLAACPAehwIWABIY+QtQhWUk+QtAgmUk+QuABEb+AlRxF1fyF4AATazh9o/kL0AXriLL/i8AAadFao3D+5MA/ZhUsYaxOc4APfEh2OdfABJcQxt/AUiYDMG9m42/AH1GsJXgrpd/jb8A3VqVscQvAKZg/nv5vDq6AN1H8FUdq7fh9+LYAgySwebgXsJ3lr4Ag4Xwuu/3V77Njdh/2bZV+AIAAAAAAAAAAAAAAAAAAAAAAAAAAAAAAAAAAAAAAAAAAAAAAAAAAAAAAAAAAAAAAAAAAAAAAAAAAAAAAAAAAAAAAAAAAAAAAAAAAAAAAAAAAAAAAAAAAAAAAAAAAAAAAADwt08j2jD1p52PJwAAAABJRU5ErkJggg==;" parent="1" vertex="1">
          <mxGeometry x="1088" y="370" width="63.33" height="35.62" as="geometry" />
        </mxCell>
        <mxCell id="bbxzTCmNcXKcuzSU-puy-38" value="Continuous Integration" style="rounded=1;whiteSpace=wrap;html=1;" parent="1" vertex="1">
          <mxGeometry x="173" y="650" width="435" height="60" as="geometry" />
        </mxCell>
        <mxCell id="bbxzTCmNcXKcuzSU-puy-39" value="Continuous Deployment" style="rounded=1;whiteSpace=wrap;html=1;" parent="1" vertex="1">
          <mxGeometry x="688" y="650" width="520" height="60" as="geometry" />
        </mxCell>
        <mxCell id="afCSUKUp_HiYvRlUlmXQ-1" value="Armand Messan" style="rounded=1;whiteSpace=wrap;html=1;" parent="1" vertex="1">
          <mxGeometry x="928" y="260" width="140" height="60" as="geometry" />
        </mxCell>
        <mxCell id="afCSUKUp_HiYvRlUlmXQ-2" value="" style="shape=image;html=1;verticalAlign=top;verticalLabelPosition=bottom;labelBackgroundColor=#ffffff;imageAspect=0;aspect=fixed;image=https://cdn1.iconfinder.com/data/icons/unicons-line-vol-2/24/copyright-128.png" parent="1" vertex="1">
          <mxGeometry x="1038.5" y="260" width="29.5" height="29.5" as="geometry" />
        </mxCell>
      </root>
    </mxGraphModel>
  </diagram>
</mxfile>
